<svg width="100" height="100" viewBox="0 0 100 100" fill="none" xmlns="http://www.w3.org/2000/svg">
<path d="M23.5294 11.7647C23.5294 18.2622 18.2622 23.5294 11.7647 23.5294C5.26724 23.5294 0 18.2622 0 11.7647C0 5.26724 5.26724 0 11.7647 0C18.2622 0 23.5294 5.26724 23.5294 11.7647Z" fill="#FFACF7"/>
<path d="M61.7647 11.7647C61.7647 18.2622 56.4975 23.5294 50 23.5294C43.5025 23.5294 38.2353 18.2622 38.2353 11.7647C38.2353 5.26724 43.5025 0 50 0C56.4975 0 61.7647 5.26724 61.7647 11.7647Z" fill="#FFACF7"/>
<path d="M100 11.7647C100 18.2622 94.7328 23.5294 88.2353 23.5294C81.7378 23.5294 76.4706 18.2622 76.4706 11.7647C76.4706 5.26724 81.7378 0 88.2353 0C94.7328 0 100 5.26724 100 11.7647Z" fill="#FFACF7"/>
<path d="M23.5294 50C23.5294 56.4975 18.2622 61.7647 11.7647 61.7647C5.26724 61.7647 0 56.4975 0 50C0 43.5025 5.26724 38.2353 11.7647 38.2353C18.2622 38.2353 23.5294 43.5025 23.5294 50Z" fill="#FFACF7"/>
<path d="M61.7647 50C61.7647 56.4975 56.4975 61.7647 50 61.7647C43.5025 61.7647 38.2353 56.4975 38.2353 50C38.2353 43.5025 43.5025 38.2353 50 38.2353C56.4975 38.2353 61.7647 43.5025 61.7647 50Z" fill="#FFACF7"/>
<path d="M100 50C100 56.4975 94.7328 61.7647 88.2353 61.7647C81.7378 61.7647 76.4706 56.4975 76.4706 50C76.4706 43.5025 81.7378 38.2353 88.2353 38.2353C94.7328 38.2353 100 43.5025 100 50Z" fill="#FFACF7"/>
<path d="M23.5294 88.2353C23.5294 94.7328 18.2622 100 11.7647 100C5.26724 100 0 94.7328 0 88.2353C0 81.7378 5.26724 76.4706 11.7647 76.4706C18.2622 76.4706 23.5294 81.7378 23.5294 88.2353Z" fill="#FFACF7"/>
<path d="M61.7647 88.2353C61.7647 94.7328 56.4975 100 50 100C43.5025 100 38.2353 94.7328 38.2353 88.2353C38.2353 81.7378 43.5025 76.4706 50 76.4706C56.4975 76.4706 61.7647 81.7378 61.7647 88.2353Z" fill="#FFACF7"/>
<path d="M100 88.2353C100 94.7328 94.7328 100 88.2353 100C81.7378 100 76.4706 94.7328 76.4706 88.2353C76.4706 81.7378 81.7378 76.4706 88.2353 76.4706C94.7328 76.4706 100 81.7378 100 88.2353Z" fill="#FFACF7"/>
</svg>
