<svg width="1920" height="608" viewBox="0 0 1920 608" fill="none" xmlns="http://www.w3.org/2000/svg">
<path d="M1919.33 154.054V398.055H2V152.721C214.667 80.7212 875.333 297.388 1264.67 190.721C1576.13 105.388 1830.89 130.721 1919.33 154.054Z" fill="url(#paint0_linear_477_6203)"/>
<path d="M1919.33 154.054V398.055H2V152.721C214.667 80.7212 875.333 297.388 1264.67 190.721C1576.13 105.388 1830.89 130.721 1919.33 154.054Z" fill="black" fill-opacity="0.2"/>
<path d="M1726.73 3.27092C1727.54 -1.0903 1733.79 -1.09031 1734.6 3.27091L1748.05 75.8391C1748.63 78.9588 1752.44 80.1956 1754.74 78.0116L1808.28 27.2098C1811.49 24.1567 1816.55 27.8298 1814.64 31.8333L1782.87 98.4494C1781.5 101.313 1783.86 104.551 1787 104.137L1860.17 94.5062C1864.57 93.9275 1866.5 99.8707 1862.61 101.987L1797.75 137.206C1794.96 138.72 1794.96 142.722 1797.75 144.236L1862.6 179.455C1866.5 181.572 1864.57 187.515 1860.17 186.936L1787 177.305C1783.86 176.891 1781.5 180.129 1782.87 182.993L1814.64 249.609C1816.55 253.613 1811.49 257.286 1808.28 254.233L1754.74 203.431C1752.44 201.247 1748.63 202.484 1748.05 205.603L1734.6 278.172C1733.79 282.533 1727.54 282.533 1726.73 278.172L1713.28 205.603C1712.7 202.484 1708.9 201.247 1706.59 203.431L1653.06 254.233C1649.84 257.286 1644.78 253.613 1646.69 249.609L1678.46 182.993C1679.83 180.129 1677.48 176.891 1674.33 177.305L1601.16 186.936C1596.76 187.515 1594.83 181.572 1598.73 179.455L1663.59 144.236C1666.38 142.722 1666.38 138.72 1663.59 137.206L1598.73 101.987C1594.83 99.8707 1596.76 93.9275 1601.16 94.5062L1674.33 104.137C1677.48 104.551 1679.83 101.313 1678.46 98.4494L1646.69 31.8334C1644.78 27.8298 1649.84 24.1567 1653.06 27.2098L1706.59 78.0116C1708.9 80.1956 1712.7 78.9588 1713.28 75.8391L1726.73 3.27092Z" fill="#F88312"/>
<path d="M0 152.721C0 152.721 7.71721 228.96 163 239.024C385.126 253.42 458 152.721 953.25 152.721C1448.5 152.721 1536.82 241.282 1734.52 239.081C1920 237.017 1920 152.721 1920 152.721V520.009C1920 520.009 1920 604.305 1734.52 606.37C1536.82 608.57 1434 520.009 953.25 520.009C472.5 520.009 385.126 620.708 163 606.312C7.71721 596.248 0 520.009 0 520.009V152.721Z" fill="url(#paint1_linear_477_6203)"/>
<path d="M547.223 383.879C545.366 384.218 543.532 384.317 541.722 384.175C539.93 384.008 538.428 383.653 537.216 383.111L538.464 377.968C539.597 378.435 540.86 378.766 542.256 378.96C543.669 379.129 545.034 379.093 546.351 378.853C547.237 378.692 547.936 378.486 548.448 378.235C548.957 377.963 549.306 377.675 549.497 377.371C549.705 377.041 549.776 376.691 549.71 376.322C549.616 375.8 549.304 375.431 548.774 375.213C548.244 374.995 547.584 374.858 546.793 374.8C546.002 374.742 545.125 374.7 544.161 374.674C543.219 374.643 542.256 374.561 541.273 374.426C540.311 374.287 539.409 374.047 538.567 373.707C537.721 373.345 536.991 372.816 536.375 372.12C535.755 371.402 535.336 370.435 535.117 369.218C534.87 367.849 535.014 366.543 535.549 365.301C536.105 364.055 537.068 362.959 538.437 362.014C539.805 361.068 541.602 360.393 543.826 359.988C545.316 359.716 546.805 359.624 548.293 359.712C549.798 359.774 551.171 360.029 552.411 360.476L551.298 365.629C550.112 365.239 548.965 364.999 547.856 364.909C546.744 364.798 545.69 364.833 544.697 365.014C543.812 365.175 543.117 365.403 542.612 365.697C542.104 365.969 541.758 366.279 541.575 366.627C541.392 366.974 541.336 367.344 541.407 367.735C541.497 368.235 541.796 368.595 542.304 368.817C542.83 369.013 543.488 369.14 544.279 369.198C545.088 369.23 545.963 369.261 546.905 369.291C547.869 369.318 548.832 369.4 549.794 369.539C550.773 369.652 551.686 369.89 552.531 370.252C553.373 370.592 554.093 371.123 554.691 371.845C555.307 372.541 555.723 373.486 555.938 374.681C556.176 376.007 556.02 377.304 555.467 378.572C554.932 379.814 553.981 380.908 552.612 381.853C551.265 382.795 549.468 383.47 547.223 383.879Z" fill="white"/>
<path d="M571.397 379.433C569.969 379.677 568.634 379.613 567.392 379.243C566.172 378.868 565.136 378.138 564.285 377.051C563.452 375.938 562.88 374.457 562.569 372.606L560.902 362.708L567.069 361.657L568.565 370.541C568.796 371.913 569.209 372.851 569.806 373.354C570.424 373.853 571.199 374.023 572.129 373.865C572.735 373.761 573.263 373.526 573.713 373.158C574.163 372.79 574.488 372.275 574.688 371.614C574.885 370.931 574.901 370.099 574.736 369.119L573.3 360.594L579.467 359.542L582.448 377.246L576.573 378.248L575.732 373.25L577.104 374.461C576.718 375.871 576.007 377 574.97 377.849C573.93 378.676 572.739 379.204 571.397 379.433Z" fill="white"/>
<path d="M601.451 374.182L600.933 370.877L600.382 370.126L599.428 364.039C599.274 363.058 598.852 362.353 598.163 361.926C597.492 361.473 596.506 361.351 595.206 361.557C594.36 361.691 593.526 361.969 592.704 362.391C591.878 362.79 591.199 363.278 590.667 363.855L587.924 359.964C588.819 359.151 589.932 358.46 591.265 357.89C592.616 357.295 593.985 356.888 595.372 356.667C598.234 356.213 600.549 356.527 602.318 357.61C604.106 358.668 605.221 360.604 605.662 363.418L607.207 373.268L601.451 374.182ZM596.295 375.303C594.886 375.527 593.656 375.477 592.606 375.151C591.555 374.826 590.704 374.291 590.054 373.544C589.425 372.795 589.031 371.907 588.87 370.882C588.699 369.791 588.823 368.81 589.242 367.938C589.679 367.041 590.439 366.294 591.523 365.697C592.603 365.079 594.054 364.625 595.875 364.335L600.037 363.674L600.545 366.914L597.228 367.441C596.231 367.599 595.552 367.875 595.192 368.267C594.853 368.657 594.726 369.124 594.812 369.669C594.897 370.215 595.172 370.618 595.635 370.88C596.098 371.142 596.687 371.216 597.403 371.103C598.075 370.996 598.656 370.736 599.147 370.322C599.655 369.884 599.985 369.295 600.136 368.555L601.34 370.712C601.207 371.985 600.713 373.014 599.858 373.798C599.022 374.557 597.834 375.059 596.295 375.303Z" fill="white"/>
<path d="M615.86 371.949L613.247 354.186L619.141 353.308L619.903 358.486L618.807 357.142C619.132 355.732 619.832 354.611 620.908 353.781C621.98 352.929 623.352 352.379 625.024 352.13L625.848 357.734C625.56 357.732 625.307 357.747 625.09 357.78C624.891 357.787 624.673 357.809 624.434 357.844C623.175 358.032 622.206 358.533 621.527 359.349C620.845 360.143 620.618 361.315 620.847 362.866L622.047 371.027L615.86 371.949Z" fill="white"/>
<path d="M645.344 367.685L644.888 364.37L644.352 363.609L643.513 357.504C643.378 356.52 642.97 355.808 642.289 355.367C641.627 354.902 640.643 354.76 639.339 354.942C638.491 355.06 637.652 355.321 636.822 355.727C635.988 356.11 635.3 356.585 634.758 357.151L632.089 353.208C632.999 352.413 634.125 351.743 635.468 351.199C636.83 350.631 638.207 350.25 639.598 350.056C642.468 349.657 644.777 350.015 646.525 351.132C648.292 352.224 649.37 354.181 649.758 357.003L651.115 366.881L645.344 367.685ZM640.167 368.706C638.754 368.903 637.526 368.829 636.481 368.483C635.437 368.138 634.597 367.586 633.961 366.828C633.346 366.066 632.969 365.171 632.827 364.143C632.677 363.049 632.82 362.07 633.255 361.207C633.709 360.319 634.483 359.586 635.578 359.01C636.67 358.412 638.129 357.986 639.955 357.732L644.129 357.151L644.575 360.4L641.25 360.863C640.25 361.002 639.566 361.265 639.198 361.65C638.851 362.033 638.716 362.498 638.791 363.045C638.866 363.592 639.133 364.001 639.591 364.271C640.049 364.542 640.637 364.627 641.354 364.527C642.028 364.434 642.614 364.185 643.113 363.781C643.63 363.352 643.971 362.77 644.135 362.033L645.299 364.213C645.141 365.483 644.628 366.502 643.758 367.27C642.908 368.013 641.711 368.491 640.167 368.706Z" fill="white"/>
<path d="M673.922 363.876L671.206 340.846L676.534 340.21L687.861 354.737L685.05 355.073L692.421 338.312L697.749 337.675L700.531 360.697L694.581 361.407L692.874 347.499L693.888 347.378L688.364 359.848L685.488 360.192L677.02 349.393L678.263 349.245L679.904 363.161L673.922 363.876Z" fill="white"/>
<path d="M720.381 358.562L720.032 355.234L719.521 354.455L718.88 348.327C718.776 347.339 718.391 346.613 717.725 346.151C717.078 345.664 716.1 345.49 714.791 345.629C713.94 345.719 713.093 345.953 712.25 346.331C711.404 346.687 710.701 347.139 710.141 347.687L707.601 343.659C708.536 342.894 709.683 342.261 711.043 341.762C712.423 341.238 713.811 340.902 715.208 340.754C718.089 340.449 720.385 340.883 722.096 342.057C723.827 343.206 724.841 345.197 725.138 348.03L726.175 357.948L720.381 358.562ZM715.174 359.413C713.755 359.564 712.529 359.449 711.497 359.07C710.464 358.691 709.642 358.112 709.031 357.332C708.442 356.551 708.093 355.644 707.985 354.612C707.87 353.513 708.044 352.54 708.507 351.691C708.99 350.819 709.787 350.112 710.9 349.572C712.011 349.01 713.483 348.632 715.316 348.438L719.507 347.994L719.848 351.256L716.509 351.61C715.505 351.716 714.813 351.956 714.433 352.329C714.074 352.701 713.924 353.161 713.981 353.71C714.039 354.259 714.292 354.676 714.741 354.962C715.19 355.247 715.775 355.352 716.495 355.276C717.172 355.204 717.766 354.975 718.277 354.587C718.807 354.176 719.167 353.605 719.355 352.874L720.448 355.09C720.249 356.355 719.703 357.357 718.809 358.095C717.935 358.81 716.723 359.249 715.174 359.413Z" fill="white"/>
<path d="M744.751 337.8C746.128 337.67 747.4 337.838 748.567 338.305C749.733 338.749 750.687 339.524 751.429 340.63C752.193 341.733 752.661 343.209 752.834 345.056L753.787 355.281L747.56 355.869L746.702 346.667C746.583 345.391 746.235 344.492 745.657 343.97C745.099 343.424 744.361 343.194 743.444 343.281C742.788 343.343 742.202 343.553 741.684 343.913C741.165 344.25 740.781 344.741 740.532 345.386C740.284 346.031 740.206 346.848 740.298 347.837L741.104 356.479L734.877 357.067L732.594 332.592L738.821 332.004L739.91 343.681L738.33 342.333C738.886 340.972 739.724 339.916 740.845 339.167C741.963 338.396 743.265 337.94 744.751 337.8Z" fill="white"/>
<path d="M772.735 353.667L772.462 350.332L771.968 349.542L771.465 343.401C771.384 342.41 771.015 341.676 770.36 341.199C769.724 340.698 768.75 340.501 767.438 340.61C766.585 340.681 765.733 340.896 764.881 341.255C764.028 341.591 763.315 342.027 762.742 342.562L760.294 338.477C761.246 337.733 762.407 337.127 763.778 336.659C765.169 336.167 766.565 335.863 767.964 335.747C770.851 335.507 773.137 335.993 774.822 337.205C776.527 338.394 777.495 340.408 777.728 343.247L778.542 353.185L772.735 353.667ZM767.511 354.4C766.089 354.518 764.866 354.376 763.842 353.973C762.818 353.57 762.01 352.973 761.416 352.18C760.845 351.385 760.517 350.47 760.432 349.436C760.342 348.335 760.538 347.366 761.02 346.528C761.521 345.667 762.335 344.979 763.46 344.464C764.583 343.928 766.063 343.583 767.9 343.431L772.099 343.082L772.367 346.351L769.021 346.629C768.015 346.712 767.318 346.936 766.929 347.301C766.562 347.664 766.402 348.12 766.447 348.671C766.492 349.221 766.736 349.644 767.178 349.94C767.621 350.235 768.203 350.353 768.925 350.293C769.603 350.237 770.202 350.021 770.721 349.646C771.261 349.246 771.633 348.684 771.838 347.957L772.88 350.198C772.653 351.458 772.085 352.447 771.175 353.165C770.285 353.859 769.063 354.271 767.511 354.4Z" fill="white"/>
<path d="M793.755 352.34C792.245 352.45 790.755 352.381 789.285 352.133C787.837 351.884 786.656 351.527 785.743 351.061L787.306 346.63C788.174 347.076 789.178 347.413 790.316 347.64C791.453 347.846 792.558 347.91 793.63 347.832C794.681 347.755 795.395 347.593 795.774 347.344C796.174 347.093 796.36 346.781 796.333 346.406C796.308 346.054 796.093 345.815 795.688 345.689C795.303 345.54 794.79 345.444 794.149 345.402C793.53 345.359 792.844 345.309 792.092 345.253C791.34 345.197 790.575 345.108 789.796 344.988C789.038 344.843 788.328 344.607 787.666 344.279C787.025 343.927 786.494 343.434 786.075 342.8C785.656 342.166 785.409 341.342 785.337 340.329C785.255 339.183 785.51 338.146 786.104 337.217C786.718 336.265 787.652 335.488 788.907 334.888C790.161 334.266 791.718 333.887 793.578 333.752C794.826 333.661 796.094 333.702 797.383 333.874C798.691 334.023 799.802 334.319 800.714 334.762L799.148 339.16C798.236 338.717 797.336 338.439 796.448 338.327C795.558 338.192 794.719 338.153 793.931 338.21C792.88 338.287 792.145 338.462 791.724 338.736C791.326 339.008 791.139 339.321 791.164 339.673C791.19 340.026 791.396 340.288 791.782 340.459C792.167 340.608 792.669 340.716 793.29 340.781C793.931 340.823 794.628 340.872 795.38 340.929C796.13 340.963 796.885 341.052 797.643 341.196C798.424 341.339 799.134 341.586 799.776 341.938C800.437 342.267 800.978 342.748 801.397 343.382C801.815 343.993 802.06 344.806 802.133 345.819C802.212 346.921 801.944 347.937 801.328 348.867C800.735 349.796 799.8 350.573 798.525 351.197C797.271 351.819 795.682 352.2 793.755 352.34Z" fill="white"/>
<path d="M809.401 350.953L808.259 333.033L814.501 332.63L815.642 350.55L809.401 350.953ZM811.253 330.848C810.115 330.922 809.174 330.661 808.433 330.067C807.691 329.473 807.29 328.703 807.23 327.755C807.17 326.807 807.469 325.991 808.129 325.307C808.79 324.622 809.689 324.243 810.828 324.17C811.967 324.096 812.906 324.345 813.646 324.917C814.385 325.467 814.785 326.216 814.845 327.164C814.908 328.156 814.61 329.005 813.952 329.711C813.314 330.394 812.414 330.773 811.253 330.848Z" fill="white"/>
<path d="M830.645 349.95C829.133 350.036 827.644 349.943 826.179 349.672C824.735 349.399 823.56 349.023 822.654 348.544L824.287 344.138C825.148 344.598 826.146 344.951 827.281 345.196C828.414 345.42 829.518 345.501 830.591 345.441C831.643 345.381 832.36 345.23 832.742 344.987C833.146 344.743 833.338 344.434 833.317 344.059C833.297 343.706 833.086 343.464 832.683 343.332C832.3 343.176 831.789 343.072 831.149 343.02C830.53 342.967 829.845 342.906 829.094 342.837C828.343 342.769 827.579 342.669 826.803 342.536C826.047 342.379 825.34 342.132 824.684 341.793C824.048 341.43 823.526 340.929 823.117 340.288C822.707 339.648 822.474 338.82 822.418 337.806C822.354 336.659 822.626 335.626 823.234 334.707C823.863 333.765 824.809 333.003 826.074 332.423C827.337 331.821 828.9 331.467 830.762 331.362C832.011 331.291 833.278 331.352 834.564 331.545C835.87 331.715 836.976 332.028 837.88 332.486L836.245 336.859C835.34 336.401 834.445 336.109 833.559 335.982C832.671 335.833 831.833 335.781 831.044 335.825C829.992 335.885 829.254 336.048 828.83 336.316C828.427 336.582 828.235 336.891 828.255 337.244C828.275 337.597 828.476 337.862 828.86 338.039C829.242 338.195 829.743 338.31 830.363 338.386C831.003 338.438 831.699 338.498 832.45 338.567C833.2 338.613 833.953 338.714 834.709 338.87C835.487 339.025 836.194 339.284 836.829 339.646C837.485 339.985 838.018 340.475 838.428 341.116C838.836 341.734 839.068 342.551 839.125 343.565C839.186 344.668 838.902 345.679 838.272 346.6C837.664 347.519 836.717 348.28 835.432 348.884C834.169 349.486 832.573 349.841 830.645 349.95Z" fill="white"/>
<path d="M850.533 348.589L843.41 330.928L849.33 330.668L855.01 345.441L852.182 345.565L856.762 330.342L862.09 330.109L867.77 344.882L865.007 345.003L869.555 329.782L875.047 329.541L869.476 347.759L863.425 348.024L858.612 335.799L860.454 335.719L856.584 348.324L850.533 348.589Z" fill="white"/>
<path d="M893.31 346.95L893.209 343.605L892.756 342.79L892.571 336.631C892.541 335.637 892.211 334.885 891.581 334.374C890.972 333.84 890.01 333.593 888.694 333.633C887.838 333.659 886.976 333.829 886.107 334.143C885.238 334.435 884.503 334.833 883.904 335.337L881.67 331.129C882.659 330.436 883.85 329.892 885.243 329.496C886.658 329.077 888.067 328.846 889.471 328.804C892.366 328.715 894.624 329.321 896.244 330.619C897.885 331.895 898.748 333.957 898.834 336.805L899.133 346.772L893.31 346.95ZM888.054 347.408C886.628 347.451 885.415 347.245 884.413 346.79C883.411 346.334 882.635 345.695 882.083 344.872C881.553 344.048 881.273 343.118 881.241 342.08C881.208 340.976 881.454 340.019 881.978 339.207C882.524 338.373 883.372 337.729 884.522 337.274C885.671 336.797 887.167 336.53 889.01 336.474L893.221 336.346L893.32 339.624L889.964 339.726C888.955 339.757 888.247 339.944 887.84 340.288C887.455 340.631 887.271 341.079 887.288 341.631C887.304 342.183 887.526 342.618 887.953 342.936C888.379 343.255 888.955 343.403 889.678 343.381C890.358 343.36 890.968 343.176 891.506 342.828C892.066 342.458 892.467 341.915 892.709 341.201L893.634 343.493C893.342 344.739 892.723 345.697 891.777 346.367C890.852 347.013 889.612 347.361 888.054 347.408Z" fill="white"/>
<path d="M907.309 351.78L909.591 343.114L910.557 346.672C909.46 346.696 908.553 346.396 907.837 345.771C907.121 345.124 906.751 344.248 906.727 343.144C906.702 341.996 907.033 341.083 907.721 340.405C908.431 339.727 909.323 339.376 910.398 339.352C911.473 339.329 912.369 339.651 913.086 340.321C913.803 340.968 914.173 341.854 914.197 342.98C914.204 343.29 914.189 343.599 914.152 343.909C914.114 344.219 914.024 344.597 913.88 345.042C913.736 345.487 913.507 346.077 913.194 346.813L911.225 351.694L907.309 351.78Z" fill="white"/>
<path d="M936.094 346.045L935.98 322.854L941.346 322.827L950.97 338.549L948.139 338.564L957.344 322.748L962.709 322.721L962.889 345.911L956.898 345.941L956.763 331.928L957.784 331.923L950.896 343.685L947.999 343.7L940.798 332.007L942.049 332.001L942.118 346.015L936.094 346.045Z" fill="white"/>
<path d="M982.852 346.047L982.88 342.701L982.458 341.869L982.509 335.707C982.518 334.713 982.217 333.949 981.607 333.414C981.019 332.856 980.066 332.572 978.75 332.561C977.894 332.554 977.026 332.69 976.146 332.97C975.266 333.228 974.517 333.597 973.898 334.078L971.827 329.787C972.842 329.133 974.053 328.635 975.46 328.293C976.89 327.93 978.307 327.754 979.711 327.765C982.608 327.79 984.84 328.482 986.409 329.842C988 331.181 988.784 333.275 988.761 336.124L988.678 346.096L982.852 346.047ZM977.583 346.301C976.156 346.289 974.951 346.036 973.968 345.542C972.984 345.048 972.233 344.379 971.713 343.535C971.215 342.692 970.971 341.751 970.979 340.713C970.988 339.609 971.271 338.661 971.826 337.871C972.403 337.058 973.275 336.447 974.441 336.037C975.608 335.605 977.113 335.397 978.957 335.412L983.17 335.448L983.143 338.727L979.785 338.699C978.776 338.691 978.061 338.851 977.642 339.178C977.244 339.506 977.043 339.946 977.038 340.499C977.034 341.051 977.238 341.494 977.653 341.829C978.067 342.164 978.636 342.334 979.36 342.34C980.04 342.346 980.656 342.185 981.208 341.859C981.781 341.51 982.202 340.983 982.472 340.279L983.308 342.605C982.969 343.839 982.314 344.772 981.343 345.405C980.394 346.015 979.141 346.314 977.583 346.301Z" fill="white"/>
<path d="M1003.91 346.638C1002.39 346.61 1000.91 346.406 999.472 346.025C998.052 345.645 996.908 345.182 996.04 344.636L997.996 340.365C998.82 340.888 999.789 341.315 1000.9 341.645C1002.02 341.953 1003.11 342.117 1004.19 342.137C1005.24 342.157 1005.96 342.06 1006.36 341.847C1006.78 341.634 1007 341.339 1007.01 340.964C1007.01 340.611 1006.82 340.353 1006.43 340.191C1006.06 340.007 1005.56 339.865 1004.92 339.765C1004.31 339.665 1003.63 339.553 1002.89 339.429C1002.14 339.305 1001.39 339.147 1000.62 338.956C999.88 338.743 999.195 338.443 998.565 338.056C997.958 337.647 997.474 337.108 997.114 336.438C996.753 335.769 996.582 334.926 996.601 333.91C996.622 332.762 996.97 331.752 997.644 330.881C998.341 329.989 999.341 329.3 1000.65 328.817C1001.95 328.311 1003.53 328.076 1005.4 328.11C1006.65 328.134 1007.91 328.29 1009.18 328.579C1010.47 328.846 1011.55 329.241 1012.41 329.766L1010.46 334.004C1009.59 333.479 1008.72 333.121 1007.85 332.928C1006.97 332.713 1006.14 332.598 1005.35 332.583C1004.3 332.563 1003.55 332.671 1003.1 332.905C1002.68 333.14 1002.47 333.435 1002.46 333.788C1002.46 334.141 1002.64 334.421 1003.01 334.627C1003.38 334.81 1003.87 334.963 1004.48 335.085C1005.12 335.185 1005.8 335.297 1006.55 335.422C1007.29 335.524 1008.04 335.682 1008.78 335.894C1009.54 336.107 1010.23 336.418 1010.84 336.827C1011.46 337.215 1011.96 337.743 1012.32 338.412C1012.68 339.06 1012.85 339.891 1012.83 340.907C1012.81 342.011 1012.46 342.999 1011.76 343.869C1011.08 344.74 1010.08 345.429 1008.76 345.934C1007.45 346.44 1005.84 346.675 1003.91 346.638Z" fill="white"/>
<path d="M1030.49 346.983L1030.59 343.638L1030.19 342.798L1030.36 336.638C1030.39 335.645 1030.11 334.874 1029.51 334.327C1028.93 333.758 1027.98 333.454 1026.67 333.416C1025.81 333.391 1024.94 333.509 1024.06 333.771C1023.17 334.01 1022.41 334.364 1021.79 334.832L1019.8 330.499C1020.83 329.866 1022.05 329.393 1023.47 329.08C1024.9 328.746 1026.32 328.6 1027.73 328.641C1030.62 328.725 1032.84 329.463 1034.38 330.855C1035.94 332.227 1036.69 334.336 1036.6 337.184L1036.32 347.152L1030.49 346.983ZM1025.22 347.128C1023.79 347.087 1022.6 346.809 1021.62 346.295C1020.65 345.78 1019.91 345.096 1019.41 344.242C1018.93 343.388 1018.7 342.443 1018.73 341.405C1018.76 340.301 1019.07 339.36 1019.64 338.581C1020.23 337.781 1021.11 337.188 1022.29 336.802C1023.46 336.394 1024.97 336.217 1026.82 336.27L1031.03 336.393L1030.93 339.671L1027.58 339.574C1026.57 339.544 1025.85 339.689 1025.42 340.008C1025.02 340.328 1024.81 340.764 1024.79 341.316C1024.78 341.868 1024.97 342.315 1025.38 342.659C1025.79 343.002 1026.35 343.184 1027.08 343.205C1027.76 343.225 1028.38 343.077 1028.94 342.762C1029.52 342.425 1029.95 341.907 1030.23 341.208L1031.02 343.551C1030.66 344.778 1029.98 345.698 1029 346.31C1028.04 346.901 1026.78 347.173 1025.22 347.128Z" fill="white"/>
<path d="M1059.31 347.999L1060.39 324.833L1071.28 325.351C1073.82 325.472 1076.04 326.053 1077.92 327.093C1079.8 328.134 1081.24 329.54 1082.24 331.312C1083.25 333.085 1083.7 335.163 1083.59 337.545C1083.48 339.906 1082.84 341.932 1081.66 343.622C1080.5 345.292 1078.94 346.556 1076.97 347.412C1074.99 348.269 1072.73 348.637 1070.19 348.516L1059.31 347.999ZM1066.06 343.08L1070.17 343.275C1071.49 343.338 1072.64 343.149 1073.63 342.71C1074.64 342.249 1075.44 341.558 1076.03 340.635C1076.62 339.69 1076.95 338.556 1077.02 337.233C1077.08 335.887 1076.86 334.726 1076.35 333.752C1075.85 332.777 1075.12 332.023 1074.15 331.491C1073.21 330.938 1072.09 330.63 1070.77 330.567L1066.66 330.372L1066.06 343.08Z" fill="white"/>
<path d="M1100.33 350.436C1098.23 350.31 1096.41 349.803 1094.88 348.914C1093.38 348.005 1092.23 346.829 1091.43 345.388C1090.66 343.926 1090.33 342.301 1090.44 340.516C1090.54 338.73 1091.05 337.167 1091.97 335.828C1092.9 334.469 1094.14 333.448 1095.68 332.766C1097.21 332.061 1098.91 331.765 1100.77 331.877C1102.53 331.982 1104.1 332.442 1105.51 333.256C1106.91 334.049 1108 335.165 1108.77 336.605C1109.54 338.046 1109.87 339.758 1109.75 341.742C1109.74 341.963 1109.71 342.216 1109.67 342.501C1109.64 342.786 1109.6 343.049 1109.56 343.291L1095.47 342.444L1095.66 339.137L1106.44 339.784L1104.02 340.568C1104.09 339.754 1103.98 339.039 1103.68 338.424C1103.41 337.81 1103 337.321 1102.45 336.956C1101.92 336.592 1101.29 336.388 1100.54 336.344C1099.8 336.299 1099.13 336.425 1098.54 336.721C1097.97 337.019 1097.52 337.467 1097.18 338.066C1096.83 338.643 1096.64 339.339 1096.59 340.155L1096.53 341.114C1096.48 341.996 1096.61 342.767 1096.92 343.428C1097.26 344.089 1097.75 344.617 1098.41 345.011C1099.07 345.382 1099.87 345.596 1100.82 345.653C1101.69 345.705 1102.44 345.629 1103.07 345.423C1103.72 345.197 1104.37 344.837 1105.01 344.345L1108.1 347.982C1107.19 348.879 1106.09 349.543 1104.81 349.975C1103.54 350.385 1102.04 350.539 1100.33 350.436Z" fill="white"/>
<path d="M1127.61 352.245C1126.1 352.137 1124.84 351.714 1123.81 350.976C1122.79 350.216 1122.04 349.144 1121.56 347.76C1121.11 346.355 1120.96 344.595 1121.11 342.48C1121.26 340.343 1121.65 338.621 1122.27 337.315C1122.89 335.986 1123.75 335.029 1124.85 334.443C1125.96 333.859 1127.32 333.624 1128.92 333.738C1130.54 333.854 1131.98 334.345 1133.24 335.21C1134.52 336.054 1135.5 337.198 1136.17 338.641C1136.86 340.063 1137.14 341.721 1137 343.616C1136.87 345.511 1136.36 347.124 1135.47 348.455C1134.61 349.789 1133.48 350.782 1132.09 351.436C1130.73 352.091 1129.23 352.36 1127.61 352.245ZM1115.99 357.558L1117.7 333.235L1123.65 333.66L1123.43 336.7L1122.98 342.613L1122.89 348.585L1122.23 358.004L1115.99 357.558ZM1126.65 347.161C1127.35 347.211 1127.99 347.09 1128.56 346.799C1129.15 346.509 1129.64 346.056 1130.01 345.441C1130.4 344.827 1130.63 344.069 1130.7 343.165C1130.76 342.262 1130.64 341.478 1130.34 340.814C1130.05 340.152 1129.64 339.635 1129.09 339.264C1128.57 338.894 1127.96 338.685 1127.26 338.635C1126.56 338.584 1125.91 338.704 1125.32 338.994C1124.75 339.285 1124.26 339.738 1123.87 340.352C1123.49 340.967 1123.28 341.727 1123.21 342.63C1123.15 343.533 1123.26 344.316 1123.54 344.978C1123.85 345.642 1124.26 346.159 1124.78 346.529C1125.33 346.9 1125.95 347.111 1126.65 347.161Z" fill="white"/>
<path d="M1154.34 354.032L1154.61 350.697L1154.25 349.836L1154.76 343.695C1154.84 342.704 1154.59 341.92 1154.03 341.341C1153.48 340.741 1152.55 340.387 1151.24 340.278C1150.39 340.208 1149.51 340.279 1148.61 340.492C1147.72 340.684 1146.94 340.997 1146.29 341.43L1144.54 336.996C1145.6 336.42 1146.84 336.013 1148.27 335.777C1149.72 335.521 1151.15 335.451 1152.55 335.567C1155.44 335.806 1157.61 336.663 1159.08 338.136C1160.57 339.589 1161.19 341.736 1160.96 344.575L1160.15 354.514L1154.34 354.032ZM1149.07 353.894C1147.64 353.776 1146.46 353.434 1145.52 352.868C1144.57 352.302 1143.87 351.579 1143.42 350.699C1142.98 349.821 1142.81 348.864 1142.89 347.83C1142.98 346.729 1143.33 345.805 1143.94 345.058C1144.58 344.291 1145.49 343.746 1146.69 343.424C1147.88 343.08 1149.4 342.984 1151.24 343.137L1155.43 343.485L1155.17 346.754L1151.82 346.476C1150.81 346.393 1150.09 346.499 1149.65 346.795C1149.23 347.092 1148.99 347.516 1148.95 348.066C1148.9 348.617 1149.08 349.074 1149.46 349.439C1149.85 349.804 1150.41 350.016 1151.13 350.076C1151.81 350.132 1152.43 350.018 1153.01 349.733C1153.61 349.428 1154.06 348.934 1154.38 348.251L1155.05 350.634C1154.62 351.839 1153.9 352.721 1152.88 353.279C1151.89 353.818 1150.62 354.022 1149.07 353.894Z" fill="white"/>
<path d="M1182.12 338.196C1183.5 338.326 1184.72 338.73 1185.78 339.407C1186.84 340.062 1187.64 341.002 1188.16 342.227C1188.71 343.455 1188.9 344.992 1188.72 346.839L1187.77 357.064L1181.54 356.476L1182.4 347.273C1182.52 345.998 1182.34 345.05 1181.87 344.428C1181.43 343.787 1180.74 343.423 1179.83 343.336C1179.17 343.275 1178.55 343.372 1177.98 343.628C1177.41 343.862 1176.94 344.273 1176.58 344.86C1176.21 345.447 1175.98 346.235 1175.89 347.224L1175.09 355.866L1168.86 355.278L1170.53 337.4L1176.46 337.961L1175.98 343.04L1174.98 341.448C1175.77 340.214 1176.79 339.334 1178.03 338.808C1179.27 338.26 1180.64 338.056 1182.12 338.196Z" fill="white"/>
<path d="M1216.39 354.915L1216.85 347.566L1227.88 338.044L1235.01 338.85L1224 348.441L1219.98 351.821L1216.39 354.915ZM1210.03 359.364L1212.6 336.318L1219.01 337.042L1216.44 360.089L1210.03 359.364ZM1225.41 361.101L1219.01 350.744L1223.74 346.677L1232.93 361.951L1225.41 361.101Z" fill="white"/>
<path d="M1249.94 364.065L1250.35 360.744L1250.03 359.869L1250.78 353.754C1250.9 352.768 1250.69 351.973 1250.15 351.371C1249.63 350.749 1248.71 350.357 1247.41 350.194C1246.56 350.087 1245.68 350.122 1244.77 350.298C1243.87 350.452 1243.08 350.732 1242.41 351.138L1240.85 346.636C1241.93 346.103 1243.19 345.749 1244.63 345.573C1246.09 345.377 1247.52 345.366 1248.91 345.541C1251.78 345.9 1253.92 346.847 1255.33 348.38C1256.75 349.894 1257.29 352.064 1256.94 354.892L1255.72 364.788L1249.94 364.065ZM1244.68 363.707C1243.26 363.53 1242.09 363.139 1241.17 362.534C1240.25 361.929 1239.58 361.178 1239.16 360.28C1238.76 359.384 1238.63 358.421 1238.76 357.391C1238.89 356.295 1239.28 355.387 1239.92 354.666C1240.59 353.926 1241.52 353.419 1242.73 353.147C1243.94 352.853 1245.46 352.821 1247.29 353.05L1251.47 353.573L1251.07 356.827L1247.73 356.411C1246.73 356.285 1246 356.361 1245.55 356.638C1245.12 356.918 1244.87 357.332 1244.8 357.88C1244.73 358.428 1244.88 358.892 1245.26 359.272C1245.63 359.653 1246.18 359.888 1246.9 359.978C1247.57 360.063 1248.2 359.974 1248.79 359.714C1249.39 359.434 1249.87 358.96 1250.22 358.291L1250.79 360.699C1250.31 361.885 1249.55 362.736 1248.51 363.252C1247.5 363.749 1246.22 363.9 1244.68 363.707Z" fill="white"/>
<path d="M1289.9 351.005C1291.27 351.195 1292.44 351.649 1293.43 352.366C1294.44 353.065 1295.17 354.036 1295.62 355.28C1296.09 356.527 1296.2 358.07 1295.95 359.908L1294.55 370.081L1288.36 369.219L1289.61 360.063C1289.79 358.794 1289.68 357.842 1289.28 357.206C1288.88 356.549 1288.27 356.163 1287.44 356.048C1286.85 355.966 1286.3 356.034 1285.79 356.252C1285.27 356.47 1284.84 356.856 1284.5 357.41C1284.16 357.943 1283.92 358.669 1283.8 359.587L1282.58 368.415L1276.39 367.553L1277.65 358.397C1277.82 357.128 1277.71 356.176 1277.31 355.54C1276.93 354.886 1276.32 354.5 1275.47 354.382C1274.87 354.297 1274.3 354.364 1273.79 354.582C1273.29 354.802 1272.86 355.189 1272.5 355.74C1272.16 356.272 1271.92 356.998 1271.8 357.917L1270.59 366.745L1264.39 365.883L1266.83 348.095L1272.74 348.917L1272.06 353.872L1271.08 352.298C1271.9 351.12 1272.92 350.292 1274.14 349.815C1275.36 349.316 1276.67 349.163 1278.06 349.357C1279.65 349.578 1280.98 350.187 1282.06 351.185C1283.17 352.164 1283.81 353.546 1283.98 355.332L1282.02 354.624C1282.85 353.268 1283.95 352.273 1285.32 351.639C1286.72 350.986 1288.24 350.775 1289.9 351.005Z" fill="white"/>
<path d="M1313.69 373.307C1312.19 373.077 1310.96 372.552 1310 371.734C1309.04 370.894 1308.38 369.764 1308.01 368.346C1307.68 366.909 1307.67 365.142 1307.99 363.046C1308.31 360.928 1308.83 359.244 1309.55 357.992C1310.28 356.718 1311.21 355.834 1312.35 355.339C1313.51 354.847 1314.89 354.723 1316.47 354.967C1318.08 355.214 1319.47 355.819 1320.66 356.783C1321.87 357.729 1322.75 358.948 1323.3 360.441C1323.88 361.914 1324.02 363.59 1323.74 365.468C1323.45 367.345 1322.81 368.912 1321.82 370.167C1320.86 371.426 1319.65 372.325 1318.22 372.864C1316.8 373.406 1315.29 373.554 1313.69 373.307ZM1301.67 377.66L1305.33 353.556L1311.22 354.461L1310.76 357.474L1309.84 363.331L1309.27 369.276L1307.85 378.61L1301.67 377.66ZM1313.14 368.161C1313.83 368.268 1314.47 368.199 1315.07 367.955C1315.68 367.715 1316.2 367.303 1316.62 366.72C1317.06 366.14 1317.35 365.402 1317.49 364.507C1317.62 363.612 1317.57 362.821 1317.31 362.134C1317.09 361.451 1316.71 360.903 1316.2 360.488C1315.71 360.077 1315.11 359.819 1314.42 359.712C1313.72 359.605 1313.07 359.672 1312.46 359.913C1311.87 360.157 1311.35 360.569 1310.9 361.149C1310.48 361.732 1310.2 362.471 1310.07 363.366C1309.93 364.262 1309.98 365.051 1310.21 365.734C1310.46 366.42 1310.83 366.969 1311.32 367.38C1311.84 367.794 1312.44 368.055 1313.14 368.161Z" fill="white"/>
<path d="M1336.79 376.996C1335.36 376.759 1334.12 376.262 1333.06 375.505C1332.03 374.752 1331.28 373.722 1330.83 372.415C1330.4 371.091 1330.34 369.503 1330.64 367.65L1332.27 357.745L1338.44 358.768L1336.98 367.66C1336.76 369.033 1336.84 370.055 1337.25 370.726C1337.67 371.4 1338.35 371.815 1339.28 371.969C1339.88 372.07 1340.46 372.02 1341 371.819C1341.55 371.618 1342.02 371.238 1342.43 370.678C1342.83 370.096 1343.12 369.315 1343.28 368.334L1344.67 359.802L1350.84 360.825L1347.94 378.543L1342.07 377.568L1342.88 372.567L1343.79 374.161C1342.97 375.368 1341.93 376.203 1340.68 376.667C1339.43 377.109 1338.13 377.218 1336.79 376.996Z" fill="white"/>
<path d="M1362.51 381.388C1361.02 381.124 1359.59 380.692 1358.23 380.092C1356.88 379.496 1355.82 378.86 1355.05 378.185L1357.64 374.27C1358.37 374.915 1359.26 375.488 1360.31 375.987C1361.37 376.465 1362.42 376.797 1363.48 376.985C1364.52 377.168 1365.25 377.185 1365.68 377.037C1366.13 376.892 1366.38 376.634 1366.45 376.264C1366.51 375.916 1366.36 375.632 1366 375.411C1365.66 375.172 1365.18 374.953 1364.57 374.756C1363.98 374.562 1363.33 374.345 1362.61 374.107C1361.9 373.868 1361.18 373.595 1360.45 373.287C1359.75 372.961 1359.12 372.558 1358.56 372.077C1358.02 371.579 1357.62 370.971 1357.37 370.253C1357.12 369.536 1357.08 368.677 1357.25 367.676C1357.45 366.545 1357.95 365.601 1358.75 364.846C1359.57 364.072 1360.67 363.548 1362.03 363.273C1363.4 362.977 1365 362.991 1366.84 363.316C1368.07 363.533 1369.29 363.884 1370.5 364.366C1371.73 364.831 1372.74 365.39 1373.51 366.043L1370.93 369.926C1370.15 369.273 1369.35 368.783 1368.51 368.456C1367.68 368.107 1366.88 367.864 1366.1 367.726C1365.06 367.543 1364.31 367.533 1363.83 367.696C1363.38 367.862 1363.12 368.12 1363.06 368.468C1363 368.816 1363.14 369.12 1363.47 369.381C1363.81 369.62 1364.27 369.847 1364.86 370.063C1365.47 370.261 1366.13 370.479 1366.85 370.718C1367.57 370.935 1368.28 371.206 1368.98 371.532C1369.7 371.861 1370.33 372.275 1370.87 372.774C1371.43 373.254 1371.84 373.854 1372.09 374.571C1372.35 375.267 1372.39 376.115 1372.22 377.116C1372.03 378.204 1371.52 379.123 1370.7 379.875C1369.9 380.63 1368.8 381.155 1367.42 381.447C1366.05 381.744 1364.41 381.724 1362.51 381.388Z" fill="white"/>
<path d="M1380.56 384.648C1379.52 384.457 1378.71 383.947 1378.13 383.12C1377.54 382.294 1377.35 381.348 1377.54 380.284C1377.74 379.176 1378.26 378.362 1379.09 377.842C1379.93 377.3 1380.86 377.125 1381.9 377.316C1382.93 377.508 1383.75 378.006 1384.34 378.811C1384.93 379.595 1385.13 380.54 1384.92 381.648C1384.73 382.713 1384.21 383.527 1383.37 384.09C1382.53 384.654 1381.6 384.84 1380.56 384.648Z" fill="white"/>
<defs>
<linearGradient id="paint0_linear_477_6203" x1="-62.0001" y1="-175.638" x2="2111.57" y2="155.707" gradientUnits="userSpaceOnUse">
<stop stop-color="#F88312"/>
<stop offset="0.448093" stop-color="#FB43FF"/>
<stop offset="1" stop-color="#4000C9"/>
<stop offset="1" stop-color="#4000C9"/>
</linearGradient>
<linearGradient id="paint1_linear_477_6203" x1="-62.0001" y1="-175.638" x2="2111.57" y2="155.707" gradientUnits="userSpaceOnUse">
<stop stop-color="#F88312"/>
<stop offset="0.448093" stop-color="#FB43FF"/>
<stop offset="1" stop-color="#4000C9"/>
<stop offset="1" stop-color="#4000C9"/>
</linearGradient>
</defs>
</svg>
