<svg width="1224" height="251" viewBox="0 0 1224 251" fill="none" xmlns="http://www.w3.org/2000/svg">
<path d="M160.904 29.8519C162.894 27.0082 167.106 27.0082 169.096 29.8519L183.991 51.1305C185.105 52.7229 187.042 53.525 188.956 53.1871L214.534 48.6729C217.952 48.0697 220.93 51.0476 220.327 54.4658L215.813 80.0441C215.475 81.9582 216.277 83.8947 217.87 85.0093L239.148 99.9038C241.992 101.894 241.992 106.106 239.148 108.096L217.87 122.991C216.277 124.105 215.475 126.042 215.813 127.956L220.327 153.534C220.93 156.952 217.952 159.93 214.534 159.327L188.956 154.813C187.042 154.475 185.105 155.277 183.991 156.87L169.096 178.148C167.106 180.992 162.894 180.992 160.904 178.148L146.009 156.87C144.895 155.277 142.958 154.475 141.044 154.813L115.466 159.327C112.048 159.93 109.07 156.952 109.673 153.534L114.187 127.956C114.525 126.042 113.723 124.105 112.13 122.991L90.8519 108.096C88.0082 106.106 88.0082 101.894 90.8519 99.9038L112.13 85.0093C113.723 83.8947 114.525 81.9582 114.187 80.0441L109.673 54.4658C109.07 51.0476 112.048 48.0697 115.466 48.6729L141.044 53.1871C142.958 53.525 144.895 52.7229 146.009 51.1305L160.904 29.8519Z" fill="#F88312"/>
<path d="M150.887 97V94.912L157.559 88.576C158.119 88.048 158.535 87.584 158.807 87.184C159.079 86.784 159.255 86.416 159.335 86.08C159.431 85.728 159.479 85.4 159.479 85.096C159.479 84.328 159.215 83.736 158.687 83.32C158.159 82.888 157.383 82.672 156.359 82.672C155.543 82.672 154.799 82.816 154.127 83.104C153.471 83.392 152.903 83.832 152.423 84.424L150.239 82.744C150.895 81.864 151.775 81.184 152.879 80.704C153.999 80.208 155.247 79.96 156.623 79.96C157.839 79.96 158.895 80.16 159.791 80.56C160.703 80.944 161.399 81.496 161.879 82.216C162.375 82.936 162.623 83.792 162.623 84.784C162.623 85.328 162.551 85.872 162.407 86.416C162.263 86.944 161.991 87.504 161.591 88.096C161.191 88.688 160.607 89.352 159.839 90.088L154.103 95.536L153.455 94.36H163.271V97H150.887ZM164.48 93.184V91.024L172.76 80.2H176.096L167.936 91.024L166.376 90.544H179.696V93.184H164.48ZM173.696 97V93.184L173.792 90.544V87.16H176.72V97H173.696ZM140.584 127V110.2H147.928C149.752 110.2 151.352 110.552 152.728 111.256C154.104 111.96 155.176 112.936 155.944 114.184C156.712 115.432 157.096 116.904 157.096 118.6C157.096 120.28 156.712 121.752 155.944 123.016C155.176 124.264 154.104 125.24 152.728 125.944C151.352 126.648 149.752 127 147.928 127H140.584ZM143.704 124.36H147.784C149.048 124.36 150.136 124.12 151.048 123.64C151.976 123.16 152.688 122.488 153.184 121.624C153.696 120.76 153.952 119.752 153.952 118.6C153.952 117.432 153.696 116.424 153.184 115.576C152.688 114.712 151.976 114.04 151.048 113.56C150.136 113.08 149.048 112.84 147.784 112.84H143.704V124.36ZM163.292 117.184H171.644V119.752H163.292V117.184ZM163.532 124.384H173.012V127H160.412V110.2H172.676V112.816H163.532V124.384ZM184.266 127.24C182.986 127.24 181.794 127.032 180.69 126.616C179.602 126.184 178.65 125.584 177.834 124.816C177.034 124.032 176.41 123.112 175.962 122.056C175.514 121 175.29 119.848 175.29 118.6C175.29 117.352 175.514 116.2 175.962 115.144C176.41 114.088 177.042 113.176 177.858 112.408C178.674 111.624 179.626 111.024 180.714 110.608C181.802 110.176 182.994 109.96 184.29 109.96C185.666 109.96 186.922 110.2 188.058 110.68C189.194 111.144 190.154 111.84 190.938 112.768L188.922 114.664C188.314 114.008 187.634 113.52 186.882 113.2C186.13 112.864 185.314 112.696 184.434 112.696C183.554 112.696 182.746 112.84 182.01 113.128C181.29 113.416 180.658 113.824 180.114 114.352C179.586 114.88 179.17 115.504 178.866 116.224C178.578 116.944 178.434 117.736 178.434 118.6C178.434 119.464 178.578 120.256 178.866 120.976C179.17 121.696 179.586 122.32 180.114 122.848C180.658 123.376 181.29 123.784 182.01 124.072C182.746 124.36 183.554 124.504 184.434 124.504C185.314 124.504 186.13 124.344 186.882 124.024C187.634 123.688 188.314 123.184 188.922 122.512L190.938 124.432C190.154 125.344 189.194 126.04 188.058 126.52C186.922 127 185.658 127.24 184.266 127.24Z" fill="white"/>
<path d="M118.542 211.126C118.542 212.17 118.182 213.04 117.462 213.736C116.754 214.42 115.668 214.762 114.204 214.762H111.792V220H110.154V207.454H114.204C115.62 207.454 116.694 207.796 117.426 208.48C118.17 209.164 118.542 210.046 118.542 211.126ZM114.204 213.412C115.116 213.412 115.788 213.214 116.22 212.818C116.652 212.422 116.868 211.858 116.868 211.126C116.868 209.578 115.98 208.804 114.204 208.804H111.792V213.412H114.204ZM129.577 214.69C129.577 215.002 129.559 215.332 129.523 215.68H121.639C121.699 216.652 122.029 217.414 122.629 217.966C123.241 218.506 123.979 218.776 124.843 218.776C125.551 218.776 126.139 218.614 126.607 218.29C127.087 217.954 127.423 217.51 127.615 216.958H129.379C129.115 217.906 128.587 218.68 127.795 219.28C127.003 219.868 126.019 220.162 124.843 220.162C123.907 220.162 123.067 219.952 122.323 219.532C121.591 219.112 121.015 218.518 120.595 217.75C120.175 216.97 119.965 216.07 119.965 215.05C119.965 214.03 120.169 213.136 120.577 212.368C120.985 211.6 121.555 211.012 122.287 210.604C123.031 210.184 123.883 209.974 124.843 209.974C125.779 209.974 126.607 210.178 127.327 210.586C128.047 210.994 128.599 211.558 128.983 212.278C129.379 212.986 129.577 213.79 129.577 214.69ZM127.885 214.348C127.885 213.724 127.747 213.19 127.471 212.746C127.195 212.29 126.817 211.948 126.337 211.72C125.869 211.48 125.347 211.36 124.771 211.36C123.943 211.36 123.235 211.624 122.647 212.152C122.071 212.68 121.741 213.412 121.657 214.348H127.885ZM136.546 209.956C137.746 209.956 138.718 210.322 139.462 211.054C140.206 211.774 140.578 212.818 140.578 214.186V220H138.958V214.42C138.958 213.436 138.712 212.686 138.22 212.17C137.728 211.642 137.056 211.378 136.204 211.378C135.34 211.378 134.65 211.648 134.134 212.188C133.63 212.728 133.378 213.514 133.378 214.546V220H131.74V210.136H133.378V211.54C133.702 211.036 134.14 210.646 134.692 210.37C135.256 210.094 135.874 209.956 136.546 209.956ZM142.641 215.032C142.641 214.024 142.845 213.142 143.253 212.386C143.661 211.618 144.219 211.024 144.927 210.604C145.647 210.184 146.451 209.974 147.339 209.974C148.107 209.974 148.821 210.154 149.481 210.514C150.141 210.862 150.645 211.324 150.993 211.9V206.68H152.649V220H150.993V218.146C150.669 218.734 150.189 219.22 149.553 219.604C148.917 219.976 148.173 220.162 147.321 220.162C146.445 220.162 145.647 219.946 144.927 219.514C144.219 219.082 143.661 218.476 143.253 217.696C142.845 216.916 142.641 216.028 142.641 215.032ZM150.993 215.05C150.993 214.306 150.843 213.658 150.543 213.106C150.243 212.554 149.835 212.134 149.319 211.846C148.815 211.546 148.257 211.396 147.645 211.396C147.033 211.396 146.475 211.54 145.971 211.828C145.467 212.116 145.065 212.536 144.765 213.088C144.465 213.64 144.315 214.288 144.315 215.032C144.315 215.788 144.465 216.448 144.765 217.012C145.065 217.564 145.467 217.99 145.971 218.29C146.475 218.578 147.033 218.722 147.645 218.722C148.257 218.722 148.815 218.578 149.319 218.29C149.835 217.99 150.243 217.564 150.543 217.012C150.843 216.448 150.993 215.794 150.993 215.05ZM154.805 215.032C154.805 214.024 155.009 213.142 155.417 212.386C155.825 211.618 156.383 211.024 157.091 210.604C157.811 210.184 158.609 209.974 159.485 209.974C160.349 209.974 161.099 210.16 161.735 210.532C162.371 210.904 162.845 211.372 163.157 211.936V210.136H164.813V220H163.157V218.164C162.833 218.74 162.347 219.22 161.699 219.604C161.063 219.976 160.319 220.162 159.467 220.162C158.591 220.162 157.799 219.946 157.091 219.514C156.383 219.082 155.825 218.476 155.417 217.696C155.009 216.916 154.805 216.028 154.805 215.032ZM163.157 215.05C163.157 214.306 163.007 213.658 162.707 213.106C162.407 212.554 161.999 212.134 161.483 211.846C160.979 211.546 160.421 211.396 159.809 211.396C159.197 211.396 158.639 211.54 158.135 211.828C157.631 212.116 157.229 212.536 156.929 213.088C156.629 213.64 156.479 214.288 156.479 215.032C156.479 215.788 156.629 216.448 156.929 217.012C157.229 217.564 157.631 217.99 158.135 218.29C158.639 218.578 159.197 218.722 159.809 218.722C160.421 218.722 160.979 218.578 161.483 218.29C161.999 217.99 162.407 217.564 162.707 217.012C163.007 216.448 163.157 215.794 163.157 215.05ZM171.595 211.486H169.525V220H167.887V211.486H166.609V210.136H167.887V209.434C167.887 208.33 168.169 207.526 168.733 207.022C169.309 206.506 170.227 206.248 171.487 206.248V207.616C170.767 207.616 170.257 207.76 169.957 208.048C169.669 208.324 169.525 208.786 169.525 209.434V210.136H171.595V211.486ZM175.503 211.486V217.3C175.503 217.78 175.605 218.122 175.809 218.326C176.013 218.518 176.367 218.614 176.871 218.614H178.077V220H176.601C175.689 220 175.005 219.79 174.549 219.37C174.093 218.95 173.865 218.26 173.865 217.3V211.486H172.587V210.136H173.865V207.652H175.503V210.136H178.077V211.486H175.503ZM179.45 215.032C179.45 214.024 179.654 213.142 180.062 212.386C180.47 211.618 181.028 211.024 181.736 210.604C182.456 210.184 183.254 209.974 184.13 209.974C184.994 209.974 185.744 210.16 186.38 210.532C187.016 210.904 187.49 211.372 187.802 211.936V210.136H189.458V220H187.802V218.164C187.478 218.74 186.992 219.22 186.344 219.604C185.708 219.976 184.964 220.162 184.112 220.162C183.236 220.162 182.444 219.946 181.736 219.514C181.028 219.082 180.47 218.476 180.062 217.696C179.654 216.916 179.45 216.028 179.45 215.032ZM187.802 215.05C187.802 214.306 187.652 213.658 187.352 213.106C187.052 212.554 186.644 212.134 186.128 211.846C185.624 211.546 185.066 211.396 184.454 211.396C183.842 211.396 183.284 211.54 182.78 211.828C182.276 212.116 181.874 212.536 181.574 213.088C181.274 213.64 181.124 214.288 181.124 215.032C181.124 215.788 181.274 216.448 181.574 217.012C181.874 217.564 182.276 217.99 182.78 218.29C183.284 218.578 183.842 218.722 184.454 218.722C185.066 218.722 185.624 218.578 186.128 218.29C186.644 217.99 187.052 217.564 187.352 217.012C187.652 216.448 187.802 215.794 187.802 215.05ZM193.864 211.738C194.152 211.174 194.56 210.736 195.088 210.424C195.628 210.112 196.282 209.956 197.05 209.956V211.648H196.618C194.782 211.648 193.864 212.644 193.864 214.636V220H192.226V210.136H193.864V211.738ZM198.329 215.032C198.329 214.024 198.533 213.142 198.941 212.386C199.349 211.618 199.907 211.024 200.615 210.604C201.335 210.184 202.133 209.974 203.009 209.974C203.873 209.974 204.623 210.16 205.259 210.532C205.895 210.904 206.369 211.372 206.681 211.936V210.136H208.337V220H206.681V218.164C206.357 218.74 205.871 219.22 205.223 219.604C204.587 219.976 203.843 220.162 202.991 220.162C202.115 220.162 201.323 219.946 200.615 219.514C199.907 219.082 199.349 218.476 198.941 217.696C198.533 216.916 198.329 216.028 198.329 215.032ZM206.681 215.05C206.681 214.306 206.531 213.658 206.231 213.106C205.931 212.554 205.523 212.134 205.007 211.846C204.503 211.546 203.945 211.396 203.333 211.396C202.721 211.396 202.163 211.54 201.659 211.828C201.155 212.116 200.753 212.536 200.453 213.088C200.153 213.64 200.003 214.288 200.003 215.032C200.003 215.788 200.153 216.448 200.453 217.012C200.753 217.564 201.155 217.99 201.659 218.29C202.163 218.578 202.721 218.722 203.333 218.722C203.945 218.722 204.503 218.578 205.007 218.29C205.523 217.99 205.931 217.564 206.231 217.012C206.531 216.448 206.681 215.794 206.681 215.05ZM215.911 209.956C217.111 209.956 218.083 210.322 218.827 211.054C219.571 211.774 219.943 212.818 219.943 214.186V220H218.323V214.42C218.323 213.436 218.077 212.686 217.585 212.17C217.093 211.642 216.421 211.378 215.569 211.378C214.705 211.378 214.015 211.648 213.499 212.188C212.995 212.728 212.743 213.514 212.743 214.546V220H211.105V210.136H212.743V211.54C213.067 211.036 213.505 210.646 214.057 210.37C214.621 210.094 215.239 209.956 215.911 209.956Z" fill="black"/>
<path d="M269 125.5H359" stroke="#F88312" stroke-width="12" stroke-linecap="round"/>
<path d="M458.904 29.8519C460.894 27.0082 465.106 27.0082 467.096 29.8519L481.991 51.1305C483.105 52.7229 485.042 53.525 486.956 53.1871L512.534 48.6729C515.952 48.0697 518.93 51.0476 518.327 54.4658L513.813 80.0441C513.475 81.9582 514.277 83.8947 515.87 85.0093L537.148 99.9038C539.992 101.894 539.992 106.106 537.148 108.096L515.87 122.991C514.277 124.105 513.475 126.042 513.813 127.956L518.327 153.534C518.93 156.952 515.952 159.93 512.534 159.327L486.956 154.813C485.042 154.475 483.105 155.277 481.991 156.87L467.096 178.148C465.106 180.992 460.894 180.992 458.904 178.148L444.009 156.87C442.895 155.277 440.958 154.475 439.044 154.813L413.466 159.327C410.048 159.93 407.07 156.952 407.673 153.534L412.187 127.956C412.525 126.042 411.723 124.105 410.13 122.991L388.852 108.096C386.008 106.106 386.008 101.894 388.852 99.9038L410.13 85.0093C411.723 83.8947 412.525 81.9582 412.187 80.0441L407.673 54.4658C407.07 51.0476 410.048 48.0697 413.466 48.6729L439.044 53.1871C440.958 53.525 442.895 52.7229 444.009 51.1305L458.904 29.8519Z" fill="#F88312"/>
<path d="M454.277 97.24C453.093 97.24 451.933 97.072 450.797 96.736C449.677 96.384 448.733 95.904 447.965 95.296L449.309 92.872C449.917 93.368 450.653 93.768 451.517 94.072C452.381 94.376 453.285 94.528 454.229 94.528C455.349 94.528 456.221 94.304 456.845 93.856C457.469 93.392 457.781 92.768 457.781 91.984C457.781 91.216 457.493 90.608 456.917 90.16C456.341 89.712 455.413 89.488 454.133 89.488H452.597V87.352L457.397 81.64L457.805 82.816H448.781V80.2H460.229V82.288L455.429 88L453.797 87.04H454.733C456.797 87.04 458.341 87.504 459.365 88.432C460.405 89.344 460.925 90.52 460.925 91.96C460.925 92.904 460.685 93.776 460.205 94.576C459.725 95.376 458.989 96.024 457.997 96.52C457.021 97 455.781 97.24 454.277 97.24ZM469.974 97.24C468.646 97.24 467.446 96.904 466.374 96.232C465.318 95.56 464.486 94.584 463.878 93.304C463.27 92.008 462.966 90.44 462.966 88.6C462.966 86.76 463.27 85.2 463.878 83.92C464.486 82.624 465.318 81.64 466.374 80.968C467.446 80.296 468.646 79.96 469.974 79.96C471.318 79.96 472.518 80.296 473.574 80.968C474.63 81.64 475.462 82.624 476.07 83.92C476.694 85.2 477.006 86.76 477.006 88.6C477.006 90.44 476.694 92.008 476.07 93.304C475.462 94.584 474.63 95.56 473.574 96.232C472.518 96.904 471.318 97.24 469.974 97.24ZM469.974 94.528C470.758 94.528 471.438 94.32 472.014 93.904C472.59 93.472 473.038 92.816 473.358 91.936C473.694 91.056 473.862 89.944 473.862 88.6C473.862 87.24 473.694 86.128 473.358 85.264C473.038 84.384 472.59 83.736 472.014 83.32C471.438 82.888 470.758 82.672 469.974 82.672C469.222 82.672 468.55 82.888 467.958 83.32C467.382 83.736 466.926 84.384 466.59 85.264C466.27 86.128 466.11 87.24 466.11 88.6C466.11 89.944 466.27 91.056 466.59 91.936C466.926 92.816 467.382 93.472 467.958 93.904C468.55 94.32 469.222 94.528 469.974 94.528ZM438.584 127V110.2H445.928C447.752 110.2 449.352 110.552 450.728 111.256C452.104 111.96 453.176 112.936 453.944 114.184C454.712 115.432 455.096 116.904 455.096 118.6C455.096 120.28 454.712 121.752 453.944 123.016C453.176 124.264 452.104 125.24 450.728 125.944C449.352 126.648 447.752 127 445.928 127H438.584ZM441.704 124.36H445.784C447.048 124.36 448.136 124.12 449.048 123.64C449.976 123.16 450.688 122.488 451.184 121.624C451.696 120.76 451.952 119.752 451.952 118.6C451.952 117.432 451.696 116.424 451.184 115.576C450.688 114.712 449.976 114.04 449.048 113.56C448.136 113.08 447.048 112.84 445.784 112.84H441.704V124.36ZM461.292 117.184H469.644V119.752H461.292V117.184ZM461.532 124.384H471.012V127H458.412V110.2H470.676V112.816H461.532V124.384ZM482.266 127.24C480.986 127.24 479.794 127.032 478.69 126.616C477.602 126.184 476.65 125.584 475.834 124.816C475.034 124.032 474.41 123.112 473.962 122.056C473.514 121 473.29 119.848 473.29 118.6C473.29 117.352 473.514 116.2 473.962 115.144C474.41 114.088 475.042 113.176 475.858 112.408C476.674 111.624 477.626 111.024 478.714 110.608C479.802 110.176 480.994 109.96 482.29 109.96C483.666 109.96 484.922 110.2 486.058 110.68C487.194 111.144 488.154 111.84 488.938 112.768L486.922 114.664C486.314 114.008 485.634 113.52 484.882 113.2C484.13 112.864 483.314 112.696 482.434 112.696C481.554 112.696 480.746 112.84 480.01 113.128C479.29 113.416 478.658 113.824 478.114 114.352C477.586 114.88 477.17 115.504 476.866 116.224C476.578 116.944 476.434 117.736 476.434 118.6C476.434 119.464 476.578 120.256 476.866 120.976C477.17 121.696 477.586 122.32 478.114 122.848C478.658 123.376 479.29 123.784 480.01 124.072C480.746 124.36 481.554 124.504 482.434 124.504C483.314 124.504 484.13 124.344 484.882 124.024C485.634 123.688 486.314 123.184 486.922 122.512L488.938 124.432C488.154 125.344 487.194 126.04 486.058 126.52C484.922 127 483.658 127.24 482.266 127.24Z" fill="white"/>
<path d="M390.395 207.454C391.763 207.454 392.945 207.712 393.941 208.228C394.949 208.732 395.717 209.458 396.245 210.406C396.785 211.354 397.055 212.47 397.055 213.754C397.055 215.038 396.785 216.154 396.245 217.102C395.717 218.038 394.949 218.758 393.941 219.262C392.945 219.754 391.763 220 390.395 220H386.489V207.454H390.395ZM390.395 218.65C392.015 218.65 393.251 218.224 394.103 217.372C394.955 216.508 395.381 215.302 395.381 213.754C395.381 212.194 394.949 210.976 394.085 210.1C393.233 209.224 392.003 208.786 390.395 208.786H388.127V218.65H390.395ZM408.215 214.69C408.215 215.002 408.197 215.332 408.161 215.68H400.277C400.337 216.652 400.667 217.414 401.267 217.966C401.879 218.506 402.617 218.776 403.481 218.776C404.189 218.776 404.777 218.614 405.245 218.29C405.725 217.954 406.061 217.51 406.253 216.958H408.017C407.753 217.906 407.225 218.68 406.433 219.28C405.641 219.868 404.657 220.162 403.481 220.162C402.545 220.162 401.705 219.952 400.961 219.532C400.229 219.112 399.653 218.518 399.233 217.75C398.813 216.97 398.603 216.07 398.603 215.05C398.603 214.03 398.807 213.136 399.215 212.368C399.623 211.6 400.193 211.012 400.925 210.604C401.669 210.184 402.521 209.974 403.481 209.974C404.417 209.974 405.245 210.178 405.965 210.586C406.685 210.994 407.237 211.558 407.621 212.278C408.017 212.986 408.215 213.79 408.215 214.69ZM406.523 214.348C406.523 213.724 406.385 213.19 406.109 212.746C405.833 212.29 405.455 211.948 404.975 211.72C404.507 211.48 403.985 211.36 403.409 211.36C402.581 211.36 401.873 211.624 401.285 212.152C400.709 212.68 400.379 213.412 400.295 214.348H406.523ZM412.015 211.972C412.351 211.384 412.843 210.904 413.491 210.532C414.139 210.16 414.877 209.974 415.705 209.974C416.593 209.974 417.391 210.184 418.099 210.604C418.807 211.024 419.365 211.618 419.773 212.386C420.181 213.142 420.385 214.024 420.385 215.032C420.385 216.028 420.181 216.916 419.773 217.696C419.365 218.476 418.801 219.082 418.081 219.514C417.373 219.946 416.581 220.162 415.705 220.162C414.853 220.162 414.103 219.976 413.455 219.604C412.819 219.232 412.339 218.758 412.015 218.182V220H410.377V206.68H412.015V211.972ZM418.711 215.032C418.711 214.288 418.561 213.64 418.261 213.088C417.961 212.536 417.553 212.116 417.037 211.828C416.533 211.54 415.975 211.396 415.363 211.396C414.763 211.396 414.205 211.546 413.689 211.846C413.185 212.134 412.777 212.56 412.465 213.124C412.165 213.676 412.015 214.318 412.015 215.05C412.015 215.794 412.165 216.448 412.465 217.012C412.777 217.564 413.185 217.99 413.689 218.29C414.205 218.578 414.763 218.722 415.363 218.722C415.975 218.722 416.533 218.578 417.037 218.29C417.553 217.99 417.961 217.564 418.261 217.012C418.561 216.448 418.711 215.788 418.711 215.032ZM421.929 215.032C421.929 214.024 422.133 213.142 422.541 212.386C422.949 211.618 423.507 211.024 424.215 210.604C424.935 210.184 425.733 209.974 426.609 209.974C427.473 209.974 428.223 210.16 428.859 210.532C429.495 210.904 429.969 211.372 430.281 211.936V210.136H431.937V220H430.281V218.164C429.957 218.74 429.471 219.22 428.823 219.604C428.187 219.976 427.443 220.162 426.591 220.162C425.715 220.162 424.923 219.946 424.215 219.514C423.507 219.082 422.949 218.476 422.541 217.696C422.133 216.916 421.929 216.028 421.929 215.032ZM430.281 215.05C430.281 214.306 430.131 213.658 429.831 213.106C429.531 212.554 429.123 212.134 428.607 211.846C428.103 211.546 427.545 211.396 426.933 211.396C426.321 211.396 425.763 211.54 425.259 211.828C424.755 212.116 424.353 212.536 424.053 213.088C423.753 213.64 423.603 214.288 423.603 215.032C423.603 215.788 423.753 216.448 424.053 217.012C424.353 217.564 424.755 217.99 425.259 218.29C425.763 218.578 426.321 218.722 426.933 218.722C427.545 218.722 428.103 218.578 428.607 218.29C429.123 217.99 429.531 217.564 429.831 217.012C430.131 216.448 430.281 215.794 430.281 215.05ZM436.703 211.486V217.3C436.703 217.78 436.805 218.122 437.009 218.326C437.213 218.518 437.567 218.614 438.071 218.614H439.277V220H437.801C436.889 220 436.205 219.79 435.749 219.37C435.293 218.95 435.065 218.26 435.065 217.3V211.486H433.787V210.136H435.065V207.652H436.703V210.136H439.277V211.486H436.703ZM445.449 213.718C445.449 212.494 445.725 211.396 446.277 210.424C446.829 209.44 447.579 208.672 448.527 208.12C449.487 207.568 450.549 207.292 451.713 207.292C453.081 207.292 454.275 207.622 455.295 208.282C456.315 208.942 457.059 209.878 457.527 211.09H455.565C455.217 210.334 454.713 209.752 454.053 209.344C453.405 208.936 452.625 208.732 451.713 208.732C450.837 208.732 450.051 208.936 449.355 209.344C448.659 209.752 448.113 210.334 447.717 211.09C447.321 211.834 447.123 212.71 447.123 213.718C447.123 214.714 447.321 215.59 447.717 216.346C448.113 217.09 448.659 217.666 449.355 218.074C450.051 218.482 450.837 218.686 451.713 218.686C452.625 218.686 453.405 218.488 454.053 218.092C454.713 217.684 455.217 217.102 455.565 216.346H457.527C457.059 217.546 456.315 218.476 455.295 219.136C454.275 219.784 453.081 220.108 451.713 220.108C450.549 220.108 449.487 219.838 448.527 219.298C447.579 218.746 446.829 217.984 446.277 217.012C445.725 216.04 445.449 214.942 445.449 213.718ZM459.353 215.032C459.353 214.024 459.557 213.142 459.965 212.386C460.373 211.618 460.931 211.024 461.639 210.604C462.359 210.184 463.157 209.974 464.033 209.974C464.897 209.974 465.647 210.16 466.283 210.532C466.919 210.904 467.393 211.372 467.705 211.936V210.136H469.361V220H467.705V218.164C467.381 218.74 466.895 219.22 466.247 219.604C465.611 219.976 464.867 220.162 464.015 220.162C463.139 220.162 462.347 219.946 461.639 219.514C460.931 219.082 460.373 218.476 459.965 217.696C459.557 216.916 459.353 216.028 459.353 215.032ZM467.705 215.05C467.705 214.306 467.555 213.658 467.255 213.106C466.955 212.554 466.547 212.134 466.031 211.846C465.527 211.546 464.969 211.396 464.357 211.396C463.745 211.396 463.187 211.54 462.683 211.828C462.179 212.116 461.777 212.536 461.477 213.088C461.177 213.64 461.027 214.288 461.027 215.032C461.027 215.788 461.177 216.448 461.477 217.012C461.777 217.564 462.179 217.99 462.683 218.29C463.187 218.578 463.745 218.722 464.357 218.722C464.969 218.722 465.527 218.578 466.031 218.29C466.547 217.99 466.955 217.564 467.255 217.012C467.555 216.448 467.705 215.794 467.705 215.05ZM473.767 211.954C474.091 211.39 474.571 210.922 475.207 210.55C475.855 210.166 476.605 209.974 477.457 209.974C478.333 209.974 479.125 210.184 479.833 210.604C480.553 211.024 481.117 211.618 481.525 212.386C481.933 213.142 482.137 214.024 482.137 215.032C482.137 216.028 481.933 216.916 481.525 217.696C481.117 218.476 480.553 219.082 479.833 219.514C479.125 219.946 478.333 220.162 477.457 220.162C476.617 220.162 475.873 219.976 475.225 219.604C474.589 219.22 474.103 218.746 473.767 218.182V224.68H472.129V210.136H473.767V211.954ZM480.463 215.032C480.463 214.288 480.313 213.64 480.013 213.088C479.713 212.536 479.305 212.116 478.789 211.828C478.285 211.54 477.727 211.396 477.115 211.396C476.515 211.396 475.957 211.546 475.441 211.846C474.937 212.134 474.529 212.56 474.217 213.124C473.917 213.676 473.767 214.318 473.767 215.05C473.767 215.794 473.917 216.448 474.217 217.012C474.529 217.564 474.937 217.99 475.441 218.29C475.957 218.578 476.515 218.722 477.115 218.722C477.727 218.722 478.285 218.578 478.789 218.29C479.305 217.99 479.713 217.564 480.013 217.012C480.313 216.448 480.463 215.788 480.463 215.032ZM485.931 211.738C486.219 211.174 486.627 210.736 487.155 210.424C487.695 210.112 488.349 209.956 489.117 209.956V211.648H488.685C486.849 211.648 485.931 212.644 485.931 214.636V220H484.293V210.136H485.931V211.738ZM500.008 214.69C500.008 215.002 499.99 215.332 499.954 215.68H492.07C492.13 216.652 492.46 217.414 493.06 217.966C493.672 218.506 494.41 218.776 495.274 218.776C495.982 218.776 496.57 218.614 497.038 218.29C497.518 217.954 497.854 217.51 498.046 216.958H499.81C499.546 217.906 499.018 218.68 498.226 219.28C497.434 219.868 496.45 220.162 495.274 220.162C494.338 220.162 493.498 219.952 492.754 219.532C492.022 219.112 491.446 218.518 491.026 217.75C490.606 216.97 490.396 216.07 490.396 215.05C490.396 214.03 490.6 213.136 491.008 212.368C491.416 211.6 491.986 211.012 492.718 210.604C493.462 210.184 494.314 209.974 495.274 209.974C496.21 209.974 497.038 210.178 497.758 210.586C498.478 210.994 499.03 211.558 499.414 212.278C499.81 212.986 500.008 213.79 500.008 214.69ZM498.316 214.348C498.316 213.724 498.178 213.19 497.902 212.746C497.626 212.29 497.248 211.948 496.768 211.72C496.3 211.48 495.778 211.36 495.202 211.36C494.374 211.36 493.666 211.624 493.078 212.152C492.502 212.68 492.172 213.412 492.088 214.348H498.316ZM505.662 220.162C504.906 220.162 504.228 220.036 503.628 219.784C503.028 219.52 502.554 219.16 502.206 218.704C501.858 218.236 501.666 217.702 501.63 217.102H503.322C503.37 217.594 503.598 217.996 504.006 218.308C504.426 218.62 504.972 218.776 505.644 218.776C506.268 218.776 506.76 218.638 507.12 218.362C507.48 218.086 507.66 217.738 507.66 217.318C507.66 216.886 507.468 216.568 507.084 216.364C506.7 216.148 506.106 215.938 505.302 215.734C504.57 215.542 503.97 215.35 503.502 215.158C503.046 214.954 502.65 214.66 502.314 214.276C501.99 213.88 501.828 213.364 501.828 212.728C501.828 212.224 501.978 211.762 502.278 211.342C502.578 210.922 503.004 210.592 503.556 210.352C504.108 210.1 504.738 209.974 505.446 209.974C506.538 209.974 507.42 210.25 508.092 210.802C508.764 211.354 509.124 212.11 509.172 213.07H507.534C507.498 212.554 507.288 212.14 506.904 211.828C506.532 211.516 506.028 211.36 505.392 211.36C504.804 211.36 504.336 211.486 503.988 211.738C503.64 211.99 503.466 212.32 503.466 212.728C503.466 213.052 503.568 213.322 503.772 213.538C503.988 213.742 504.252 213.91 504.564 214.042C504.888 214.162 505.332 214.3 505.896 214.456C506.604 214.648 507.18 214.84 507.624 215.032C508.068 215.212 508.446 215.488 508.758 215.86C509.082 216.232 509.25 216.718 509.262 217.318C509.262 217.858 509.112 218.344 508.812 218.776C508.512 219.208 508.086 219.55 507.534 219.802C506.994 220.042 506.37 220.162 505.662 220.162ZM523.436 209.956C524.204 209.956 524.888 210.118 525.488 210.442C526.088 210.754 526.562 211.228 526.91 211.864C527.258 212.5 527.432 213.274 527.432 214.186V220H525.812V214.42C525.812 213.436 525.566 212.686 525.074 212.17C524.594 211.642 523.94 211.378 523.112 211.378C522.26 211.378 521.582 211.654 521.078 212.206C520.574 212.746 520.322 213.532 520.322 214.564V220H518.702V214.42C518.702 213.436 518.456 212.686 517.964 212.17C517.484 211.642 516.83 211.378 516.002 211.378C515.15 211.378 514.472 211.654 513.968 212.206C513.464 212.746 513.212 213.532 513.212 214.564V220H511.574V210.136H513.212V211.558C513.536 211.042 513.968 210.646 514.508 210.37C515.06 210.094 515.666 209.956 516.326 209.956C517.154 209.956 517.886 210.142 518.522 210.514C519.158 210.886 519.632 211.432 519.944 212.152C520.22 211.456 520.676 210.916 521.312 210.532C521.948 210.148 522.656 209.956 523.436 209.956ZM529.507 215.032C529.507 214.024 529.711 213.142 530.119 212.386C530.527 211.618 531.085 211.024 531.793 210.604C532.513 210.184 533.311 209.974 534.187 209.974C535.051 209.974 535.801 210.16 536.437 210.532C537.073 210.904 537.547 211.372 537.859 211.936V210.136H539.515V220H537.859V218.164C537.535 218.74 537.049 219.22 536.401 219.604C535.765 219.976 535.021 220.162 534.169 220.162C533.293 220.162 532.501 219.946 531.793 219.514C531.085 219.082 530.527 218.476 530.119 217.696C529.711 216.916 529.507 216.028 529.507 215.032ZM537.859 215.05C537.859 214.306 537.709 213.658 537.409 213.106C537.109 212.554 536.701 212.134 536.185 211.846C535.681 211.546 535.123 211.396 534.511 211.396C533.899 211.396 533.341 211.54 532.837 211.828C532.333 212.116 531.931 212.536 531.631 213.088C531.331 213.64 531.181 214.288 531.181 215.032C531.181 215.788 531.331 216.448 531.631 217.012C531.931 217.564 532.333 217.99 532.837 218.29C533.341 218.578 533.899 218.722 534.511 218.722C535.123 218.722 535.681 218.578 536.185 218.29C536.701 217.99 537.109 217.564 537.409 217.012C537.709 216.448 537.859 215.794 537.859 215.05Z" fill="black"/>
<path d="M567 125.5H657" stroke="#F88312" stroke-width="12" stroke-linecap="round"/>
<path d="M756.904 29.8519C758.894 27.0082 763.106 27.0082 765.096 29.8519L779.991 51.1305C781.105 52.7229 783.042 53.525 784.956 53.1871L810.534 48.6729C813.952 48.0697 816.93 51.0476 816.327 54.4658L811.813 80.0441C811.475 81.9582 812.277 83.8947 813.87 85.0093L835.148 99.9038C837.992 101.894 837.992 106.106 835.148 108.096L813.87 122.991C812.277 124.105 811.475 126.042 811.813 127.956L816.327 153.534C816.93 156.952 813.952 159.93 810.534 159.327L784.956 154.813C783.042 154.475 781.105 155.277 779.991 156.87L765.096 178.148C763.106 180.992 758.894 180.992 756.904 178.148L742.009 156.87C740.895 155.277 738.958 154.475 737.044 154.813L711.466 159.327C708.048 159.93 705.07 156.952 705.673 153.534L710.187 127.956C710.525 126.042 709.723 124.105 708.13 122.991L686.852 108.096C684.008 106.106 684.008 101.894 686.852 99.9038L708.13 85.0093C709.723 83.8947 710.525 81.9582 710.187 80.0441L705.673 54.4658C705.07 51.0476 708.048 48.0697 711.466 48.6729L737.044 53.1871C738.958 53.525 740.895 52.7229 742.009 51.1305L756.904 29.8519Z" fill="#F88312"/>
<path d="M754.856 97V94.912L761.528 88.576C762.088 88.048 762.504 87.584 762.776 87.184C763.048 86.784 763.224 86.416 763.304 86.08C763.4 85.728 763.448 85.4 763.448 85.096C763.448 84.328 763.184 83.736 762.656 83.32C762.128 82.888 761.352 82.672 760.328 82.672C759.512 82.672 758.768 82.816 758.096 83.104C757.44 83.392 756.872 83.832 756.392 84.424L754.208 82.744C754.864 81.864 755.744 81.184 756.848 80.704C757.968 80.208 759.216 79.96 760.592 79.96C761.808 79.96 762.864 80.16 763.76 80.56C764.672 80.944 765.368 81.496 765.848 82.216C766.344 82.936 766.592 83.792 766.592 84.784C766.592 85.328 766.52 85.872 766.376 86.416C766.232 86.944 765.96 87.504 765.56 88.096C765.16 88.688 764.576 89.352 763.808 90.088L758.072 95.536L757.424 94.36H767.24V97H754.856ZM741.017 127.24C739.945 127.24 738.953 127.032 738.041 126.616C737.145 126.2 736.409 125.6 735.833 124.816L737.609 122.68C738.073 123.32 738.577 123.8 739.121 124.12C739.681 124.44 740.289 124.6 740.945 124.6C742.689 124.6 743.561 123.568 743.561 121.504V112.816H737.585V110.2H746.681V121.336C746.681 123.32 746.193 124.8 745.217 125.776C744.257 126.752 742.857 127.24 741.017 127.24ZM748.329 127L755.889 110.2H758.961L766.545 127H763.281L756.777 111.856H758.025L751.545 127H748.329ZM751.809 123.112L752.649 120.664H761.721L762.561 123.112H751.809ZM768.682 127V110.2H771.25L781.786 123.136H780.514V110.2H783.61V127H781.042L770.506 114.064H771.778V127H768.682Z" fill="white"/>
<path d="M739.054 211.126C739.054 212.17 738.694 213.04 737.974 213.736C737.266 214.42 736.18 214.762 734.716 214.762H732.304V220H730.666V207.454H734.716C736.132 207.454 737.206 207.796 737.938 208.48C738.682 209.164 739.054 210.046 739.054 211.126ZM734.716 213.412C735.628 213.412 736.3 213.214 736.732 212.818C737.164 212.422 737.38 211.858 737.38 211.126C737.38 209.578 736.492 208.804 734.716 208.804H732.304V213.412H734.716ZM750.09 214.69C750.09 215.002 750.072 215.332 750.036 215.68H742.152C742.212 216.652 742.542 217.414 743.142 217.966C743.754 218.506 744.492 218.776 745.356 218.776C746.064 218.776 746.652 218.614 747.12 218.29C747.6 217.954 747.936 217.51 748.128 216.958H749.892C749.628 217.906 749.1 218.68 748.308 219.28C747.516 219.868 746.532 220.162 745.356 220.162C744.42 220.162 743.58 219.952 742.836 219.532C742.104 219.112 741.528 218.518 741.108 217.75C740.688 216.97 740.478 216.07 740.478 215.05C740.478 214.03 740.682 213.136 741.09 212.368C741.498 211.6 742.068 211.012 742.8 210.604C743.544 210.184 744.396 209.974 745.356 209.974C746.292 209.974 747.12 210.178 747.84 210.586C748.56 210.994 749.112 211.558 749.496 212.278C749.892 212.986 750.09 213.79 750.09 214.69ZM748.398 214.348C748.398 213.724 748.26 213.19 747.984 212.746C747.708 212.29 747.33 211.948 746.85 211.72C746.382 211.48 745.86 211.36 745.284 211.36C744.456 211.36 743.748 211.624 743.16 212.152C742.584 212.68 742.254 213.412 742.17 214.348H748.398ZM764.114 209.956C764.882 209.956 765.566 210.118 766.166 210.442C766.766 210.754 767.24 211.228 767.588 211.864C767.936 212.5 768.11 213.274 768.11 214.186V220H766.49V214.42C766.49 213.436 766.244 212.686 765.752 212.17C765.272 211.642 764.618 211.378 763.79 211.378C762.938 211.378 762.26 211.654 761.756 212.206C761.252 212.746 761 213.532 761 214.564V220H759.38V214.42C759.38 213.436 759.134 212.686 758.642 212.17C758.162 211.642 757.508 211.378 756.68 211.378C755.828 211.378 755.15 211.654 754.646 212.206C754.142 212.746 753.89 213.532 753.89 214.564V220H752.252V210.136H753.89V211.558C754.214 211.042 754.646 210.646 755.186 210.37C755.738 210.094 756.344 209.956 757.004 209.956C757.832 209.956 758.564 210.142 759.2 210.514C759.836 210.886 760.31 211.432 760.622 212.152C760.898 211.456 761.354 210.916 761.99 210.532C762.626 210.148 763.334 209.956 764.114 209.956ZM771.643 208.534C771.331 208.534 771.067 208.426 770.851 208.21C770.635 207.994 770.527 207.73 770.527 207.418C770.527 207.106 770.635 206.842 770.851 206.626C771.067 206.41 771.331 206.302 771.643 206.302C771.943 206.302 772.195 206.41 772.399 206.626C772.615 206.842 772.723 207.106 772.723 207.418C772.723 207.73 772.615 207.994 772.399 208.21C772.195 208.426 771.943 208.534 771.643 208.534ZM772.435 210.136V220H770.797V210.136H772.435ZM776.865 211.738C777.153 211.174 777.561 210.736 778.089 210.424C778.629 210.112 779.283 209.956 780.051 209.956V211.648H779.619C777.783 211.648 776.865 212.644 776.865 214.636V220H775.227V210.136H776.865V211.738ZM781.33 215.032C781.33 214.024 781.534 213.142 781.942 212.386C782.35 211.618 782.908 211.024 783.616 210.604C784.336 210.184 785.134 209.974 786.01 209.974C786.874 209.974 787.624 210.16 788.26 210.532C788.896 210.904 789.37 211.372 789.682 211.936V210.136H791.338V220H789.682V218.164C789.358 218.74 788.872 219.22 788.224 219.604C787.588 219.976 786.844 220.162 785.992 220.162C785.116 220.162 784.324 219.946 783.616 219.514C782.908 219.082 782.35 218.476 781.942 217.696C781.534 216.916 781.33 216.028 781.33 215.032ZM789.682 215.05C789.682 214.306 789.532 213.658 789.232 213.106C788.932 212.554 788.524 212.134 788.008 211.846C787.504 211.546 786.946 211.396 786.334 211.396C785.722 211.396 785.164 211.54 784.66 211.828C784.156 212.116 783.754 212.536 783.454 213.088C783.154 213.64 783.004 214.288 783.004 215.032C783.004 215.788 783.154 216.448 783.454 217.012C783.754 217.564 784.156 217.99 784.66 218.29C785.164 218.578 785.722 218.722 786.334 218.722C786.946 218.722 787.504 218.578 788.008 218.29C788.524 217.99 788.932 217.564 789.232 217.012C789.532 216.448 789.682 215.794 789.682 215.05Z" fill="black"/>
<path d="M865 125.5H955" stroke="#F88312" stroke-width="12" stroke-linecap="round"/>
<path d="M1054.9 29.8519C1056.89 27.0082 1061.11 27.0082 1063.1 29.8519L1077.99 51.1305C1079.11 52.7229 1081.04 53.525 1082.96 53.1871L1108.53 48.6729C1111.95 48.0697 1114.93 51.0476 1114.33 54.4658L1109.81 80.0441C1109.48 81.9582 1110.28 83.8947 1111.87 85.0093L1133.15 99.9038C1135.99 101.894 1135.99 106.106 1133.15 108.096L1111.87 122.991C1110.28 124.105 1109.48 126.042 1109.81 127.956L1114.33 153.534C1114.93 156.952 1111.95 159.93 1108.53 159.327L1082.96 154.813C1081.04 154.475 1079.11 155.277 1077.99 156.87L1063.1 178.148C1061.11 180.992 1056.89 180.992 1054.9 178.148L1040.01 156.87C1038.89 155.277 1036.96 154.475 1035.04 154.813L1009.47 159.327C1006.05 159.93 1003.07 156.952 1003.67 153.534L1008.19 127.956C1008.52 126.042 1007.72 124.105 1006.13 122.991L984.852 108.096C982.008 106.106 982.008 101.894 984.852 99.9038L1006.13 85.0093C1007.72 83.8947 1008.52 81.9582 1008.19 80.0441L1003.67 54.4658C1003.07 51.0476 1006.05 48.0697 1009.47 48.6729L1035.04 53.1871C1036.96 53.525 1038.89 52.7229 1040.01 51.1305L1054.9 29.8519Z" fill="#F88312"/>
<path d="M1050.1 97V81.4L1051.47 82.816H1046.55V80.2H1053.22V97H1050.1ZM1063.56 97.24C1062.23 97.24 1061.03 96.904 1059.96 96.232C1058.9 95.56 1058.07 94.584 1057.46 93.304C1056.86 92.008 1056.55 90.44 1056.55 88.6C1056.55 86.76 1056.86 85.2 1057.46 83.92C1058.07 82.624 1058.9 81.64 1059.96 80.968C1061.03 80.296 1062.23 79.96 1063.56 79.96C1064.9 79.96 1066.1 80.296 1067.16 80.968C1068.22 81.64 1069.05 82.624 1069.66 83.92C1070.28 85.2 1070.59 86.76 1070.59 88.6C1070.59 90.44 1070.28 92.008 1069.66 93.304C1069.05 94.584 1068.22 95.56 1067.16 96.232C1066.1 96.904 1064.9 97.24 1063.56 97.24ZM1063.56 94.528C1064.34 94.528 1065.02 94.32 1065.6 93.904C1066.18 93.472 1066.62 92.816 1066.94 91.936C1067.28 91.056 1067.45 89.944 1067.45 88.6C1067.45 87.24 1067.28 86.128 1066.94 85.264C1066.62 84.384 1066.18 83.736 1065.6 83.32C1065.02 82.888 1064.34 82.672 1063.56 82.672C1062.81 82.672 1062.14 82.888 1061.54 83.32C1060.97 83.736 1060.51 84.384 1060.18 85.264C1059.86 86.128 1059.7 87.24 1059.7 88.6C1059.7 89.944 1059.86 91.056 1060.18 91.936C1060.51 92.816 1060.97 93.472 1061.54 93.904C1062.14 94.32 1062.81 94.528 1063.56 94.528ZM1039.02 127.24C1037.94 127.24 1036.95 127.032 1036.04 126.616C1035.14 126.2 1034.41 125.6 1033.83 124.816L1035.61 122.68C1036.07 123.32 1036.58 123.8 1037.12 124.12C1037.68 124.44 1038.29 124.6 1038.94 124.6C1040.69 124.6 1041.56 123.568 1041.56 121.504V112.816H1035.58V110.2H1044.68V121.336C1044.68 123.32 1044.19 124.8 1043.22 125.776C1042.26 126.752 1040.86 127.24 1039.02 127.24ZM1046.33 127L1053.89 110.2H1056.96L1064.55 127H1061.28L1054.78 111.856H1056.03L1049.55 127H1046.33ZM1049.81 123.112L1050.65 120.664H1059.72L1060.56 123.112H1049.81ZM1066.68 127V110.2H1069.25L1079.79 123.136H1078.51V110.2H1081.61V127H1079.04L1068.51 114.064H1069.78V127H1066.68Z" fill="white"/>
<path d="M1004.24 211.126C1004.24 212.17 1003.88 213.04 1003.16 213.736C1002.46 214.42 1001.37 214.762 999.907 214.762H997.495V220H995.857V207.454H999.907C1001.32 207.454 1002.4 207.796 1003.13 208.48C1003.87 209.164 1004.24 210.046 1004.24 211.126ZM999.907 213.412C1000.82 213.412 1001.49 213.214 1001.92 212.818C1002.35 212.422 1002.57 211.858 1002.57 211.126C1002.57 209.578 1001.68 208.804 999.907 208.804H997.495V213.412H999.907ZM1015.28 214.69C1015.28 215.002 1015.26 215.332 1015.23 215.68H1007.34C1007.4 216.652 1007.73 217.414 1008.33 217.966C1008.94 218.506 1009.68 218.776 1010.55 218.776C1011.25 218.776 1011.84 218.614 1012.31 218.29C1012.79 217.954 1013.13 217.51 1013.32 216.958H1015.08C1014.82 217.906 1014.29 218.68 1013.5 219.28C1012.71 219.868 1011.72 220.162 1010.55 220.162C1009.61 220.162 1008.77 219.952 1008.03 219.532C1007.29 219.112 1006.72 218.518 1006.3 217.75C1005.88 216.97 1005.67 216.07 1005.67 215.05C1005.67 214.03 1005.87 213.136 1006.28 212.368C1006.69 211.6 1007.26 211.012 1007.99 210.604C1008.73 210.184 1009.59 209.974 1010.55 209.974C1011.48 209.974 1012.31 210.178 1013.03 210.586C1013.75 210.994 1014.3 211.558 1014.69 212.278C1015.08 212.986 1015.28 213.79 1015.28 214.69ZM1013.59 214.348C1013.59 213.724 1013.45 213.19 1013.17 212.746C1012.9 212.29 1012.52 211.948 1012.04 211.72C1011.57 211.48 1011.05 211.36 1010.47 211.36C1009.65 211.36 1008.94 211.624 1008.35 212.152C1007.77 212.68 1007.44 213.412 1007.36 214.348H1013.59ZM1022.25 209.956C1023.45 209.956 1024.42 210.322 1025.16 211.054C1025.91 211.774 1026.28 212.818 1026.28 214.186V220H1024.66V214.42C1024.66 213.436 1024.41 212.686 1023.92 212.17C1023.43 211.642 1022.76 211.378 1021.91 211.378C1021.04 211.378 1020.35 211.648 1019.84 212.188C1019.33 212.728 1019.08 213.514 1019.08 214.546V220H1017.44V210.136H1019.08V211.54C1019.4 211.036 1019.84 210.646 1020.39 210.37C1020.96 210.094 1021.58 209.956 1022.25 209.956ZM1033.02 209.974C1033.88 209.974 1034.62 210.16 1035.26 210.532C1035.9 210.904 1036.38 211.372 1036.7 211.936V210.136H1038.35V220.216C1038.35 221.116 1038.16 221.914 1037.78 222.61C1037.39 223.318 1036.84 223.87 1036.12 224.266C1035.41 224.662 1034.58 224.86 1033.64 224.86C1032.34 224.86 1031.26 224.554 1030.4 223.942C1029.53 223.33 1029.02 222.496 1028.87 221.44H1030.49C1030.67 222.04 1031.04 222.52 1031.6 222.88C1032.17 223.252 1032.84 223.438 1033.64 223.438C1034.54 223.438 1035.27 223.156 1035.83 222.592C1036.41 222.028 1036.7 221.236 1036.7 220.216V218.146C1036.37 218.722 1035.89 219.202 1035.26 219.586C1034.62 219.97 1033.88 220.162 1033.02 220.162C1032.15 220.162 1031.35 219.946 1030.63 219.514C1029.92 219.082 1029.36 218.476 1028.96 217.696C1028.55 216.916 1028.34 216.028 1028.34 215.032C1028.34 214.024 1028.55 213.142 1028.96 212.386C1029.36 211.618 1029.92 211.024 1030.63 210.604C1031.35 210.184 1032.15 209.974 1033.02 209.974ZM1036.7 215.05C1036.7 214.306 1036.55 213.658 1036.25 213.106C1035.95 212.554 1035.54 212.134 1035.02 211.846C1034.52 211.546 1033.96 211.396 1033.35 211.396C1032.74 211.396 1032.18 211.54 1031.67 211.828C1031.17 212.116 1030.77 212.536 1030.47 213.088C1030.17 213.64 1030.02 214.288 1030.02 215.032C1030.02 215.788 1030.17 216.448 1030.47 217.012C1030.77 217.564 1031.17 217.99 1031.67 218.29C1032.18 218.578 1032.74 218.722 1033.35 218.722C1033.96 218.722 1034.52 218.578 1035.02 218.29C1035.54 217.99 1035.95 217.564 1036.25 217.012C1036.55 216.448 1036.7 215.794 1036.7 215.05ZM1049.87 210.136V220H1048.23V218.542C1047.92 219.046 1047.48 219.442 1046.92 219.73C1046.36 220.006 1045.75 220.144 1045.08 220.144C1044.31 220.144 1043.62 219.988 1043.01 219.676C1042.4 219.352 1041.91 218.872 1041.55 218.236C1041.2 217.6 1041.03 216.826 1041.03 215.914V210.136H1042.65V215.698C1042.65 216.67 1042.9 217.42 1043.39 217.948C1043.88 218.464 1044.55 218.722 1045.4 218.722C1046.28 218.722 1046.97 218.452 1047.47 217.912C1047.98 217.372 1048.23 216.586 1048.23 215.554V210.136H1049.87ZM1064.5 209.956C1065.26 209.956 1065.95 210.118 1066.55 210.442C1067.15 210.754 1067.62 211.228 1067.97 211.864C1068.32 212.5 1068.49 213.274 1068.49 214.186V220H1066.87V214.42C1066.87 213.436 1066.63 212.686 1066.13 212.17C1065.65 211.642 1065 211.378 1064.17 211.378C1063.32 211.378 1062.64 211.654 1062.14 212.206C1061.63 212.746 1061.38 213.532 1061.38 214.564V220H1059.76V214.42C1059.76 213.436 1059.52 212.686 1059.02 212.17C1058.54 211.642 1057.89 211.378 1057.06 211.378C1056.21 211.378 1055.53 211.654 1055.03 212.206C1054.52 212.746 1054.27 213.532 1054.27 214.564V220H1052.63V210.136H1054.27V211.558C1054.6 211.042 1055.03 210.646 1055.57 210.37C1056.12 210.094 1056.73 209.956 1057.39 209.956C1058.21 209.956 1058.95 210.142 1059.58 210.514C1060.22 210.886 1060.69 211.432 1061 212.152C1061.28 211.456 1061.74 210.916 1062.37 210.532C1063.01 210.148 1063.72 209.956 1064.5 209.956ZM1079.93 210.136V220H1078.29V218.542C1077.98 219.046 1077.54 219.442 1076.97 219.73C1076.42 220.006 1075.81 220.144 1075.14 220.144C1074.37 220.144 1073.68 219.988 1073.07 219.676C1072.46 219.352 1071.97 218.872 1071.61 218.236C1071.26 217.6 1071.09 216.826 1071.09 215.914V210.136H1072.71V215.698C1072.71 216.67 1072.95 217.42 1073.45 217.948C1073.94 218.464 1074.61 218.722 1075.46 218.722C1076.34 218.722 1077.03 218.452 1077.53 217.912C1078.04 217.372 1078.29 216.586 1078.29 215.554V210.136H1079.93ZM1094.55 209.956C1095.32 209.956 1096.01 210.118 1096.61 210.442C1097.21 210.754 1097.68 211.228 1098.03 211.864C1098.38 212.5 1098.55 213.274 1098.55 214.186V220H1096.93V214.42C1096.93 213.436 1096.68 212.686 1096.19 212.17C1095.71 211.642 1095.06 211.378 1094.23 211.378C1093.38 211.378 1092.7 211.654 1092.2 212.206C1091.69 212.746 1091.44 213.532 1091.44 214.564V220H1089.82V214.42C1089.82 213.436 1089.57 212.686 1089.08 212.17C1088.6 211.642 1087.95 211.378 1087.12 211.378C1086.27 211.378 1085.59 211.654 1085.09 212.206C1084.58 212.746 1084.33 213.532 1084.33 214.564V220H1082.69V210.136H1084.33V211.558C1084.65 211.042 1085.09 210.646 1085.63 210.37C1086.18 210.094 1086.78 209.956 1087.44 209.956C1088.27 209.956 1089 210.142 1089.64 210.514C1090.28 210.886 1090.75 211.432 1091.06 212.152C1091.34 211.456 1091.79 210.916 1092.43 210.532C1093.07 210.148 1093.77 209.956 1094.55 209.956ZM1100.63 215.032C1100.63 214.024 1100.83 213.142 1101.24 212.386C1101.65 211.618 1102.2 211.024 1102.91 210.604C1103.63 210.184 1104.43 209.974 1105.31 209.974C1106.17 209.974 1106.92 210.16 1107.56 210.532C1108.19 210.904 1108.67 211.372 1108.98 211.936V210.136H1110.63V220H1108.98V218.164C1108.65 218.74 1108.17 219.22 1107.52 219.604C1106.88 219.976 1106.14 220.162 1105.29 220.162C1104.41 220.162 1103.62 219.946 1102.91 219.514C1102.2 219.082 1101.65 218.476 1101.24 217.696C1100.83 216.916 1100.63 216.028 1100.63 215.032ZM1108.98 215.05C1108.98 214.306 1108.83 213.658 1108.53 213.106C1108.23 212.554 1107.82 212.134 1107.3 211.846C1106.8 211.546 1106.24 211.396 1105.63 211.396C1105.02 211.396 1104.46 211.54 1103.96 211.828C1103.45 212.116 1103.05 212.536 1102.75 213.088C1102.45 213.64 1102.3 214.288 1102.3 215.032C1102.3 215.788 1102.45 216.448 1102.75 217.012C1103.05 217.564 1103.45 217.99 1103.96 218.29C1104.46 218.578 1105.02 218.722 1105.63 218.722C1106.24 218.722 1106.8 218.578 1107.3 218.29C1107.82 217.99 1108.23 217.564 1108.53 217.012C1108.83 216.448 1108.98 215.794 1108.98 215.05ZM1118.21 209.956C1119.41 209.956 1120.38 210.322 1121.12 211.054C1121.87 211.774 1122.24 212.818 1122.24 214.186V220H1120.62V214.42C1120.62 213.436 1120.37 212.686 1119.88 212.17C1119.39 211.642 1118.72 211.378 1117.87 211.378C1117 211.378 1116.31 211.648 1115.8 212.188C1115.29 212.728 1115.04 213.514 1115.04 214.546V220H1113.4V210.136H1115.04V211.54C1115.36 211.036 1115.8 210.646 1116.35 210.37C1116.92 210.094 1117.54 209.956 1118.21 209.956Z" fill="black"/>
</svg>
