<svg width="635" height="478" viewBox="0 0 635 478" fill="none" xmlns="http://www.w3.org/2000/svg">
<path d="M164.404 29.8519C166.394 27.0082 170.606 27.0082 172.596 29.8519L187.491 51.1305C188.605 52.7229 190.542 53.525 192.456 53.1871L218.034 48.6729C221.452 48.0697 224.43 51.0476 223.827 54.4658L219.313 80.0441C218.975 81.9582 219.777 83.8947 221.37 85.0093L242.648 99.9038C245.492 101.894 245.492 106.106 242.648 108.096L221.37 122.991C219.777 124.105 218.975 126.042 219.313 127.956L223.827 153.534C224.43 156.952 221.452 159.93 218.034 159.327L192.456 154.813C190.542 154.475 188.605 155.277 187.491 156.87L172.596 178.148C170.606 180.992 166.394 180.992 164.404 178.148L149.509 156.87C148.395 155.277 146.458 154.475 144.544 154.813L118.966 159.327C115.548 159.93 112.57 156.952 113.173 153.534L117.687 127.956C118.025 126.042 117.223 124.105 115.63 122.991L94.3519 108.096C91.5082 106.106 91.5082 101.894 94.3519 99.9038L115.63 85.0093C117.223 83.8947 118.025 81.9582 117.687 80.0441L113.173 54.4658C112.57 51.0476 115.548 48.0697 118.966 48.6729L144.544 53.1871C146.458 53.525 148.395 52.7229 149.509 51.1305L164.404 29.8519Z" fill="#F88312"/>
<path d="M154.387 97V94.912L161.059 88.576C161.619 88.048 162.035 87.584 162.307 87.184C162.579 86.784 162.755 86.416 162.835 86.08C162.931 85.728 162.979 85.4 162.979 85.096C162.979 84.328 162.715 83.736 162.187 83.32C161.659 82.888 160.883 82.672 159.859 82.672C159.043 82.672 158.299 82.816 157.627 83.104C156.971 83.392 156.403 83.832 155.923 84.424L153.739 82.744C154.395 81.864 155.275 81.184 156.379 80.704C157.499 80.208 158.747 79.96 160.123 79.96C161.339 79.96 162.395 80.16 163.291 80.56C164.203 80.944 164.899 81.496 165.379 82.216C165.875 82.936 166.123 83.792 166.123 84.784C166.123 85.328 166.051 85.872 165.907 86.416C165.763 86.944 165.491 87.504 165.091 88.096C164.691 88.688 164.107 89.352 163.339 90.088L157.603 95.536L156.955 94.36H166.771V97H154.387ZM167.98 93.184V91.024L176.26 80.2H179.596L171.436 91.024L169.876 90.544H183.196V93.184H167.98ZM177.196 97V93.184L177.292 90.544V87.16H180.22V97H177.196ZM144.084 127V110.2H151.428C153.252 110.2 154.852 110.552 156.228 111.256C157.604 111.96 158.676 112.936 159.444 114.184C160.212 115.432 160.596 116.904 160.596 118.6C160.596 120.28 160.212 121.752 159.444 123.016C158.676 124.264 157.604 125.24 156.228 125.944C154.852 126.648 153.252 127 151.428 127H144.084ZM147.204 124.36H151.284C152.548 124.36 153.636 124.12 154.548 123.64C155.476 123.16 156.188 122.488 156.684 121.624C157.196 120.76 157.452 119.752 157.452 118.6C157.452 117.432 157.196 116.424 156.684 115.576C156.188 114.712 155.476 114.04 154.548 113.56C153.636 113.08 152.548 112.84 151.284 112.84H147.204V124.36ZM166.792 117.184H175.144V119.752H166.792V117.184ZM167.032 124.384H176.512V127H163.912V110.2H176.176V112.816H167.032V124.384ZM187.766 127.24C186.486 127.24 185.294 127.032 184.19 126.616C183.102 126.184 182.15 125.584 181.334 124.816C180.534 124.032 179.91 123.112 179.462 122.056C179.014 121 178.79 119.848 178.79 118.6C178.79 117.352 179.014 116.2 179.462 115.144C179.91 114.088 180.542 113.176 181.358 112.408C182.174 111.624 183.126 111.024 184.214 110.608C185.302 110.176 186.494 109.96 187.79 109.96C189.166 109.96 190.422 110.2 191.558 110.68C192.694 111.144 193.654 111.84 194.438 112.768L192.422 114.664C191.814 114.008 191.134 113.52 190.382 113.2C189.63 112.864 188.814 112.696 187.934 112.696C187.054 112.696 186.246 112.84 185.51 113.128C184.79 113.416 184.158 113.824 183.614 114.352C183.086 114.88 182.67 115.504 182.366 116.224C182.078 116.944 181.934 117.736 181.934 118.6C181.934 119.464 182.078 120.256 182.366 120.976C182.67 121.696 183.086 122.32 183.614 122.848C184.158 123.376 184.79 123.784 185.51 124.072C186.246 124.36 187.054 124.504 187.934 124.504C188.814 124.504 189.63 124.344 190.382 124.024C191.134 123.688 191.814 123.184 192.422 122.512L194.438 124.432C193.654 125.344 192.694 126.04 191.558 126.52C190.422 127 189.158 127.24 187.766 127.24Z" fill="white"/>
<path d="M122.042 211.126C122.042 212.17 121.682 213.04 120.962 213.736C120.254 214.42 119.168 214.762 117.704 214.762H115.292V220H113.654V207.454H117.704C119.12 207.454 120.194 207.796 120.926 208.48C121.67 209.164 122.042 210.046 122.042 211.126ZM117.704 213.412C118.616 213.412 119.288 213.214 119.72 212.818C120.152 212.422 120.368 211.858 120.368 211.126C120.368 209.578 119.48 208.804 117.704 208.804H115.292V213.412H117.704ZM133.077 214.69C133.077 215.002 133.059 215.332 133.023 215.68H125.139C125.199 216.652 125.529 217.414 126.129 217.966C126.741 218.506 127.479 218.776 128.343 218.776C129.051 218.776 129.639 218.614 130.107 218.29C130.587 217.954 130.923 217.51 131.115 216.958H132.879C132.615 217.906 132.087 218.68 131.295 219.28C130.503 219.868 129.519 220.162 128.343 220.162C127.407 220.162 126.567 219.952 125.823 219.532C125.091 219.112 124.515 218.518 124.095 217.75C123.675 216.97 123.465 216.07 123.465 215.05C123.465 214.03 123.669 213.136 124.077 212.368C124.485 211.6 125.055 211.012 125.787 210.604C126.531 210.184 127.383 209.974 128.343 209.974C129.279 209.974 130.107 210.178 130.827 210.586C131.547 210.994 132.099 211.558 132.483 212.278C132.879 212.986 133.077 213.79 133.077 214.69ZM131.385 214.348C131.385 213.724 131.247 213.19 130.971 212.746C130.695 212.29 130.317 211.948 129.837 211.72C129.369 211.48 128.847 211.36 128.271 211.36C127.443 211.36 126.735 211.624 126.147 212.152C125.571 212.68 125.241 213.412 125.157 214.348H131.385ZM140.046 209.956C141.246 209.956 142.218 210.322 142.962 211.054C143.706 211.774 144.078 212.818 144.078 214.186V220H142.458V214.42C142.458 213.436 142.212 212.686 141.72 212.17C141.228 211.642 140.556 211.378 139.704 211.378C138.84 211.378 138.15 211.648 137.634 212.188C137.13 212.728 136.878 213.514 136.878 214.546V220H135.24V210.136H136.878V211.54C137.202 211.036 137.64 210.646 138.192 210.37C138.756 210.094 139.374 209.956 140.046 209.956ZM146.141 215.032C146.141 214.024 146.345 213.142 146.753 212.386C147.161 211.618 147.719 211.024 148.427 210.604C149.147 210.184 149.951 209.974 150.839 209.974C151.607 209.974 152.321 210.154 152.981 210.514C153.641 210.862 154.145 211.324 154.493 211.9V206.68H156.149V220H154.493V218.146C154.169 218.734 153.689 219.22 153.053 219.604C152.417 219.976 151.673 220.162 150.821 220.162C149.945 220.162 149.147 219.946 148.427 219.514C147.719 219.082 147.161 218.476 146.753 217.696C146.345 216.916 146.141 216.028 146.141 215.032ZM154.493 215.05C154.493 214.306 154.343 213.658 154.043 213.106C153.743 212.554 153.335 212.134 152.819 211.846C152.315 211.546 151.757 211.396 151.145 211.396C150.533 211.396 149.975 211.54 149.471 211.828C148.967 212.116 148.565 212.536 148.265 213.088C147.965 213.64 147.815 214.288 147.815 215.032C147.815 215.788 147.965 216.448 148.265 217.012C148.565 217.564 148.967 217.99 149.471 218.29C149.975 218.578 150.533 218.722 151.145 218.722C151.757 218.722 152.315 218.578 152.819 218.29C153.335 217.99 153.743 217.564 154.043 217.012C154.343 216.448 154.493 215.794 154.493 215.05ZM158.305 215.032C158.305 214.024 158.509 213.142 158.917 212.386C159.325 211.618 159.883 211.024 160.591 210.604C161.311 210.184 162.109 209.974 162.985 209.974C163.849 209.974 164.599 210.16 165.235 210.532C165.871 210.904 166.345 211.372 166.657 211.936V210.136H168.313V220H166.657V218.164C166.333 218.74 165.847 219.22 165.199 219.604C164.563 219.976 163.819 220.162 162.967 220.162C162.091 220.162 161.299 219.946 160.591 219.514C159.883 219.082 159.325 218.476 158.917 217.696C158.509 216.916 158.305 216.028 158.305 215.032ZM166.657 215.05C166.657 214.306 166.507 213.658 166.207 213.106C165.907 212.554 165.499 212.134 164.983 211.846C164.479 211.546 163.921 211.396 163.309 211.396C162.697 211.396 162.139 211.54 161.635 211.828C161.131 212.116 160.729 212.536 160.429 213.088C160.129 213.64 159.979 214.288 159.979 215.032C159.979 215.788 160.129 216.448 160.429 217.012C160.729 217.564 161.131 217.99 161.635 218.29C162.139 218.578 162.697 218.722 163.309 218.722C163.921 218.722 164.479 218.578 164.983 218.29C165.499 217.99 165.907 217.564 166.207 217.012C166.507 216.448 166.657 215.794 166.657 215.05ZM175.095 211.486H173.025V220H171.387V211.486H170.109V210.136H171.387V209.434C171.387 208.33 171.669 207.526 172.233 207.022C172.809 206.506 173.727 206.248 174.987 206.248V207.616C174.267 207.616 173.757 207.76 173.457 208.048C173.169 208.324 173.025 208.786 173.025 209.434V210.136H175.095V211.486ZM179.003 211.486V217.3C179.003 217.78 179.105 218.122 179.309 218.326C179.513 218.518 179.867 218.614 180.371 218.614H181.577V220H180.101C179.189 220 178.505 219.79 178.049 219.37C177.593 218.95 177.365 218.26 177.365 217.3V211.486H176.087V210.136H177.365V207.652H179.003V210.136H181.577V211.486H179.003ZM182.95 215.032C182.95 214.024 183.154 213.142 183.562 212.386C183.97 211.618 184.528 211.024 185.236 210.604C185.956 210.184 186.754 209.974 187.63 209.974C188.494 209.974 189.244 210.16 189.88 210.532C190.516 210.904 190.99 211.372 191.302 211.936V210.136H192.958V220H191.302V218.164C190.978 218.74 190.492 219.22 189.844 219.604C189.208 219.976 188.464 220.162 187.612 220.162C186.736 220.162 185.944 219.946 185.236 219.514C184.528 219.082 183.97 218.476 183.562 217.696C183.154 216.916 182.95 216.028 182.95 215.032ZM191.302 215.05C191.302 214.306 191.152 213.658 190.852 213.106C190.552 212.554 190.144 212.134 189.628 211.846C189.124 211.546 188.566 211.396 187.954 211.396C187.342 211.396 186.784 211.54 186.28 211.828C185.776 212.116 185.374 212.536 185.074 213.088C184.774 213.64 184.624 214.288 184.624 215.032C184.624 215.788 184.774 216.448 185.074 217.012C185.374 217.564 185.776 217.99 186.28 218.29C186.784 218.578 187.342 218.722 187.954 218.722C188.566 218.722 189.124 218.578 189.628 218.29C190.144 217.99 190.552 217.564 190.852 217.012C191.152 216.448 191.302 215.794 191.302 215.05ZM197.364 211.738C197.652 211.174 198.06 210.736 198.588 210.424C199.128 210.112 199.782 209.956 200.55 209.956V211.648H200.118C198.282 211.648 197.364 212.644 197.364 214.636V220H195.726V210.136H197.364V211.738ZM201.829 215.032C201.829 214.024 202.033 213.142 202.441 212.386C202.849 211.618 203.407 211.024 204.115 210.604C204.835 210.184 205.633 209.974 206.509 209.974C207.373 209.974 208.123 210.16 208.759 210.532C209.395 210.904 209.869 211.372 210.181 211.936V210.136H211.837V220H210.181V218.164C209.857 218.74 209.371 219.22 208.723 219.604C208.087 219.976 207.343 220.162 206.491 220.162C205.615 220.162 204.823 219.946 204.115 219.514C203.407 219.082 202.849 218.476 202.441 217.696C202.033 216.916 201.829 216.028 201.829 215.032ZM210.181 215.05C210.181 214.306 210.031 213.658 209.731 213.106C209.431 212.554 209.023 212.134 208.507 211.846C208.003 211.546 207.445 211.396 206.833 211.396C206.221 211.396 205.663 211.54 205.159 211.828C204.655 212.116 204.253 212.536 203.953 213.088C203.653 213.64 203.503 214.288 203.503 215.032C203.503 215.788 203.653 216.448 203.953 217.012C204.253 217.564 204.655 217.99 205.159 218.29C205.663 218.578 206.221 218.722 206.833 218.722C207.445 218.722 208.003 218.578 208.507 218.29C209.023 217.99 209.431 217.564 209.731 217.012C210.031 216.448 210.181 215.794 210.181 215.05ZM219.411 209.956C220.611 209.956 221.583 210.322 222.327 211.054C223.071 211.774 223.443 212.818 223.443 214.186V220H221.823V214.42C221.823 213.436 221.577 212.686 221.085 212.17C220.593 211.642 219.921 211.378 219.069 211.378C218.205 211.378 217.515 211.648 216.999 212.188C216.495 212.728 216.243 213.514 216.243 214.546V220H214.605V210.136H216.243V211.54C216.567 211.036 217.005 210.646 217.557 210.37C218.121 210.094 218.739 209.956 219.411 209.956Z" fill="black"/>
<path d="M272.5 125.5H362.5" stroke="#F88312" stroke-width="12" stroke-linecap="round"/>
<path d="M462.404 29.8519C464.394 27.0082 468.606 27.0082 470.596 29.8519L485.491 51.1305C486.605 52.7229 488.542 53.525 490.456 53.1871L516.034 48.6729C519.452 48.0697 522.43 51.0476 521.827 54.4658L517.313 80.0441C516.975 81.9582 517.777 83.8947 519.37 85.0093L540.648 99.9038C543.492 101.894 543.492 106.106 540.648 108.096L519.37 122.991C517.777 124.105 516.975 126.042 517.313 127.956L521.827 153.534C522.43 156.952 519.452 159.93 516.034 159.327L490.456 154.813C488.542 154.475 486.605 155.277 485.491 156.87L470.596 178.148C468.606 180.992 464.394 180.992 462.404 178.148L447.509 156.87C446.395 155.277 444.458 154.475 442.544 154.813L416.966 159.327C413.548 159.93 410.57 156.952 411.173 153.534L415.687 127.956C416.025 126.042 415.223 124.105 413.63 122.991L392.352 108.096C389.508 106.106 389.508 101.894 392.352 99.9038L413.63 85.0093C415.223 83.8947 416.025 81.9582 415.687 80.0441L411.173 54.4658C410.57 51.0476 413.548 48.0697 416.966 48.6729L442.544 53.1871C444.458 53.525 446.395 52.7229 447.509 51.1305L462.404 29.8519Z" fill="#F88312"/>
<path d="M457.777 97.24C456.593 97.24 455.433 97.072 454.297 96.736C453.177 96.384 452.233 95.904 451.465 95.296L452.809 92.872C453.417 93.368 454.153 93.768 455.017 94.072C455.881 94.376 456.785 94.528 457.729 94.528C458.849 94.528 459.721 94.304 460.345 93.856C460.969 93.392 461.281 92.768 461.281 91.984C461.281 91.216 460.993 90.608 460.417 90.16C459.841 89.712 458.913 89.488 457.633 89.488H456.097V87.352L460.897 81.64L461.305 82.816H452.281V80.2H463.729V82.288L458.929 88L457.297 87.04H458.233C460.297 87.04 461.841 87.504 462.865 88.432C463.905 89.344 464.425 90.52 464.425 91.96C464.425 92.904 464.185 93.776 463.705 94.576C463.225 95.376 462.489 96.024 461.497 96.52C460.521 97 459.281 97.24 457.777 97.24ZM473.474 97.24C472.146 97.24 470.946 96.904 469.874 96.232C468.818 95.56 467.986 94.584 467.378 93.304C466.77 92.008 466.466 90.44 466.466 88.6C466.466 86.76 466.77 85.2 467.378 83.92C467.986 82.624 468.818 81.64 469.874 80.968C470.946 80.296 472.146 79.96 473.474 79.96C474.818 79.96 476.018 80.296 477.074 80.968C478.13 81.64 478.962 82.624 479.57 83.92C480.194 85.2 480.506 86.76 480.506 88.6C480.506 90.44 480.194 92.008 479.57 93.304C478.962 94.584 478.13 95.56 477.074 96.232C476.018 96.904 474.818 97.24 473.474 97.24ZM473.474 94.528C474.258 94.528 474.938 94.32 475.514 93.904C476.09 93.472 476.538 92.816 476.858 91.936C477.194 91.056 477.362 89.944 477.362 88.6C477.362 87.24 477.194 86.128 476.858 85.264C476.538 84.384 476.09 83.736 475.514 83.32C474.938 82.888 474.258 82.672 473.474 82.672C472.722 82.672 472.05 82.888 471.458 83.32C470.882 83.736 470.426 84.384 470.09 85.264C469.77 86.128 469.61 87.24 469.61 88.6C469.61 89.944 469.77 91.056 470.09 91.936C470.426 92.816 470.882 93.472 471.458 93.904C472.05 94.32 472.722 94.528 473.474 94.528ZM442.084 127V110.2H449.428C451.252 110.2 452.852 110.552 454.228 111.256C455.604 111.96 456.676 112.936 457.444 114.184C458.212 115.432 458.596 116.904 458.596 118.6C458.596 120.28 458.212 121.752 457.444 123.016C456.676 124.264 455.604 125.24 454.228 125.944C452.852 126.648 451.252 127 449.428 127H442.084ZM445.204 124.36H449.284C450.548 124.36 451.636 124.12 452.548 123.64C453.476 123.16 454.188 122.488 454.684 121.624C455.196 120.76 455.452 119.752 455.452 118.6C455.452 117.432 455.196 116.424 454.684 115.576C454.188 114.712 453.476 114.04 452.548 113.56C451.636 113.08 450.548 112.84 449.284 112.84H445.204V124.36ZM464.792 117.184H473.144V119.752H464.792V117.184ZM465.032 124.384H474.512V127H461.912V110.2H474.176V112.816H465.032V124.384ZM485.766 127.24C484.486 127.24 483.294 127.032 482.19 126.616C481.102 126.184 480.15 125.584 479.334 124.816C478.534 124.032 477.91 123.112 477.462 122.056C477.014 121 476.79 119.848 476.79 118.6C476.79 117.352 477.014 116.2 477.462 115.144C477.91 114.088 478.542 113.176 479.358 112.408C480.174 111.624 481.126 111.024 482.214 110.608C483.302 110.176 484.494 109.96 485.79 109.96C487.166 109.96 488.422 110.2 489.558 110.68C490.694 111.144 491.654 111.84 492.438 112.768L490.422 114.664C489.814 114.008 489.134 113.52 488.382 113.2C487.63 112.864 486.814 112.696 485.934 112.696C485.054 112.696 484.246 112.84 483.51 113.128C482.79 113.416 482.158 113.824 481.614 114.352C481.086 114.88 480.67 115.504 480.366 116.224C480.078 116.944 479.934 117.736 479.934 118.6C479.934 119.464 480.078 120.256 480.366 120.976C480.67 121.696 481.086 122.32 481.614 122.848C482.158 123.376 482.79 123.784 483.51 124.072C484.246 124.36 485.054 124.504 485.934 124.504C486.814 124.504 487.63 124.344 488.382 124.024C489.134 123.688 489.814 123.184 490.422 122.512L492.438 124.432C491.654 125.344 490.694 126.04 489.558 126.52C488.422 127 487.158 127.24 485.766 127.24Z" fill="white"/>
<path d="M393.895 207.454C395.263 207.454 396.445 207.712 397.441 208.228C398.449 208.732 399.217 209.458 399.745 210.406C400.285 211.354 400.555 212.47 400.555 213.754C400.555 215.038 400.285 216.154 399.745 217.102C399.217 218.038 398.449 218.758 397.441 219.262C396.445 219.754 395.263 220 393.895 220H389.989V207.454H393.895ZM393.895 218.65C395.515 218.65 396.751 218.224 397.603 217.372C398.455 216.508 398.881 215.302 398.881 213.754C398.881 212.194 398.449 210.976 397.585 210.1C396.733 209.224 395.503 208.786 393.895 208.786H391.627V218.65H393.895ZM411.715 214.69C411.715 215.002 411.697 215.332 411.661 215.68H403.777C403.837 216.652 404.167 217.414 404.767 217.966C405.379 218.506 406.117 218.776 406.981 218.776C407.689 218.776 408.277 218.614 408.745 218.29C409.225 217.954 409.561 217.51 409.753 216.958H411.517C411.253 217.906 410.725 218.68 409.933 219.28C409.141 219.868 408.157 220.162 406.981 220.162C406.045 220.162 405.205 219.952 404.461 219.532C403.729 219.112 403.153 218.518 402.733 217.75C402.313 216.97 402.103 216.07 402.103 215.05C402.103 214.03 402.307 213.136 402.715 212.368C403.123 211.6 403.693 211.012 404.425 210.604C405.169 210.184 406.021 209.974 406.981 209.974C407.917 209.974 408.745 210.178 409.465 210.586C410.185 210.994 410.737 211.558 411.121 212.278C411.517 212.986 411.715 213.79 411.715 214.69ZM410.023 214.348C410.023 213.724 409.885 213.19 409.609 212.746C409.333 212.29 408.955 211.948 408.475 211.72C408.007 211.48 407.485 211.36 406.909 211.36C406.081 211.36 405.373 211.624 404.785 212.152C404.209 212.68 403.879 213.412 403.795 214.348H410.023ZM415.515 211.972C415.851 211.384 416.343 210.904 416.991 210.532C417.639 210.16 418.377 209.974 419.205 209.974C420.093 209.974 420.891 210.184 421.599 210.604C422.307 211.024 422.865 211.618 423.273 212.386C423.681 213.142 423.885 214.024 423.885 215.032C423.885 216.028 423.681 216.916 423.273 217.696C422.865 218.476 422.301 219.082 421.581 219.514C420.873 219.946 420.081 220.162 419.205 220.162C418.353 220.162 417.603 219.976 416.955 219.604C416.319 219.232 415.839 218.758 415.515 218.182V220H413.877V206.68H415.515V211.972ZM422.211 215.032C422.211 214.288 422.061 213.64 421.761 213.088C421.461 212.536 421.053 212.116 420.537 211.828C420.033 211.54 419.475 211.396 418.863 211.396C418.263 211.396 417.705 211.546 417.189 211.846C416.685 212.134 416.277 212.56 415.965 213.124C415.665 213.676 415.515 214.318 415.515 215.05C415.515 215.794 415.665 216.448 415.965 217.012C416.277 217.564 416.685 217.99 417.189 218.29C417.705 218.578 418.263 218.722 418.863 218.722C419.475 218.722 420.033 218.578 420.537 218.29C421.053 217.99 421.461 217.564 421.761 217.012C422.061 216.448 422.211 215.788 422.211 215.032ZM425.429 215.032C425.429 214.024 425.633 213.142 426.041 212.386C426.449 211.618 427.007 211.024 427.715 210.604C428.435 210.184 429.233 209.974 430.109 209.974C430.973 209.974 431.723 210.16 432.359 210.532C432.995 210.904 433.469 211.372 433.781 211.936V210.136H435.437V220H433.781V218.164C433.457 218.74 432.971 219.22 432.323 219.604C431.687 219.976 430.943 220.162 430.091 220.162C429.215 220.162 428.423 219.946 427.715 219.514C427.007 219.082 426.449 218.476 426.041 217.696C425.633 216.916 425.429 216.028 425.429 215.032ZM433.781 215.05C433.781 214.306 433.631 213.658 433.331 213.106C433.031 212.554 432.623 212.134 432.107 211.846C431.603 211.546 431.045 211.396 430.433 211.396C429.821 211.396 429.263 211.54 428.759 211.828C428.255 212.116 427.853 212.536 427.553 213.088C427.253 213.64 427.103 214.288 427.103 215.032C427.103 215.788 427.253 216.448 427.553 217.012C427.853 217.564 428.255 217.99 428.759 218.29C429.263 218.578 429.821 218.722 430.433 218.722C431.045 218.722 431.603 218.578 432.107 218.29C432.623 217.99 433.031 217.564 433.331 217.012C433.631 216.448 433.781 215.794 433.781 215.05ZM440.203 211.486V217.3C440.203 217.78 440.305 218.122 440.509 218.326C440.713 218.518 441.067 218.614 441.571 218.614H442.777V220H441.301C440.389 220 439.705 219.79 439.249 219.37C438.793 218.95 438.565 218.26 438.565 217.3V211.486H437.287V210.136H438.565V207.652H440.203V210.136H442.777V211.486H440.203ZM448.949 213.718C448.949 212.494 449.225 211.396 449.777 210.424C450.329 209.44 451.079 208.672 452.027 208.12C452.987 207.568 454.049 207.292 455.213 207.292C456.581 207.292 457.775 207.622 458.795 208.282C459.815 208.942 460.559 209.878 461.027 211.09H459.065C458.717 210.334 458.213 209.752 457.553 209.344C456.905 208.936 456.125 208.732 455.213 208.732C454.337 208.732 453.551 208.936 452.855 209.344C452.159 209.752 451.613 210.334 451.217 211.09C450.821 211.834 450.623 212.71 450.623 213.718C450.623 214.714 450.821 215.59 451.217 216.346C451.613 217.09 452.159 217.666 452.855 218.074C453.551 218.482 454.337 218.686 455.213 218.686C456.125 218.686 456.905 218.488 457.553 218.092C458.213 217.684 458.717 217.102 459.065 216.346H461.027C460.559 217.546 459.815 218.476 458.795 219.136C457.775 219.784 456.581 220.108 455.213 220.108C454.049 220.108 452.987 219.838 452.027 219.298C451.079 218.746 450.329 217.984 449.777 217.012C449.225 216.04 448.949 214.942 448.949 213.718ZM462.853 215.032C462.853 214.024 463.057 213.142 463.465 212.386C463.873 211.618 464.431 211.024 465.139 210.604C465.859 210.184 466.657 209.974 467.533 209.974C468.397 209.974 469.147 210.16 469.783 210.532C470.419 210.904 470.893 211.372 471.205 211.936V210.136H472.861V220H471.205V218.164C470.881 218.74 470.395 219.22 469.747 219.604C469.111 219.976 468.367 220.162 467.515 220.162C466.639 220.162 465.847 219.946 465.139 219.514C464.431 219.082 463.873 218.476 463.465 217.696C463.057 216.916 462.853 216.028 462.853 215.032ZM471.205 215.05C471.205 214.306 471.055 213.658 470.755 213.106C470.455 212.554 470.047 212.134 469.531 211.846C469.027 211.546 468.469 211.396 467.857 211.396C467.245 211.396 466.687 211.54 466.183 211.828C465.679 212.116 465.277 212.536 464.977 213.088C464.677 213.64 464.527 214.288 464.527 215.032C464.527 215.788 464.677 216.448 464.977 217.012C465.277 217.564 465.679 217.99 466.183 218.29C466.687 218.578 467.245 218.722 467.857 218.722C468.469 218.722 469.027 218.578 469.531 218.29C470.047 217.99 470.455 217.564 470.755 217.012C471.055 216.448 471.205 215.794 471.205 215.05ZM477.267 211.954C477.591 211.39 478.071 210.922 478.707 210.55C479.355 210.166 480.105 209.974 480.957 209.974C481.833 209.974 482.625 210.184 483.333 210.604C484.053 211.024 484.617 211.618 485.025 212.386C485.433 213.142 485.637 214.024 485.637 215.032C485.637 216.028 485.433 216.916 485.025 217.696C484.617 218.476 484.053 219.082 483.333 219.514C482.625 219.946 481.833 220.162 480.957 220.162C480.117 220.162 479.373 219.976 478.725 219.604C478.089 219.22 477.603 218.746 477.267 218.182V224.68H475.629V210.136H477.267V211.954ZM483.963 215.032C483.963 214.288 483.813 213.64 483.513 213.088C483.213 212.536 482.805 212.116 482.289 211.828C481.785 211.54 481.227 211.396 480.615 211.396C480.015 211.396 479.457 211.546 478.941 211.846C478.437 212.134 478.029 212.56 477.717 213.124C477.417 213.676 477.267 214.318 477.267 215.05C477.267 215.794 477.417 216.448 477.717 217.012C478.029 217.564 478.437 217.99 478.941 218.29C479.457 218.578 480.015 218.722 480.615 218.722C481.227 218.722 481.785 218.578 482.289 218.29C482.805 217.99 483.213 217.564 483.513 217.012C483.813 216.448 483.963 215.788 483.963 215.032ZM489.431 211.738C489.719 211.174 490.127 210.736 490.655 210.424C491.195 210.112 491.849 209.956 492.617 209.956V211.648H492.185C490.349 211.648 489.431 212.644 489.431 214.636V220H487.793V210.136H489.431V211.738ZM503.508 214.69C503.508 215.002 503.49 215.332 503.454 215.68H495.57C495.63 216.652 495.96 217.414 496.56 217.966C497.172 218.506 497.91 218.776 498.774 218.776C499.482 218.776 500.07 218.614 500.538 218.29C501.018 217.954 501.354 217.51 501.546 216.958H503.31C503.046 217.906 502.518 218.68 501.726 219.28C500.934 219.868 499.95 220.162 498.774 220.162C497.838 220.162 496.998 219.952 496.254 219.532C495.522 219.112 494.946 218.518 494.526 217.75C494.106 216.97 493.896 216.07 493.896 215.05C493.896 214.03 494.1 213.136 494.508 212.368C494.916 211.6 495.486 211.012 496.218 210.604C496.962 210.184 497.814 209.974 498.774 209.974C499.71 209.974 500.538 210.178 501.258 210.586C501.978 210.994 502.53 211.558 502.914 212.278C503.31 212.986 503.508 213.79 503.508 214.69ZM501.816 214.348C501.816 213.724 501.678 213.19 501.402 212.746C501.126 212.29 500.748 211.948 500.268 211.72C499.8 211.48 499.278 211.36 498.702 211.36C497.874 211.36 497.166 211.624 496.578 212.152C496.002 212.68 495.672 213.412 495.588 214.348H501.816ZM509.162 220.162C508.406 220.162 507.728 220.036 507.128 219.784C506.528 219.52 506.054 219.16 505.706 218.704C505.358 218.236 505.166 217.702 505.13 217.102H506.822C506.87 217.594 507.098 217.996 507.506 218.308C507.926 218.62 508.472 218.776 509.144 218.776C509.768 218.776 510.26 218.638 510.62 218.362C510.98 218.086 511.16 217.738 511.16 217.318C511.16 216.886 510.968 216.568 510.584 216.364C510.2 216.148 509.606 215.938 508.802 215.734C508.07 215.542 507.47 215.35 507.002 215.158C506.546 214.954 506.15 214.66 505.814 214.276C505.49 213.88 505.328 213.364 505.328 212.728C505.328 212.224 505.478 211.762 505.778 211.342C506.078 210.922 506.504 210.592 507.056 210.352C507.608 210.1 508.238 209.974 508.946 209.974C510.038 209.974 510.92 210.25 511.592 210.802C512.264 211.354 512.624 212.11 512.672 213.07H511.034C510.998 212.554 510.788 212.14 510.404 211.828C510.032 211.516 509.528 211.36 508.892 211.36C508.304 211.36 507.836 211.486 507.488 211.738C507.14 211.99 506.966 212.32 506.966 212.728C506.966 213.052 507.068 213.322 507.272 213.538C507.488 213.742 507.752 213.91 508.064 214.042C508.388 214.162 508.832 214.3 509.396 214.456C510.104 214.648 510.68 214.84 511.124 215.032C511.568 215.212 511.946 215.488 512.258 215.86C512.582 216.232 512.75 216.718 512.762 217.318C512.762 217.858 512.612 218.344 512.312 218.776C512.012 219.208 511.586 219.55 511.034 219.802C510.494 220.042 509.87 220.162 509.162 220.162ZM526.936 209.956C527.704 209.956 528.388 210.118 528.988 210.442C529.588 210.754 530.062 211.228 530.41 211.864C530.758 212.5 530.932 213.274 530.932 214.186V220H529.312V214.42C529.312 213.436 529.066 212.686 528.574 212.17C528.094 211.642 527.44 211.378 526.612 211.378C525.76 211.378 525.082 211.654 524.578 212.206C524.074 212.746 523.822 213.532 523.822 214.564V220H522.202V214.42C522.202 213.436 521.956 212.686 521.464 212.17C520.984 211.642 520.33 211.378 519.502 211.378C518.65 211.378 517.972 211.654 517.468 212.206C516.964 212.746 516.712 213.532 516.712 214.564V220H515.074V210.136H516.712V211.558C517.036 211.042 517.468 210.646 518.008 210.37C518.56 210.094 519.166 209.956 519.826 209.956C520.654 209.956 521.386 210.142 522.022 210.514C522.658 210.886 523.132 211.432 523.444 212.152C523.72 211.456 524.176 210.916 524.812 210.532C525.448 210.148 526.156 209.956 526.936 209.956ZM533.007 215.032C533.007 214.024 533.211 213.142 533.619 212.386C534.027 211.618 534.585 211.024 535.293 210.604C536.013 210.184 536.811 209.974 537.687 209.974C538.551 209.974 539.301 210.16 539.937 210.532C540.573 210.904 541.047 211.372 541.359 211.936V210.136H543.015V220H541.359V218.164C541.035 218.74 540.549 219.22 539.901 219.604C539.265 219.976 538.521 220.162 537.669 220.162C536.793 220.162 536.001 219.946 535.293 219.514C534.585 219.082 534.027 218.476 533.619 217.696C533.211 216.916 533.007 216.028 533.007 215.032ZM541.359 215.05C541.359 214.306 541.209 213.658 540.909 213.106C540.609 212.554 540.201 212.134 539.685 211.846C539.181 211.546 538.623 211.396 538.011 211.396C537.399 211.396 536.841 211.54 536.337 211.828C535.833 212.116 535.431 212.536 535.131 213.088C534.831 213.64 534.681 214.288 534.681 215.032C534.681 215.788 534.831 216.448 535.131 217.012C535.431 217.564 535.833 217.99 536.337 218.29C536.841 218.578 537.399 218.722 538.011 218.722C538.623 218.722 539.181 218.578 539.685 218.29C540.201 217.99 540.609 217.564 540.909 217.012C541.209 216.448 541.359 215.794 541.359 215.05Z" fill="black"/>
<path d="M164.404 256.852C166.394 254.008 170.606 254.008 172.596 256.852L187.491 278.13C188.605 279.723 190.542 280.525 192.456 280.187L218.034 275.673C221.452 275.07 224.43 278.048 223.827 281.466L219.313 307.044C218.975 308.958 219.777 310.895 221.37 312.009L242.648 326.904C245.492 328.894 245.492 333.106 242.648 335.096L221.37 349.991C219.777 351.105 218.975 353.042 219.313 354.956L223.827 380.534C224.43 383.952 221.452 386.93 218.034 386.327L192.456 381.813C190.542 381.475 188.605 382.277 187.491 383.87L172.596 405.148C170.606 407.992 166.394 407.992 164.404 405.148L149.509 383.87C148.395 382.277 146.458 381.475 144.544 381.813L118.966 386.327C115.548 386.93 112.57 383.952 113.173 380.534L117.687 354.956C118.025 353.042 117.223 351.105 115.63 349.991L94.3519 335.096C91.5082 333.106 91.5082 328.894 94.3519 326.904L115.63 312.009C117.223 310.895 118.025 308.958 117.687 307.044L113.173 281.466C112.57 278.048 115.548 275.07 118.966 275.673L144.544 280.187C146.458 280.525 148.395 279.723 149.509 278.13L164.404 256.852Z" fill="#F88312"/>
<path d="M162.356 324V321.912L169.028 315.576C169.588 315.048 170.004 314.584 170.276 314.184C170.548 313.784 170.724 313.416 170.804 313.08C170.9 312.728 170.948 312.4 170.948 312.096C170.948 311.328 170.684 310.736 170.156 310.32C169.628 309.888 168.852 309.672 167.828 309.672C167.012 309.672 166.268 309.816 165.596 310.104C164.94 310.392 164.372 310.832 163.892 311.424L161.708 309.744C162.364 308.864 163.244 308.184 164.348 307.704C165.468 307.208 166.716 306.96 168.092 306.96C169.308 306.96 170.364 307.16 171.26 307.56C172.172 307.944 172.868 308.496 173.348 309.216C173.844 309.936 174.092 310.792 174.092 311.784C174.092 312.328 174.02 312.872 173.876 313.416C173.732 313.944 173.46 314.504 173.06 315.096C172.66 315.688 172.076 316.352 171.308 317.088L165.572 322.536L164.924 321.36H174.74V324H162.356ZM148.517 354.24C147.445 354.24 146.453 354.032 145.541 353.616C144.645 353.2 143.909 352.6 143.333 351.816L145.109 349.68C145.573 350.32 146.077 350.8 146.621 351.12C147.181 351.44 147.789 351.6 148.445 351.6C150.189 351.6 151.061 350.568 151.061 348.504V339.816H145.085V337.2H154.181V348.336C154.181 350.32 153.693 351.8 152.717 352.776C151.757 353.752 150.357 354.24 148.517 354.24ZM155.829 354L163.389 337.2H166.461L174.045 354H170.781L164.277 338.856H165.525L159.045 354H155.829ZM159.309 350.112L160.149 347.664H169.221L170.061 350.112H159.309ZM176.182 354V337.2H178.75L189.286 350.136H188.014V337.2H191.11V354H188.542L178.006 341.064H179.278V354H176.182Z" fill="white"/>
<path d="M146.554 438.126C146.554 439.17 146.194 440.04 145.474 440.736C144.766 441.42 143.68 441.762 142.216 441.762H139.804V447H138.166V434.454H142.216C143.632 434.454 144.706 434.796 145.438 435.48C146.182 436.164 146.554 437.046 146.554 438.126ZM142.216 440.412C143.128 440.412 143.8 440.214 144.232 439.818C144.664 439.422 144.88 438.858 144.88 438.126C144.88 436.578 143.992 435.804 142.216 435.804H139.804V440.412H142.216ZM157.59 441.69C157.59 442.002 157.572 442.332 157.536 442.68H149.652C149.712 443.652 150.042 444.414 150.642 444.966C151.254 445.506 151.992 445.776 152.856 445.776C153.564 445.776 154.152 445.614 154.62 445.29C155.1 444.954 155.436 444.51 155.628 443.958H157.392C157.128 444.906 156.6 445.68 155.808 446.28C155.016 446.868 154.032 447.162 152.856 447.162C151.92 447.162 151.08 446.952 150.336 446.532C149.604 446.112 149.028 445.518 148.608 444.75C148.188 443.97 147.978 443.07 147.978 442.05C147.978 441.03 148.182 440.136 148.59 439.368C148.998 438.6 149.568 438.012 150.3 437.604C151.044 437.184 151.896 436.974 152.856 436.974C153.792 436.974 154.62 437.178 155.34 437.586C156.06 437.994 156.612 438.558 156.996 439.278C157.392 439.986 157.59 440.79 157.59 441.69ZM155.898 441.348C155.898 440.724 155.76 440.19 155.484 439.746C155.208 439.29 154.83 438.948 154.35 438.72C153.882 438.48 153.36 438.36 152.784 438.36C151.956 438.36 151.248 438.624 150.66 439.152C150.084 439.68 149.754 440.412 149.67 441.348H155.898ZM171.614 436.956C172.382 436.956 173.066 437.118 173.666 437.442C174.266 437.754 174.74 438.228 175.088 438.864C175.436 439.5 175.61 440.274 175.61 441.186V447H173.99V441.42C173.99 440.436 173.744 439.686 173.252 439.17C172.772 438.642 172.118 438.378 171.29 438.378C170.438 438.378 169.76 438.654 169.256 439.206C168.752 439.746 168.5 440.532 168.5 441.564V447H166.88V441.42C166.88 440.436 166.634 439.686 166.142 439.17C165.662 438.642 165.008 438.378 164.18 438.378C163.328 438.378 162.65 438.654 162.146 439.206C161.642 439.746 161.39 440.532 161.39 441.564V447H159.752V437.136H161.39V438.558C161.714 438.042 162.146 437.646 162.686 437.37C163.238 437.094 163.844 436.956 164.504 436.956C165.332 436.956 166.064 437.142 166.7 437.514C167.336 437.886 167.81 438.432 168.122 439.152C168.398 438.456 168.854 437.916 169.49 437.532C170.126 437.148 170.834 436.956 171.614 436.956ZM179.143 435.534C178.831 435.534 178.567 435.426 178.351 435.21C178.135 434.994 178.027 434.73 178.027 434.418C178.027 434.106 178.135 433.842 178.351 433.626C178.567 433.41 178.831 433.302 179.143 433.302C179.443 433.302 179.695 433.41 179.899 433.626C180.115 433.842 180.223 434.106 180.223 434.418C180.223 434.73 180.115 434.994 179.899 435.21C179.695 435.426 179.443 435.534 179.143 435.534ZM179.935 437.136V447H178.297V437.136H179.935ZM184.365 438.738C184.653 438.174 185.061 437.736 185.589 437.424C186.129 437.112 186.783 436.956 187.551 436.956V438.648H187.119C185.283 438.648 184.365 439.644 184.365 441.636V447H182.727V437.136H184.365V438.738ZM188.83 442.032C188.83 441.024 189.034 440.142 189.442 439.386C189.85 438.618 190.408 438.024 191.116 437.604C191.836 437.184 192.634 436.974 193.51 436.974C194.374 436.974 195.124 437.16 195.76 437.532C196.396 437.904 196.87 438.372 197.182 438.936V437.136H198.838V447H197.182V445.164C196.858 445.74 196.372 446.22 195.724 446.604C195.088 446.976 194.344 447.162 193.492 447.162C192.616 447.162 191.824 446.946 191.116 446.514C190.408 446.082 189.85 445.476 189.442 444.696C189.034 443.916 188.83 443.028 188.83 442.032ZM197.182 442.05C197.182 441.306 197.032 440.658 196.732 440.106C196.432 439.554 196.024 439.134 195.508 438.846C195.004 438.546 194.446 438.396 193.834 438.396C193.222 438.396 192.664 438.54 192.16 438.828C191.656 439.116 191.254 439.536 190.954 440.088C190.654 440.64 190.504 441.288 190.504 442.032C190.504 442.788 190.654 443.448 190.954 444.012C191.254 444.564 191.656 444.99 192.16 445.29C192.664 445.578 193.222 445.722 193.834 445.722C194.446 445.722 195.004 445.578 195.508 445.29C196.024 444.99 196.432 444.564 196.732 444.012C197.032 443.448 197.182 442.794 197.182 442.05Z" fill="black"/>
<path d="M272.5 352.5H362.5" stroke="#F88312" stroke-width="12" stroke-linecap="round"/>
<path d="M462.404 256.852C464.394 254.008 468.606 254.008 470.596 256.852L485.491 278.13C486.605 279.723 488.542 280.525 490.456 280.187L516.034 275.673C519.452 275.07 522.43 278.048 521.827 281.466L517.313 307.044C516.975 308.958 517.777 310.895 519.37 312.009L540.648 326.904C543.492 328.894 543.492 333.106 540.648 335.096L519.37 349.991C517.777 351.105 516.975 353.042 517.313 354.956L521.827 380.534C522.43 383.952 519.452 386.93 516.034 386.327L490.456 381.813C488.542 381.475 486.605 382.277 485.491 383.87L470.596 405.148C468.606 407.992 464.394 407.992 462.404 405.148L447.509 383.87C446.395 382.277 444.458 381.475 442.544 381.813L416.966 386.327C413.548 386.93 410.57 383.952 411.173 380.534L415.687 354.956C416.025 353.042 415.223 351.105 413.63 349.991L392.352 335.096C389.508 333.106 389.508 328.894 392.352 326.904L413.63 312.009C415.223 310.895 416.025 308.958 415.687 307.044L411.173 281.466C410.57 278.048 413.548 275.07 416.966 275.673L442.544 280.187C444.458 280.525 446.395 279.723 447.509 278.13L462.404 256.852Z" fill="#F88312"/>
<path d="M457.599 324V308.4L458.967 309.816H454.047V307.2H460.719V324H457.599ZM471.06 324.24C469.732 324.24 468.532 323.904 467.46 323.232C466.404 322.56 465.572 321.584 464.964 320.304C464.356 319.008 464.052 317.44 464.052 315.6C464.052 313.76 464.356 312.2 464.964 310.92C465.572 309.624 466.404 308.64 467.46 307.968C468.532 307.296 469.732 306.96 471.06 306.96C472.404 306.96 473.604 307.296 474.66 307.968C475.716 308.64 476.548 309.624 477.156 310.92C477.78 312.2 478.092 313.76 478.092 315.6C478.092 317.44 477.78 319.008 477.156 320.304C476.548 321.584 475.716 322.56 474.66 323.232C473.604 323.904 472.404 324.24 471.06 324.24ZM471.06 321.528C471.844 321.528 472.524 321.32 473.1 320.904C473.676 320.472 474.124 319.816 474.444 318.936C474.78 318.056 474.948 316.944 474.948 315.6C474.948 314.24 474.78 313.128 474.444 312.264C474.124 311.384 473.676 310.736 473.1 310.32C472.524 309.888 471.844 309.672 471.06 309.672C470.308 309.672 469.636 309.888 469.044 310.32C468.468 310.736 468.012 311.384 467.676 312.264C467.356 313.128 467.196 314.24 467.196 315.6C467.196 316.944 467.356 318.056 467.676 318.936C468.012 319.816 468.468 320.472 469.044 320.904C469.636 321.32 470.308 321.528 471.06 321.528ZM446.517 354.24C445.445 354.24 444.453 354.032 443.541 353.616C442.645 353.2 441.909 352.6 441.333 351.816L443.109 349.68C443.573 350.32 444.077 350.8 444.621 351.12C445.181 351.44 445.789 351.6 446.445 351.6C448.189 351.6 449.061 350.568 449.061 348.504V339.816H443.085V337.2H452.181V348.336C452.181 350.32 451.693 351.8 450.717 352.776C449.757 353.752 448.357 354.24 446.517 354.24ZM453.829 354L461.389 337.2H464.461L472.045 354H468.781L462.277 338.856H463.525L457.045 354H453.829ZM457.309 350.112L458.149 347.664H467.221L468.061 350.112H457.309ZM474.182 354V337.2H476.75L487.286 350.136H486.014V337.2H489.11V354H486.542L476.006 341.064H477.278V354H474.182Z" fill="white"/>
<path d="M411.745 438.126C411.745 439.17 411.385 440.04 410.665 440.736C409.957 441.42 408.871 441.762 407.407 441.762H404.995V447H403.357V434.454H407.407C408.823 434.454 409.897 434.796 410.629 435.48C411.373 436.164 411.745 437.046 411.745 438.126ZM407.407 440.412C408.319 440.412 408.991 440.214 409.423 439.818C409.855 439.422 410.071 438.858 410.071 438.126C410.071 436.578 409.183 435.804 407.407 435.804H404.995V440.412H407.407ZM422.781 441.69C422.781 442.002 422.763 442.332 422.727 442.68H414.843C414.903 443.652 415.233 444.414 415.833 444.966C416.445 445.506 417.183 445.776 418.047 445.776C418.755 445.776 419.343 445.614 419.811 445.29C420.291 444.954 420.627 444.51 420.819 443.958H422.583C422.319 444.906 421.791 445.68 420.999 446.28C420.207 446.868 419.223 447.162 418.047 447.162C417.111 447.162 416.271 446.952 415.527 446.532C414.795 446.112 414.219 445.518 413.799 444.75C413.379 443.97 413.169 443.07 413.169 442.05C413.169 441.03 413.373 440.136 413.781 439.368C414.189 438.6 414.759 438.012 415.491 437.604C416.235 437.184 417.087 436.974 418.047 436.974C418.983 436.974 419.811 437.178 420.531 437.586C421.251 437.994 421.803 438.558 422.187 439.278C422.583 439.986 422.781 440.79 422.781 441.69ZM421.089 441.348C421.089 440.724 420.951 440.19 420.675 439.746C420.399 439.29 420.021 438.948 419.541 438.72C419.073 438.48 418.551 438.36 417.975 438.36C417.147 438.36 416.439 438.624 415.851 439.152C415.275 439.68 414.945 440.412 414.861 441.348H421.089ZM429.749 436.956C430.949 436.956 431.921 437.322 432.665 438.054C433.409 438.774 433.781 439.818 433.781 441.186V447H432.161V441.42C432.161 440.436 431.915 439.686 431.423 439.17C430.931 438.642 430.259 438.378 429.407 438.378C428.543 438.378 427.853 438.648 427.337 439.188C426.833 439.728 426.581 440.514 426.581 441.546V447H424.943V437.136H426.581V438.54C426.905 438.036 427.343 437.646 427.895 437.37C428.459 437.094 429.077 436.956 429.749 436.956ZM440.524 436.974C441.376 436.974 442.12 437.16 442.756 437.532C443.404 437.904 443.884 438.372 444.196 438.936V437.136H445.852V447.216C445.852 448.116 445.66 448.914 445.276 449.61C444.892 450.318 444.34 450.87 443.62 451.266C442.912 451.662 442.084 451.86 441.136 451.86C439.84 451.86 438.76 451.554 437.896 450.942C437.032 450.33 436.522 449.496 436.366 448.44H437.986C438.166 449.04 438.538 449.52 439.102 449.88C439.666 450.252 440.344 450.438 441.136 450.438C442.036 450.438 442.768 450.156 443.332 449.592C443.908 449.028 444.196 448.236 444.196 447.216V445.146C443.872 445.722 443.392 446.202 442.756 446.586C442.12 446.97 441.376 447.162 440.524 447.162C439.648 447.162 438.85 446.946 438.13 446.514C437.422 446.082 436.864 445.476 436.456 444.696C436.048 443.916 435.844 443.028 435.844 442.032C435.844 441.024 436.048 440.142 436.456 439.386C436.864 438.618 437.422 438.024 438.13 437.604C438.85 437.184 439.648 436.974 440.524 436.974ZM444.196 442.05C444.196 441.306 444.046 440.658 443.746 440.106C443.446 439.554 443.038 439.134 442.522 438.846C442.018 438.546 441.46 438.396 440.848 438.396C440.236 438.396 439.678 438.54 439.174 438.828C438.67 439.116 438.268 439.536 437.968 440.088C437.668 440.64 437.518 441.288 437.518 442.032C437.518 442.788 437.668 443.448 437.968 444.012C438.268 444.564 438.67 444.99 439.174 445.29C439.678 445.578 440.236 445.722 440.848 445.722C441.46 445.722 442.018 445.578 442.522 445.29C443.038 444.99 443.446 444.564 443.746 444.012C444.046 443.448 444.196 442.794 444.196 442.05ZM457.368 437.136V447H455.73V445.542C455.418 446.046 454.98 446.442 454.416 446.73C453.864 447.006 453.252 447.144 452.58 447.144C451.812 447.144 451.122 446.988 450.51 446.676C449.898 446.352 449.412 445.872 449.052 445.236C448.704 444.6 448.53 443.826 448.53 442.914V437.136H450.15V442.698C450.15 443.67 450.396 444.42 450.888 444.948C451.38 445.464 452.052 445.722 452.904 445.722C453.78 445.722 454.47 445.452 454.974 444.912C455.478 444.372 455.73 443.586 455.73 442.554V437.136H457.368ZM471.996 436.956C472.764 436.956 473.448 437.118 474.048 437.442C474.648 437.754 475.122 438.228 475.47 438.864C475.818 439.5 475.992 440.274 475.992 441.186V447H474.372V441.42C474.372 440.436 474.126 439.686 473.634 439.17C473.154 438.642 472.5 438.378 471.672 438.378C470.82 438.378 470.142 438.654 469.638 439.206C469.134 439.746 468.882 440.532 468.882 441.564V447H467.262V441.42C467.262 440.436 467.016 439.686 466.524 439.17C466.044 438.642 465.39 438.378 464.562 438.378C463.71 438.378 463.032 438.654 462.528 439.206C462.024 439.746 461.772 440.532 461.772 441.564V447H460.134V437.136H461.772V438.558C462.096 438.042 462.528 437.646 463.068 437.37C463.62 437.094 464.226 436.956 464.886 436.956C465.714 436.956 466.446 437.142 467.082 437.514C467.718 437.886 468.192 438.432 468.504 439.152C468.78 438.456 469.236 437.916 469.872 437.532C470.508 437.148 471.216 436.956 471.996 436.956ZM487.427 437.136V447H485.789V445.542C485.477 446.046 485.039 446.442 484.475 446.73C483.923 447.006 483.311 447.144 482.639 447.144C481.871 447.144 481.181 446.988 480.569 446.676C479.957 446.352 479.471 445.872 479.111 445.236C478.763 444.6 478.589 443.826 478.589 442.914V437.136H480.209V442.698C480.209 443.67 480.455 444.42 480.947 444.948C481.439 445.464 482.111 445.722 482.963 445.722C483.839 445.722 484.529 445.452 485.033 444.912C485.537 444.372 485.789 443.586 485.789 442.554V437.136H487.427ZM502.055 436.956C502.823 436.956 503.507 437.118 504.107 437.442C504.707 437.754 505.181 438.228 505.529 438.864C505.877 439.5 506.051 440.274 506.051 441.186V447H504.431V441.42C504.431 440.436 504.185 439.686 503.693 439.17C503.213 438.642 502.559 438.378 501.731 438.378C500.879 438.378 500.201 438.654 499.697 439.206C499.193 439.746 498.941 440.532 498.941 441.564V447H497.321V441.42C497.321 440.436 497.075 439.686 496.583 439.17C496.103 438.642 495.449 438.378 494.621 438.378C493.769 438.378 493.091 438.654 492.587 439.206C492.083 439.746 491.831 440.532 491.831 441.564V447H490.193V437.136H491.831V438.558C492.155 438.042 492.587 437.646 493.127 437.37C493.679 437.094 494.285 436.956 494.945 436.956C495.773 436.956 496.505 437.142 497.141 437.514C497.777 437.886 498.251 438.432 498.563 439.152C498.839 438.456 499.295 437.916 499.931 437.532C500.567 437.148 501.275 436.956 502.055 436.956ZM508.126 442.032C508.126 441.024 508.33 440.142 508.738 439.386C509.146 438.618 509.704 438.024 510.412 437.604C511.132 437.184 511.93 436.974 512.806 436.974C513.67 436.974 514.42 437.16 515.056 437.532C515.692 437.904 516.166 438.372 516.478 438.936V437.136H518.134V447H516.478V445.164C516.154 445.74 515.668 446.22 515.02 446.604C514.384 446.976 513.64 447.162 512.788 447.162C511.912 447.162 511.12 446.946 510.412 446.514C509.704 446.082 509.146 445.476 508.738 444.696C508.33 443.916 508.126 443.028 508.126 442.032ZM516.478 442.05C516.478 441.306 516.328 440.658 516.028 440.106C515.728 439.554 515.32 439.134 514.804 438.846C514.3 438.546 513.742 438.396 513.13 438.396C512.518 438.396 511.96 438.54 511.456 438.828C510.952 439.116 510.55 439.536 510.25 440.088C509.95 440.64 509.8 441.288 509.8 442.032C509.8 442.788 509.95 443.448 510.25 444.012C510.55 444.564 510.952 444.99 511.456 445.29C511.96 445.578 512.518 445.722 513.13 445.722C513.742 445.722 514.3 445.578 514.804 445.29C515.32 444.99 515.728 444.564 516.028 444.012C516.328 443.448 516.478 442.794 516.478 442.05ZM525.708 436.956C526.908 436.956 527.88 437.322 528.624 438.054C529.368 438.774 529.74 439.818 529.74 441.186V447H528.12V441.42C528.12 440.436 527.874 439.686 527.382 439.17C526.89 438.642 526.218 438.378 525.366 438.378C524.502 438.378 523.812 438.648 523.296 439.188C522.792 439.728 522.54 440.514 522.54 441.546V447H520.902V437.136H522.54V438.54C522.864 438.036 523.302 437.646 523.854 437.37C524.418 437.094 525.036 436.956 525.708 436.956Z" fill="black"/>
</svg>
