<?xml version="1.0" standalone="no"?>
<!DOCTYPE svg PUBLIC "-//W3C//DTD SVG 20010904//EN"
 "http://www.w3.org/TR/2001/REC-SVG-20010904/DTD/svg10.dtd">
<svg version="1.0" xmlns="http://www.w3.org/2000/svg"
 width="100.000000pt" height="100.000000pt" viewBox="0 0 100.000000 100.000000"
 preserveAspectRatio="xMidYMid meet">
<metadata>
Created by potrace 1.14, written by Peter Selinger 2001-2017
</metadata>
<g transform="translate(0.000000,100.000000) scale(0.100000,-0.100000)"
fill="#000000" stroke="none">
<path d="M405 837 c-143 -48 -232 -161 -243 -308 -5 -67 -4 -67 26 -83 41 -21
41 -21 32 18 -18 80 16 189 78 249 114 110 276 114 391 11 74 -67 114 -183 90
-266 -9 -33 -7 -34 33 -10 30 17 30 18 25 83 -12 175 -146 307 -321 316 -41 1
-88 -3 -111 -10z"/>
<path d="M400 749 c-55 -25 -105 -71 -133 -124 -25 -48 -31 -185 -9 -207 11
-11 12 -8 5 17 -4 17 -7 58 -6 93 3 98 52 171 146 212 26 12 47 23 47 25 0 7
0 7 -50 -16z"/>
<path d="M483 763 c15 -2 37 -2 50 0 12 2 0 4 -28 4 -27 0 -38 -2 -22 -4z"/>
<path d="M608 734 c112 -56 156 -158 128 -299 -6 -29 -6 -29 10 5 19 42 13
132 -12 183 -31 62 -122 137 -166 137 -6 0 11 -12 40 -26z"/>
<path d="M489 668 c-1 -7 0 -23 1 -35 1 -17 -4 -23 -19 -23 -15 0 -21 6 -21
24 0 13 -7 26 -15 30 -10 3 -15 -1 -15 -14 0 -31 19 -70 34 -70 8 0 19 -14 25
-30 6 -18 6 -28 1 -25 -6 4 -10 12 -10 20 0 7 -18 22 -40 33 -35 17 -40 18
-40 3 0 -27 -40 41 -40 69 -1 34 -16 8 -23 -39 -8 -48 10 -70 73 -88 30 -8 65
-24 77 -35 l22 -20 33 25 c18 13 50 28 71 31 68 12 87 54 58 128 -10 23 -10
23 -10 -4 -1 -15 -8 -33 -16 -42 -8 -8 -15 -19 -15 -25 0 -5 -4 -12 -9 -15 -5
-4 -7 3 -4 13 5 19 4 19 -36 -1 -23 -11 -41 -26 -41 -33 0 -7 -8 -19 -17 -26
-15 -11 -16 -11 -5 1 6 8 12 22 12 31 0 10 9 21 21 24 21 7 39 42 39 77 0 17
-2 18 -15 8 -8 -7 -15 -21 -15 -31 0 -13 -7 -19 -21 -19 -17 0 -20 5 -17 32 2
18 -2 33 -9 35 -7 3 -13 -1 -14 -9z m21 -118 c0 -5 -5 -10 -11 -10 -5 0 -7 5
-4 10 3 6 8 10 11 10 2 0 4 -4 4 -10z"/>
<path d="M11 600 c-18 -64 -9 -132 22 -173 31 -41 77 -64 157 -80 43 -9 64
-20 79 -39 12 -15 69 -56 127 -93 l105 -66 114 73 c63 40 116 81 118 90 3 10
11 20 19 21 7 2 44 12 82 21 123 29 172 89 163 197 -5 60 -26 116 -27 71 -1
-93 -131 -204 -284 -243 -41 -10 -46 -14 -46 -39 0 -24 -12 -37 -69 -78 l-69
-50 -65 44 c-51 34 -68 52 -75 77 -7 27 -15 34 -59 48 -160 52 -250 126 -271
225 l-9 39 -12 -45z"/>
<path d="M375 510 c-3 -5 -2 -15 1 -24 3 -9 1 -16 -5 -16 -9 0 -8 -6 1 -22 7
-13 13 -27 14 -33 0 -5 2 -16 2 -22 1 -7 7 -13 13 -13 7 0 17 -7 24 -17 7 -9
23 -17 36 -19 13 -1 24 -3 24 -4 0 -1 8 -3 18 -5 9 -2 17 1 17 7 0 6 7 8 15 4
9 -3 24 3 35 14 11 11 23 20 26 20 16 0 32 35 22 47 -7 9 -7 13 1 13 7 0 10
14 9 35 -2 20 -6 35 -11 35 -4 0 -13 0 -21 0 -11 0 -13 -10 -9 -38 4 -31 0
-42 -22 -65 -64 -64 -175 -4 -152 82 3 13 -1 21 -14 24 -11 3 -21 1 -24 -3z"/>
<path d="M50 371 c0 -17 54 -82 78 -94 23 -12 70 -15 135 -9 17 2 17 3 0 26
-13 18 -31 26 -70 31 -29 3 -73 17 -98 29 -25 13 -45 20 -45 17z"/>
<path d="M892 349 c-23 -11 -64 -23 -91 -26 -38 -4 -51 -11 -60 -29 -12 -28 1
-34 71 -30 54 2 93 27 121 75 22 36 18 37 -41 10z"/>
<path d="M451 309 c8 -8 23 -22 31 -31 15 -17 18 -16 50 14 21 20 26 28 13 23
-25 -11 -64 -11 -90 0 -18 7 -18 6 -4 -6z"/>
<path d="M268 255 c-3 -3 -27 -6 -54 -7 l-48 -1 28 -22 c35 -28 67 -34 125
-22 l43 9 -35 24 c-36 24 -49 28 -59 19z"/>
<path d="M671 235 l-33 -24 38 -6 c73 -12 93 -9 129 19 l30 24 -35 -1 c-19 0
-48 2 -65 6 -23 5 -38 0 -64 -18z"/>
</g>
</svg>
