<svg width="1224" height="251" viewBox="0 0 1224 251" fill="none" xmlns="http://www.w3.org/2000/svg">
<path d="M160.904 29.8519C162.894 27.0082 167.106 27.0082 169.096 29.8519L183.991 51.1305C185.105 52.7229 187.042 53.525 188.956 53.1871L214.534 48.6729C217.952 48.0697 220.93 51.0476 220.327 54.4658L215.813 80.0441C215.475 81.9582 216.277 83.8947 217.87 85.0093L239.148 99.9038C241.992 101.894 241.992 106.106 239.148 108.096L217.87 122.991C216.277 124.105 215.475 126.042 215.813 127.956L220.327 153.534C220.93 156.952 217.952 159.93 214.534 159.327L188.956 154.813C187.042 154.475 185.105 155.277 183.991 156.87L169.096 178.148C167.106 180.992 162.894 180.992 160.904 178.148L146.009 156.87C144.895 155.277 142.958 154.475 141.044 154.813L115.466 159.327C112.048 159.93 109.07 156.952 109.673 153.534L114.187 127.956C114.525 126.042 113.723 124.105 112.13 122.991L90.8519 108.096C88.0082 106.106 88.0082 101.894 90.8519 99.9038L112.13 85.0093C113.723 83.8947 114.525 81.9582 114.187 80.0441L109.673 54.4658C109.07 51.0476 112.048 48.0697 115.466 48.6729L141.044 53.1871C142.958 53.525 144.895 52.7229 146.009 51.1305L160.904 29.8519Z" fill="#F88312"/>
<path d="M141.213 97V81.4L142.581 82.816H137.661V80.2H144.333V97H141.213ZM152.945 97.24C151.761 97.24 150.601 97.072 149.465 96.736C148.345 96.384 147.401 95.904 146.633 95.296L147.977 92.872C148.585 93.368 149.321 93.768 150.185 94.072C151.049 94.376 151.953 94.528 152.897 94.528C154.017 94.528 154.889 94.304 155.513 93.856C156.137 93.392 156.449 92.768 156.449 91.984C156.449 91.216 156.161 90.608 155.585 90.16C155.009 89.712 154.081 89.488 152.801 89.488H151.265V87.352L156.065 81.64L156.473 82.816H147.449V80.2H158.897V82.288L154.097 88L152.465 87.04H153.401C155.465 87.04 157.009 87.504 158.033 88.432C159.073 89.344 159.593 90.52 159.593 91.96C159.593 92.904 159.353 93.776 158.873 94.576C158.393 95.376 157.657 96.024 156.665 96.52C155.689 97 154.449 97.24 152.945 97.24ZM161.898 91.576V89.08H168.498V91.576H161.898ZM173.088 97V81.4L174.456 82.816H169.536V80.2H176.208V97H173.088ZM186.812 97.24C185.292 97.24 183.988 96.92 182.9 96.28C181.812 95.624 180.98 94.68 180.404 93.448C179.828 92.216 179.54 90.696 179.54 88.888C179.54 86.968 179.884 85.344 180.572 84.016C181.276 82.688 182.244 81.68 183.476 80.992C184.724 80.304 186.156 79.96 187.772 79.96C188.62 79.96 189.428 80.048 190.196 80.224C190.98 80.4 191.644 80.672 192.188 81.04L191.036 83.392C190.572 83.088 190.068 82.88 189.524 82.768C188.996 82.64 188.436 82.576 187.844 82.576C186.26 82.576 185.004 83.064 184.076 84.04C183.148 85.016 182.684 86.456 182.684 88.36C182.684 88.664 182.692 89.024 182.708 89.44C182.724 89.84 182.78 90.248 182.876 90.664L181.916 89.608C182.204 88.952 182.596 88.408 183.092 87.976C183.604 87.528 184.204 87.192 184.892 86.968C185.596 86.744 186.356 86.632 187.172 86.632C188.276 86.632 189.26 86.848 190.124 87.28C190.988 87.696 191.676 88.296 192.188 89.08C192.7 89.848 192.956 90.752 192.956 91.792C192.956 92.896 192.684 93.856 192.14 94.672C191.596 95.488 190.86 96.12 189.932 96.568C189.004 97.016 187.964 97.24 186.812 97.24ZM186.644 94.792C187.284 94.792 187.852 94.68 188.348 94.456C188.844 94.216 189.228 93.88 189.5 93.448C189.788 93.016 189.932 92.512 189.932 91.936C189.932 91.056 189.628 90.36 189.02 89.848C188.412 89.336 187.596 89.08 186.572 89.08C185.9 89.08 185.308 89.208 184.796 89.464C184.3 89.704 183.9 90.04 183.596 90.472C183.308 90.904 183.164 91.4 183.164 91.96C183.164 92.472 183.3 92.944 183.572 93.376C183.844 93.808 184.236 94.152 184.748 94.408C185.276 94.664 185.908 94.792 186.644 94.792ZM143.545 127V110.2H146.113L156.649 123.136H155.377V110.2H158.473V127H155.905L145.369 114.064H146.641V127H143.545ZM168.447 127.168C167.135 127.168 165.967 126.888 164.943 126.328C163.919 125.752 163.111 124.968 162.519 123.976C161.927 122.984 161.631 121.856 161.631 120.592C161.631 119.312 161.927 118.184 162.519 117.208C163.111 116.216 163.919 115.44 164.943 114.88C165.967 114.32 167.135 114.04 168.447 114.04C169.775 114.04 170.951 114.32 171.975 114.88C173.015 115.44 173.823 116.208 174.399 117.184C174.991 118.16 175.287 119.296 175.287 120.592C175.287 121.856 174.991 122.984 174.399 123.976C173.823 124.968 173.015 125.752 171.975 126.328C170.951 126.888 169.775 127.168 168.447 127.168ZM168.447 124.6C169.183 124.6 169.839 124.44 170.415 124.12C170.991 123.8 171.439 123.336 171.759 122.728C172.095 122.12 172.263 121.408 172.263 120.592C172.263 119.76 172.095 119.048 171.759 118.456C171.439 117.848 170.991 117.384 170.415 117.064C169.839 116.744 169.191 116.584 168.471 116.584C167.735 116.584 167.079 116.744 166.503 117.064C165.943 117.384 165.495 117.848 165.159 118.456C164.823 119.048 164.655 119.76 164.655 120.592C164.655 121.408 164.823 122.12 165.159 122.728C165.495 123.336 165.943 123.8 166.503 124.12C167.079 124.44 167.727 124.6 168.447 124.6ZM181.212 127L175.716 114.184H178.836L183.564 125.488H182.028L186.924 114.184H189.804L184.308 127H181.212Z" fill="white"/>
<path d="M109.501 207.49C110.833 207.49 111.997 207.748 112.993 208.264C114.001 208.768 114.775 209.5 115.315 210.46C115.867 211.408 116.143 212.518 116.143 213.79C116.143 215.062 115.867 216.166 115.315 217.102C114.775 218.038 114.001 218.758 112.993 219.262C111.997 219.754 110.833 220 109.501 220H105.415V207.49H109.501ZM109.501 218.326C110.965 218.326 112.087 217.93 112.867 217.138C113.647 216.346 114.037 215.23 114.037 213.79C114.037 212.338 113.647 211.204 112.867 210.388C112.087 209.572 110.965 209.164 109.501 209.164H107.467V218.326H109.501ZM119.221 208.768C118.849 208.768 118.537 208.642 118.285 208.39C118.033 208.138 117.907 207.826 117.907 207.454C117.907 207.082 118.033 206.77 118.285 206.518C118.537 206.266 118.849 206.14 119.221 206.14C119.581 206.14 119.887 206.266 120.139 206.518C120.391 206.77 120.517 207.082 120.517 207.454C120.517 207.826 120.391 208.138 120.139 208.39C119.887 208.642 119.581 208.768 119.221 208.768ZM120.229 210.082V220H118.177V210.082H120.229ZM126.523 220.162C125.743 220.162 125.041 220.024 124.417 219.748C123.805 219.46 123.319 219.076 122.959 218.596C122.599 218.104 122.407 217.558 122.383 216.958H124.507C124.543 217.378 124.741 217.732 125.101 218.02C125.473 218.296 125.935 218.434 126.487 218.434C127.063 218.434 127.507 218.326 127.819 218.11C128.143 217.882 128.305 217.594 128.305 217.246C128.305 216.874 128.125 216.598 127.765 216.418C127.417 216.238 126.859 216.04 126.091 215.824C125.347 215.62 124.741 215.422 124.273 215.23C123.805 215.038 123.397 214.744 123.049 214.348C122.713 213.952 122.545 213.43 122.545 212.782C122.545 212.254 122.701 211.774 123.013 211.342C123.325 210.898 123.769 210.55 124.345 210.298C124.933 210.046 125.605 209.92 126.361 209.92C127.489 209.92 128.395 210.208 129.079 210.784C129.775 211.348 130.147 212.122 130.195 213.106H128.143C128.107 212.662 127.927 212.308 127.603 212.044C127.279 211.78 126.841 211.648 126.289 211.648C125.749 211.648 125.335 211.75 125.047 211.954C124.759 212.158 124.615 212.428 124.615 212.764C124.615 213.028 124.711 213.25 124.903 213.43C125.095 213.61 125.329 213.754 125.605 213.862C125.881 213.958 126.289 214.084 126.829 214.24C127.549 214.432 128.137 214.63 128.593 214.834C129.061 215.026 129.463 215.314 129.799 215.698C130.135 216.082 130.309 216.592 130.321 217.228C130.321 217.792 130.165 218.296 129.853 218.74C129.541 219.184 129.097 219.532 128.521 219.784C127.957 220.036 127.291 220.162 126.523 220.162ZM136.462 215.05L141.034 220H138.262L134.59 215.734V220H132.538V206.68H134.59V214.42L138.19 210.082H141.034L136.462 215.05ZM151.487 210.082V220H149.435V218.83C149.111 219.238 148.685 219.562 148.157 219.802C147.641 220.03 147.089 220.144 146.501 220.144C145.721 220.144 145.019 219.982 144.395 219.658C143.783 219.334 143.297 218.854 142.937 218.218C142.589 217.582 142.415 216.814 142.415 215.914V210.082H144.449V215.608C144.449 216.496 144.671 217.18 145.115 217.66C145.559 218.128 146.165 218.362 146.933 218.362C147.701 218.362 148.307 218.128 148.751 217.66C149.207 217.18 149.435 216.496 149.435 215.608V210.082H151.487ZM157.795 220.162C157.015 220.162 156.313 220.024 155.689 219.748C155.077 219.46 154.591 219.076 154.231 218.596C153.871 218.104 153.679 217.558 153.655 216.958H155.779C155.815 217.378 156.013 217.732 156.373 218.02C156.745 218.296 157.207 218.434 157.759 218.434C158.335 218.434 158.779 218.326 159.091 218.11C159.415 217.882 159.577 217.594 159.577 217.246C159.577 216.874 159.397 216.598 159.037 216.418C158.689 216.238 158.131 216.04 157.363 215.824C156.619 215.62 156.013 215.422 155.545 215.23C155.077 215.038 154.669 214.744 154.321 214.348C153.985 213.952 153.817 213.43 153.817 212.782C153.817 212.254 153.973 211.774 154.285 211.342C154.597 210.898 155.041 210.55 155.617 210.298C156.205 210.046 156.877 209.92 157.633 209.92C158.761 209.92 159.667 210.208 160.351 210.784C161.047 211.348 161.419 212.122 161.467 213.106H159.415C159.379 212.662 159.199 212.308 158.875 212.044C158.551 211.78 158.113 211.648 157.561 211.648C157.021 211.648 156.607 211.75 156.319 211.954C156.031 212.158 155.887 212.428 155.887 212.764C155.887 213.028 155.983 213.25 156.175 213.43C156.367 213.61 156.601 213.754 156.877 213.862C157.153 213.958 157.561 214.084 158.101 214.24C158.821 214.432 159.409 214.63 159.865 214.834C160.333 215.026 160.735 215.314 161.071 215.698C161.407 216.082 161.581 216.592 161.593 217.228C161.593 217.792 161.437 218.296 161.125 218.74C160.813 219.184 160.369 219.532 159.793 219.784C159.229 220.036 158.563 220.162 157.795 220.162ZM164.854 208.768C164.482 208.768 164.17 208.642 163.918 208.39C163.666 208.138 163.54 207.826 163.54 207.454C163.54 207.082 163.666 206.77 163.918 206.518C164.17 206.266 164.482 206.14 164.854 206.14C165.214 206.14 165.52 206.266 165.772 206.518C166.024 206.77 166.15 207.082 166.15 207.454C166.15 207.826 166.024 208.138 165.772 208.39C165.52 208.642 165.214 208.768 164.854 208.768ZM165.862 210.082V220H163.81V210.082H165.862ZM181.98 211.216C181.98 211.852 181.83 212.452 181.53 213.016C181.23 213.58 180.75 214.042 180.09 214.402C179.43 214.75 178.584 214.924 177.552 214.924H175.284V220H173.232V207.49H177.552C178.512 207.49 179.322 207.658 179.982 207.994C180.654 208.318 181.152 208.762 181.476 209.326C181.812 209.89 181.98 210.52 181.98 211.216ZM177.552 213.25C178.332 213.25 178.914 213.076 179.298 212.728C179.682 212.368 179.874 211.864 179.874 211.216C179.874 209.848 179.1 209.164 177.552 209.164H175.284V213.25H177.552ZM192.919 210.082V220H190.867V218.83C190.543 219.238 190.117 219.562 189.589 219.802C189.073 220.03 188.521 220.144 187.933 220.144C187.153 220.144 186.451 219.982 185.827 219.658C185.215 219.334 184.729 218.854 184.369 218.218C184.021 217.582 183.847 216.814 183.847 215.914V210.082H185.881V215.608C185.881 216.496 186.103 217.18 186.547 217.66C186.991 218.128 187.597 218.362 188.365 218.362C189.133 218.362 189.739 218.128 190.183 217.66C190.639 217.18 190.867 216.496 190.867 215.608V210.082H192.919ZM197.678 211.558C198.026 211.078 198.5 210.688 199.1 210.388C199.712 210.076 200.39 209.92 201.134 209.92C202.01 209.92 202.802 210.13 203.51 210.55C204.218 210.97 204.776 211.57 205.184 212.35C205.592 213.118 205.796 214 205.796 214.996C205.796 215.992 205.592 216.886 205.184 217.678C204.776 218.458 204.212 219.07 203.492 219.514C202.784 219.946 201.998 220.162 201.134 220.162C200.366 220.162 199.682 220.012 199.082 219.712C198.494 219.412 198.026 219.028 197.678 218.56V220H195.626V206.68H197.678V211.558ZM203.708 214.996C203.708 214.312 203.564 213.724 203.276 213.232C203 212.728 202.628 212.35 202.16 212.098C201.704 211.834 201.212 211.702 200.684 211.702C200.168 211.702 199.676 211.834 199.208 212.098C198.752 212.362 198.38 212.746 198.092 213.25C197.816 213.754 197.678 214.348 197.678 215.032C197.678 215.716 197.816 216.316 198.092 216.832C198.38 217.336 198.752 217.72 199.208 217.984C199.676 218.248 200.168 218.38 200.684 218.38C201.212 218.38 201.704 218.248 202.16 217.984C202.628 217.708 203 217.312 203.276 216.796C203.564 216.28 203.708 215.68 203.708 214.996ZM209.878 206.68V220H207.826V206.68H209.878ZM213.616 208.768C213.244 208.768 212.932 208.642 212.68 208.39C212.428 208.138 212.302 207.826 212.302 207.454C212.302 207.082 212.428 206.77 212.68 206.518C212.932 206.266 213.244 206.14 213.616 206.14C213.976 206.14 214.282 206.266 214.534 206.518C214.786 206.77 214.912 207.082 214.912 207.454C214.912 207.826 214.786 208.138 214.534 208.39C214.282 208.642 213.976 208.768 213.616 208.768ZM214.624 210.082V220H212.572V210.082H214.624ZM221.242 215.05L225.814 220H223.042L219.37 215.734V220H217.318V206.68H219.37V214.42L222.97 210.082H225.814L221.242 215.05Z" fill="black"/>
<path d="M269 125.5H359" stroke="#F88312" stroke-width="12" stroke-linecap="round"/>
<path d="M458.904 29.8519C460.894 27.0082 465.106 27.0082 467.096 29.8519L481.991 51.1305C483.105 52.7229 485.042 53.525 486.956 53.1871L512.534 48.6729C515.952 48.0697 518.93 51.0476 518.327 54.4658L513.813 80.0441C513.475 81.9582 514.277 83.8947 515.87 85.0093L537.148 99.9038C539.992 101.894 539.992 106.106 537.148 108.096L515.87 122.991C514.277 124.105 513.475 126.042 513.813 127.956L518.327 153.534C518.93 156.952 515.952 159.93 512.534 159.327L486.956 154.813C485.042 154.475 483.105 155.277 481.991 156.87L467.096 178.148C465.106 180.992 460.894 180.992 458.904 178.148L444.009 156.87C442.895 155.277 440.958 154.475 439.044 154.813L413.466 159.327C410.048 159.93 407.07 156.952 407.673 153.534L412.187 127.956C412.525 126.042 411.723 124.105 410.13 122.991L388.852 108.096C386.008 106.106 386.008 101.894 388.852 99.9038L410.13 85.0093C411.723 83.8947 412.525 81.9582 412.187 80.0441L407.673 54.4658C407.07 51.0476 410.048 48.0697 413.466 48.6729L439.044 53.1871C440.958 53.525 442.895 52.7229 444.009 51.1305L458.904 29.8519Z" fill="#F88312"/>
<path d="M452.785 97V94.912L459.457 88.576C460.017 88.048 460.433 87.584 460.705 87.184C460.977 86.784 461.153 86.416 461.233 86.08C461.329 85.728 461.377 85.4 461.377 85.096C461.377 84.328 461.113 83.736 460.585 83.32C460.057 82.888 459.281 82.672 458.257 82.672C457.441 82.672 456.697 82.816 456.025 83.104C455.369 83.392 454.801 83.832 454.321 84.424L452.137 82.744C452.793 81.864 453.673 81.184 454.777 80.704C455.897 80.208 457.145 79.96 458.521 79.96C459.737 79.96 460.793 80.16 461.689 80.56C462.601 80.944 463.297 81.496 463.777 82.216C464.273 82.936 464.521 83.792 464.521 84.784C464.521 85.328 464.449 85.872 464.305 86.416C464.161 86.944 463.889 87.504 463.489 88.096C463.089 88.688 462.505 89.352 461.737 90.088L456.001 95.536L455.353 94.36H465.169V97H452.785ZM469.658 97V81.4L471.026 82.816H466.106V80.2H472.778V97H469.658ZM441.545 127V110.2H444.113L454.649 123.136H453.377V110.2H456.473V127H453.905L443.369 114.064H444.641V127H441.545ZM466.447 127.168C465.135 127.168 463.967 126.888 462.943 126.328C461.919 125.752 461.111 124.968 460.519 123.976C459.927 122.984 459.631 121.856 459.631 120.592C459.631 119.312 459.927 118.184 460.519 117.208C461.111 116.216 461.919 115.44 462.943 114.88C463.967 114.32 465.135 114.04 466.447 114.04C467.775 114.04 468.951 114.32 469.975 114.88C471.015 115.44 471.823 116.208 472.399 117.184C472.991 118.16 473.287 119.296 473.287 120.592C473.287 121.856 472.991 122.984 472.399 123.976C471.823 124.968 471.015 125.752 469.975 126.328C468.951 126.888 467.775 127.168 466.447 127.168ZM466.447 124.6C467.183 124.6 467.839 124.44 468.415 124.12C468.991 123.8 469.439 123.336 469.759 122.728C470.095 122.12 470.263 121.408 470.263 120.592C470.263 119.76 470.095 119.048 469.759 118.456C469.439 117.848 468.991 117.384 468.415 117.064C467.839 116.744 467.191 116.584 466.471 116.584C465.735 116.584 465.079 116.744 464.503 117.064C463.943 117.384 463.495 117.848 463.159 118.456C462.823 119.048 462.655 119.76 462.655 120.592C462.655 121.408 462.823 122.12 463.159 122.728C463.495 123.336 463.943 123.8 464.503 124.12C465.079 124.44 465.727 124.6 466.447 124.6ZM479.212 127L473.716 114.184H476.836L481.564 125.488H480.028L484.924 114.184H487.804L482.308 127H479.212Z" fill="white"/>
<path d="M410.006 207.49C411.338 207.49 412.502 207.748 413.498 208.264C414.506 208.768 415.28 209.5 415.82 210.46C416.372 211.408 416.648 212.518 416.648 213.79C416.648 215.062 416.372 216.166 415.82 217.102C415.28 218.038 414.506 218.758 413.498 219.262C412.502 219.754 411.338 220 410.006 220H405.92V207.49H410.006ZM410.006 218.326C411.47 218.326 412.592 217.93 413.372 217.138C414.152 216.346 414.542 215.23 414.542 213.79C414.542 212.338 414.152 211.204 413.372 210.388C412.592 209.572 411.47 209.164 410.006 209.164H407.972V218.326H410.006ZM419.726 208.768C419.354 208.768 419.042 208.642 418.79 208.39C418.538 208.138 418.412 207.826 418.412 207.454C418.412 207.082 418.538 206.77 418.79 206.518C419.042 206.266 419.354 206.14 419.726 206.14C420.086 206.14 420.392 206.266 420.644 206.518C420.896 206.77 421.022 207.082 421.022 207.454C421.022 207.826 420.896 208.138 420.644 208.39C420.392 208.642 420.086 208.768 419.726 208.768ZM420.734 210.082V220H418.682V210.082H420.734ZM422.744 214.996C422.744 214 422.948 213.118 423.356 212.35C423.776 211.582 424.34 210.988 425.048 210.568C425.768 210.136 426.56 209.92 427.424 209.92C428.204 209.92 428.882 210.076 429.458 210.388C430.046 210.688 430.514 211.066 430.862 211.522V210.082H432.932V220H430.862V218.524C430.514 218.992 430.04 219.382 429.44 219.694C428.84 220.006 428.156 220.162 427.388 220.162C426.536 220.162 425.756 219.946 425.048 219.514C424.34 219.07 423.776 218.458 423.356 217.678C422.948 216.886 422.744 215.992 422.744 214.996ZM430.862 215.032C430.862 214.348 430.718 213.754 430.43 213.25C430.154 212.746 429.788 212.362 429.332 212.098C428.876 211.834 428.384 211.702 427.856 211.702C427.328 211.702 426.836 211.834 426.38 212.098C425.924 212.35 425.552 212.728 425.264 213.232C424.988 213.724 424.85 214.312 424.85 214.996C424.85 215.68 424.988 216.28 425.264 216.796C425.552 217.312 425.924 217.708 426.38 217.984C426.848 218.248 427.34 218.38 427.856 218.38C428.384 218.38 428.876 218.248 429.332 217.984C429.788 217.72 430.154 217.336 430.43 216.832C430.718 216.316 430.862 215.716 430.862 215.032ZM437.679 206.68V220H435.627V206.68H437.679ZM444.675 220.162C443.739 220.162 442.893 219.952 442.137 219.532C441.381 219.1 440.787 218.5 440.355 217.732C439.923 216.952 439.707 216.052 439.707 215.032C439.707 214.024 439.929 213.13 440.373 212.35C440.817 211.57 441.423 210.97 442.191 210.55C442.959 210.13 443.817 209.92 444.765 209.92C445.713 209.92 446.571 210.13 447.339 210.55C448.107 210.97 448.713 211.57 449.157 212.35C449.601 213.13 449.823 214.024 449.823 215.032C449.823 216.04 449.595 216.934 449.139 217.714C448.683 218.494 448.059 219.1 447.267 219.532C446.487 219.952 445.623 220.162 444.675 220.162ZM444.675 218.38C445.203 218.38 445.695 218.254 446.151 218.002C446.619 217.75 446.997 217.372 447.285 216.868C447.573 216.364 447.717 215.752 447.717 215.032C447.717 214.312 447.579 213.706 447.303 213.214C447.027 212.71 446.661 212.332 446.205 212.08C445.749 211.828 445.257 211.702 444.729 211.702C444.201 211.702 443.709 211.828 443.253 212.08C442.809 212.332 442.455 212.71 442.191 213.214C441.927 213.706 441.795 214.312 441.795 215.032C441.795 216.1 442.065 216.928 442.605 217.516C443.157 218.092 443.847 218.38 444.675 218.38ZM455.848 209.92C456.616 209.92 457.294 210.076 457.882 210.388C458.482 210.688 458.95 211.066 459.286 211.522V210.082H461.356V220.162C461.356 221.074 461.164 221.884 460.78 222.592C460.396 223.312 459.838 223.876 459.106 224.284C458.386 224.692 457.522 224.896 456.514 224.896C455.17 224.896 454.054 224.578 453.166 223.942C452.278 223.318 451.774 222.466 451.654 221.386H453.688C453.844 221.902 454.174 222.316 454.678 222.628C455.194 222.952 455.806 223.114 456.514 223.114C457.342 223.114 458.008 222.862 458.512 222.358C459.028 221.854 459.286 221.122 459.286 220.162V218.506C458.938 218.974 458.464 219.37 457.864 219.694C457.276 220.006 456.604 220.162 455.848 220.162C454.984 220.162 454.192 219.946 453.472 219.514C452.764 219.07 452.2 218.458 451.78 217.678C451.372 216.886 451.168 215.992 451.168 214.996C451.168 214 451.372 213.118 451.78 212.35C452.2 211.582 452.764 210.988 453.472 210.568C454.192 210.136 454.984 209.92 455.848 209.92ZM459.286 215.032C459.286 214.348 459.142 213.754 458.854 213.25C458.578 212.746 458.212 212.362 457.756 212.098C457.3 211.834 456.808 211.702 456.28 211.702C455.752 211.702 455.26 211.834 454.804 212.098C454.348 212.35 453.976 212.728 453.688 213.232C453.412 213.724 453.274 214.312 453.274 214.996C453.274 215.68 453.412 216.28 453.688 216.796C453.976 217.312 454.348 217.708 454.804 217.984C455.272 218.248 455.764 218.38 456.28 218.38C456.808 218.38 457.3 218.248 457.756 217.984C458.212 217.72 458.578 217.336 458.854 216.832C459.142 216.316 459.286 215.716 459.286 215.032ZM477.475 211.216C477.475 211.852 477.325 212.452 477.025 213.016C476.725 213.58 476.245 214.042 475.585 214.402C474.925 214.75 474.079 214.924 473.047 214.924H470.779V220H468.727V207.49H473.047C474.007 207.49 474.817 207.658 475.477 207.994C476.149 208.318 476.647 208.762 476.971 209.326C477.307 209.89 477.475 210.52 477.475 211.216ZM473.047 213.25C473.827 213.25 474.409 213.076 474.793 212.728C475.177 212.368 475.369 211.864 475.369 211.216C475.369 209.848 474.595 209.164 473.047 209.164H470.779V213.25H473.047ZM488.414 210.082V220H486.362V218.83C486.038 219.238 485.612 219.562 485.084 219.802C484.568 220.03 484.016 220.144 483.428 220.144C482.648 220.144 481.946 219.982 481.322 219.658C480.71 219.334 480.224 218.854 479.864 218.218C479.516 217.582 479.342 216.814 479.342 215.914V210.082H481.376V215.608C481.376 216.496 481.598 217.18 482.042 217.66C482.486 218.128 483.092 218.362 483.86 218.362C484.628 218.362 485.234 218.128 485.678 217.66C486.134 217.18 486.362 216.496 486.362 215.608V210.082H488.414ZM493.173 211.558C493.521 211.078 493.995 210.688 494.595 210.388C495.207 210.076 495.885 209.92 496.629 209.92C497.505 209.92 498.297 210.13 499.005 210.55C499.713 210.97 500.271 211.57 500.679 212.35C501.087 213.118 501.291 214 501.291 214.996C501.291 215.992 501.087 216.886 500.679 217.678C500.271 218.458 499.707 219.07 498.987 219.514C498.279 219.946 497.493 220.162 496.629 220.162C495.861 220.162 495.177 220.012 494.577 219.712C493.989 219.412 493.521 219.028 493.173 218.56V220H491.121V206.68H493.173V211.558ZM499.203 214.996C499.203 214.312 499.059 213.724 498.771 213.232C498.495 212.728 498.123 212.35 497.655 212.098C497.199 211.834 496.707 211.702 496.179 211.702C495.663 211.702 495.171 211.834 494.703 212.098C494.247 212.362 493.875 212.746 493.587 213.25C493.311 213.754 493.173 214.348 493.173 215.032C493.173 215.716 493.311 216.316 493.587 216.832C493.875 217.336 494.247 217.72 494.703 217.984C495.171 218.248 495.663 218.38 496.179 218.38C496.707 218.38 497.199 218.248 497.655 217.984C498.123 217.708 498.495 217.312 498.771 216.796C499.059 216.28 499.203 215.68 499.203 214.996ZM505.373 206.68V220H503.321V206.68H505.373ZM509.111 208.768C508.739 208.768 508.427 208.642 508.175 208.39C507.923 208.138 507.797 207.826 507.797 207.454C507.797 207.082 507.923 206.77 508.175 206.518C508.427 206.266 508.739 206.14 509.111 206.14C509.471 206.14 509.777 206.266 510.029 206.518C510.281 206.77 510.407 207.082 510.407 207.454C510.407 207.826 510.281 208.138 510.029 208.39C509.777 208.642 509.471 208.768 509.111 208.768ZM510.119 210.082V220H508.067V210.082H510.119ZM516.737 215.05L521.309 220H518.537L514.865 215.734V220H512.813V206.68H514.865V214.42L518.465 210.082H521.309L516.737 215.05Z" fill="black"/>
<path d="M567 125.5H657" stroke="#F88312" stroke-width="12" stroke-linecap="round"/>
<path d="M756.904 29.8519C758.894 27.0082 763.106 27.0082 765.096 29.8519L779.991 51.1305C781.105 52.7229 783.042 53.525 784.956 53.1871L810.534 48.6729C813.952 48.0697 816.93 51.0476 816.327 54.4658L811.813 80.0441C811.475 81.9582 812.277 83.8947 813.87 85.0093L835.148 99.9038C837.992 101.894 837.992 106.106 835.148 108.096L813.87 122.991C812.277 124.105 811.475 126.042 811.813 127.956L816.327 153.534C816.93 156.952 813.952 159.93 810.534 159.327L784.956 154.813C783.042 154.475 781.105 155.277 779.991 156.87L765.096 178.148C763.106 180.992 758.894 180.992 756.904 178.148L742.009 156.87C740.895 155.277 738.958 154.475 737.044 154.813L711.466 159.327C708.048 159.93 705.07 156.952 705.673 153.534L710.187 127.956C710.525 126.042 709.723 124.105 708.13 122.991L686.852 108.096C684.008 106.106 684.008 101.894 686.852 99.9038L708.13 85.0093C709.723 83.8947 710.525 81.9582 710.187 80.0441L705.673 54.4658C705.07 51.0476 708.048 48.0697 711.466 48.6729L737.044 53.1871C738.958 53.525 740.895 52.7229 742.009 51.1305L756.904 29.8519Z" fill="#F88312"/>
<path d="M728.899 97V94.912L735.571 88.576C736.131 88.048 736.547 87.584 736.819 87.184C737.091 86.784 737.267 86.416 737.347 86.08C737.443 85.728 737.491 85.4 737.491 85.096C737.491 84.328 737.227 83.736 736.699 83.32C736.171 82.888 735.395 82.672 734.371 82.672C733.555 82.672 732.811 82.816 732.139 83.104C731.483 83.392 730.915 83.832 730.435 84.424L728.251 82.744C728.907 81.864 729.787 81.184 730.891 80.704C732.011 80.208 733.259 79.96 734.635 79.96C735.851 79.96 736.907 80.16 737.803 80.56C738.715 80.944 739.411 81.496 739.891 82.216C740.387 82.936 740.635 83.792 740.635 84.784C740.635 85.328 740.563 85.872 740.419 86.416C740.275 86.944 740.003 87.504 739.603 88.096C739.203 88.688 738.619 89.352 737.851 90.088L732.115 95.536L731.467 94.36H741.283V97H728.899ZM748.651 97.24C747.467 97.24 746.307 97.072 745.171 96.736C744.051 96.384 743.107 95.904 742.339 95.296L743.659 92.872C744.267 93.368 745.003 93.768 745.867 94.072C746.747 94.376 747.659 94.528 748.603 94.528C749.707 94.528 750.571 94.296 751.195 93.832C751.835 93.368 752.155 92.744 752.155 91.96C752.155 91.432 752.019 90.968 751.747 90.568C751.491 90.168 751.027 89.864 750.355 89.656C749.699 89.448 748.795 89.344 747.643 89.344H743.587L744.451 80.2H754.315V82.816H745.603L747.235 81.328L746.587 88.168L744.955 86.704H748.339C750.003 86.704 751.339 86.928 752.347 87.376C753.371 87.808 754.115 88.416 754.579 89.2C755.059 89.968 755.299 90.848 755.299 91.84C755.299 92.816 755.059 93.712 754.579 94.528C754.099 95.344 753.363 96 752.371 96.496C751.395 96.992 750.155 97.24 748.651 97.24ZM757.363 91.576V89.08H763.963V91.576H757.363ZM765.766 97V94.912L772.438 88.576C772.998 88.048 773.414 87.584 773.686 87.184C773.958 86.784 774.134 86.416 774.214 86.08C774.31 85.728 774.358 85.4 774.358 85.096C774.358 84.328 774.094 83.736 773.566 83.32C773.038 82.888 772.262 82.672 771.238 82.672C770.422 82.672 769.678 82.816 769.006 83.104C768.35 83.392 767.782 83.832 767.302 84.424L765.118 82.744C765.774 81.864 766.654 81.184 767.758 80.704C768.878 80.208 770.126 79.96 771.502 79.96C772.718 79.96 773.774 80.16 774.67 80.56C775.582 80.944 776.278 81.496 776.758 82.216C777.254 82.936 777.502 83.792 777.502 84.784C777.502 85.328 777.43 85.872 777.286 86.416C777.142 86.944 776.87 87.504 776.47 88.096C776.07 88.688 775.486 89.352 774.718 90.088L768.982 95.536L768.334 94.36H778.15V97H765.766ZM787.223 97.24C785.703 97.24 784.399 96.92 783.311 96.28C782.223 95.624 781.391 94.68 780.815 93.448C780.239 92.216 779.951 90.696 779.951 88.888C779.951 86.968 780.295 85.344 780.983 84.016C781.687 82.688 782.655 81.68 783.887 80.992C785.135 80.304 786.567 79.96 788.183 79.96C789.031 79.96 789.839 80.048 790.607 80.224C791.391 80.4 792.055 80.672 792.599 81.04L791.447 83.392C790.983 83.088 790.479 82.88 789.935 82.768C789.407 82.64 788.847 82.576 788.255 82.576C786.671 82.576 785.415 83.064 784.487 84.04C783.559 85.016 783.095 86.456 783.095 88.36C783.095 88.664 783.103 89.024 783.119 89.44C783.135 89.84 783.191 90.248 783.287 90.664L782.327 89.608C782.615 88.952 783.007 88.408 783.503 87.976C784.015 87.528 784.615 87.192 785.303 86.968C786.007 86.744 786.767 86.632 787.583 86.632C788.687 86.632 789.671 86.848 790.535 87.28C791.399 87.696 792.087 88.296 792.599 89.08C793.111 89.848 793.367 90.752 793.367 91.792C793.367 92.896 793.095 93.856 792.551 94.672C792.007 95.488 791.271 96.12 790.343 96.568C789.415 97.016 788.375 97.24 787.223 97.24ZM787.055 94.792C787.695 94.792 788.263 94.68 788.759 94.456C789.255 94.216 789.639 93.88 789.911 93.448C790.199 93.016 790.343 92.512 790.343 91.936C790.343 91.056 790.039 90.36 789.431 89.848C788.823 89.336 788.007 89.08 786.983 89.08C786.311 89.08 785.719 89.208 785.207 89.464C784.711 89.704 784.311 90.04 784.007 90.472C783.719 90.904 783.575 91.4 783.575 91.96C783.575 92.472 783.711 92.944 783.983 93.376C784.255 93.808 784.647 94.152 785.159 94.408C785.687 94.664 786.319 94.792 787.055 94.792ZM739.045 127V110.2H741.613L752.149 123.136H750.877V110.2H753.973V127H751.405L740.869 114.064H742.141V127H739.045ZM763.947 127.168C762.635 127.168 761.467 126.888 760.443 126.328C759.419 125.752 758.611 124.968 758.019 123.976C757.427 122.984 757.131 121.856 757.131 120.592C757.131 119.312 757.427 118.184 758.019 117.208C758.611 116.216 759.419 115.44 760.443 114.88C761.467 114.32 762.635 114.04 763.947 114.04C765.275 114.04 766.451 114.32 767.475 114.88C768.515 115.44 769.323 116.208 769.899 117.184C770.491 118.16 770.787 119.296 770.787 120.592C770.787 121.856 770.491 122.984 769.899 123.976C769.323 124.968 768.515 125.752 767.475 126.328C766.451 126.888 765.275 127.168 763.947 127.168ZM763.947 124.6C764.683 124.6 765.339 124.44 765.915 124.12C766.491 123.8 766.939 123.336 767.259 122.728C767.595 122.12 767.763 121.408 767.763 120.592C767.763 119.76 767.595 119.048 767.259 118.456C766.939 117.848 766.491 117.384 765.915 117.064C765.339 116.744 764.691 116.584 763.971 116.584C763.235 116.584 762.579 116.744 762.003 117.064C761.443 117.384 760.995 117.848 760.659 118.456C760.323 119.048 760.155 119.76 760.155 120.592C760.155 121.408 760.323 122.12 760.659 122.728C760.995 123.336 761.443 123.8 762.003 124.12C762.579 124.44 763.227 124.6 763.947 124.6ZM776.712 127L771.216 114.184H774.336L779.064 125.488H777.528L782.424 114.184H785.304L779.808 127H776.712Z" fill="white"/>
<path d="M713.721 207.49V220H711.669V211.432L707.853 220H706.431L702.597 211.432V220H700.545V207.49H702.759L707.151 217.3L711.525 207.49H713.721ZM715.734 214.996C715.734 214 715.938 213.118 716.346 212.35C716.766 211.582 717.33 210.988 718.038 210.568C718.758 210.136 719.55 209.92 720.414 209.92C721.194 209.92 721.872 210.076 722.448 210.388C723.036 210.688 723.504 211.066 723.852 211.522V210.082H725.922V220H723.852V218.524C723.504 218.992 723.03 219.382 722.43 219.694C721.83 220.006 721.146 220.162 720.378 220.162C719.526 220.162 718.746 219.946 718.038 219.514C717.33 219.07 716.766 218.458 716.346 217.678C715.938 216.886 715.734 215.992 715.734 214.996ZM723.852 215.032C723.852 214.348 723.708 213.754 723.42 213.25C723.144 212.746 722.778 212.362 722.322 212.098C721.866 211.834 721.374 211.702 720.846 211.702C720.318 211.702 719.826 211.834 719.37 212.098C718.914 212.35 718.542 212.728 718.254 213.232C717.978 213.724 717.84 214.312 717.84 214.996C717.84 215.68 717.978 216.28 718.254 216.796C718.542 217.312 718.914 217.708 719.37 217.984C719.838 218.248 720.33 218.38 720.846 218.38C721.374 218.38 721.866 218.248 722.322 217.984C722.778 217.72 723.144 217.336 723.42 216.832C723.708 216.316 723.852 215.716 723.852 215.032ZM732.218 220.162C731.438 220.162 730.736 220.024 730.112 219.748C729.5 219.46 729.014 219.076 728.654 218.596C728.294 218.104 728.102 217.558 728.078 216.958H730.202C730.238 217.378 730.436 217.732 730.796 218.02C731.168 218.296 731.63 218.434 732.182 218.434C732.758 218.434 733.202 218.326 733.514 218.11C733.838 217.882 734 217.594 734 217.246C734 216.874 733.82 216.598 733.46 216.418C733.112 216.238 732.554 216.04 731.786 215.824C731.042 215.62 730.436 215.422 729.968 215.23C729.5 215.038 729.092 214.744 728.744 214.348C728.408 213.952 728.24 213.43 728.24 212.782C728.24 212.254 728.396 211.774 728.708 211.342C729.02 210.898 729.464 210.55 730.04 210.298C730.628 210.046 731.3 209.92 732.056 209.92C733.184 209.92 734.09 210.208 734.774 210.784C735.47 211.348 735.842 212.122 735.89 213.106H733.838C733.802 212.662 733.622 212.308 733.298 212.044C732.974 211.78 732.536 211.648 731.984 211.648C731.444 211.648 731.03 211.75 730.742 211.954C730.454 212.158 730.31 212.428 730.31 212.764C730.31 213.028 730.406 213.25 730.598 213.43C730.79 213.61 731.024 213.754 731.3 213.862C731.576 213.958 731.984 214.084 732.524 214.24C733.244 214.432 733.832 214.63 734.288 214.834C734.756 215.026 735.158 215.314 735.494 215.698C735.83 216.082 736.004 216.592 736.016 217.228C736.016 217.792 735.86 218.296 735.548 218.74C735.236 219.184 734.792 219.532 734.216 219.784C733.652 220.036 732.986 220.162 732.218 220.162ZM737.549 214.996C737.549 214 737.753 213.118 738.161 212.35C738.581 211.582 739.145 210.988 739.853 210.568C740.573 210.136 741.365 209.92 742.229 209.92C743.009 209.92 743.687 210.076 744.263 210.388C744.851 210.688 745.319 211.066 745.667 211.522V210.082H747.737V220H745.667V218.524C745.319 218.992 744.845 219.382 744.245 219.694C743.645 220.006 742.961 220.162 742.193 220.162C741.341 220.162 740.561 219.946 739.853 219.514C739.145 219.07 738.581 218.458 738.161 217.678C737.753 216.886 737.549 215.992 737.549 214.996ZM745.667 215.032C745.667 214.348 745.523 213.754 745.235 213.25C744.959 212.746 744.593 212.362 744.137 212.098C743.681 211.834 743.189 211.702 742.661 211.702C742.133 211.702 741.641 211.834 741.185 212.098C740.729 212.35 740.357 212.728 740.069 213.232C739.793 213.724 739.655 214.312 739.655 214.996C739.655 215.68 739.793 216.28 740.069 216.796C740.357 217.312 740.729 217.708 741.185 217.984C741.653 218.248 742.145 218.38 742.661 218.38C743.189 218.38 743.681 218.248 744.137 217.984C744.593 217.72 744.959 217.336 745.235 216.832C745.523 216.316 745.667 215.716 745.667 215.032ZM763.19 207.49V209.164H759.86V220H757.808V209.164H754.46V207.49H763.19ZM774.358 214.798C774.358 215.17 774.334 215.506 774.286 215.806H766.708C766.768 216.598 767.062 217.234 767.59 217.714C768.118 218.194 768.766 218.434 769.534 218.434C770.638 218.434 771.418 217.972 771.874 217.048H774.088C773.788 217.96 773.242 218.71 772.45 219.298C771.67 219.874 770.698 220.162 769.534 220.162C768.586 220.162 767.734 219.952 766.978 219.532C766.234 219.1 765.646 218.5 765.214 217.732C764.794 216.952 764.584 216.052 764.584 215.032C764.584 214.012 764.788 213.118 765.196 212.35C765.616 211.57 766.198 210.97 766.942 210.55C767.698 210.13 768.562 209.92 769.534 209.92C770.47 209.92 771.304 210.124 772.036 210.532C772.768 210.94 773.338 211.516 773.746 212.26C774.154 212.992 774.358 213.838 774.358 214.798ZM772.216 214.15C772.204 213.394 771.934 212.788 771.406 212.332C770.878 211.876 770.224 211.648 769.444 211.648C768.736 211.648 768.13 211.876 767.626 212.332C767.122 212.776 766.822 213.382 766.726 214.15H772.216ZM781.381 209.92C782.161 209.92 782.857 210.082 783.469 210.406C784.093 210.73 784.579 211.21 784.927 211.846C785.275 212.482 785.449 213.25 785.449 214.15V220H783.415V214.456C783.415 213.568 783.193 212.89 782.749 212.422C782.305 211.942 781.699 211.702 780.931 211.702C780.163 211.702 779.551 211.942 779.095 212.422C778.651 212.89 778.429 213.568 778.429 214.456V220H776.377V210.082H778.429V211.216C778.765 210.808 779.191 210.49 779.707 210.262C780.235 210.034 780.793 209.92 781.381 209.92ZM787.383 214.996C787.383 214 787.587 213.118 787.995 212.35C788.415 211.582 788.979 210.988 789.687 210.568C790.407 210.136 791.199 209.92 792.063 209.92C792.843 209.92 793.521 210.076 794.097 210.388C794.685 210.688 795.153 211.066 795.501 211.522V210.082H797.571V220H795.501V218.524C795.153 218.992 794.679 219.382 794.079 219.694C793.479 220.006 792.795 220.162 792.027 220.162C791.175 220.162 790.395 219.946 789.687 219.514C788.979 219.07 788.415 218.458 787.995 217.678C787.587 216.886 787.383 215.992 787.383 214.996ZM795.501 215.032C795.501 214.348 795.357 213.754 795.069 213.25C794.793 212.746 794.427 212.362 793.971 212.098C793.515 211.834 793.023 211.702 792.495 211.702C791.967 211.702 791.475 211.834 791.019 212.098C790.563 212.35 790.191 212.728 789.903 213.232C789.627 213.724 789.489 214.312 789.489 214.996C789.489 215.68 789.627 216.28 789.903 216.796C790.191 217.312 790.563 217.708 791.019 217.984C791.487 218.248 791.979 218.38 792.495 218.38C793.023 218.38 793.515 218.248 793.971 217.984C794.427 217.72 794.793 217.336 795.069 216.832C795.357 216.316 795.501 215.716 795.501 215.032ZM805.27 209.92C806.05 209.92 806.746 210.082 807.358 210.406C807.982 210.73 808.468 211.21 808.816 211.846C809.164 212.482 809.338 213.25 809.338 214.15V220H807.304V214.456C807.304 213.568 807.082 212.89 806.638 212.422C806.194 211.942 805.588 211.702 804.82 211.702C804.052 211.702 803.44 211.942 802.984 212.422C802.54 212.89 802.318 213.568 802.318 214.456V220H800.266V210.082H802.318V211.216C802.654 210.808 803.08 210.49 803.596 210.262C804.124 210.034 804.682 209.92 805.27 209.92ZM815.951 209.92C816.719 209.92 817.397 210.076 817.985 210.388C818.585 210.688 819.053 211.066 819.389 211.522V210.082H821.459V220.162C821.459 221.074 821.267 221.884 820.883 222.592C820.499 223.312 819.941 223.876 819.209 224.284C818.489 224.692 817.625 224.896 816.617 224.896C815.273 224.896 814.157 224.578 813.269 223.942C812.381 223.318 811.877 222.466 811.757 221.386H813.791C813.947 221.902 814.277 222.316 814.781 222.628C815.297 222.952 815.909 223.114 816.617 223.114C817.445 223.114 818.111 222.862 818.615 222.358C819.131 221.854 819.389 221.122 819.389 220.162V218.506C819.041 218.974 818.567 219.37 817.967 219.694C817.379 220.006 816.707 220.162 815.951 220.162C815.087 220.162 814.295 219.946 813.575 219.514C812.867 219.07 812.303 218.458 811.883 217.678C811.475 216.886 811.271 215.992 811.271 214.996C811.271 214 811.475 213.118 811.883 212.35C812.303 211.582 812.867 210.988 813.575 210.568C814.295 210.136 815.087 209.92 815.951 209.92ZM819.389 215.032C819.389 214.348 819.245 213.754 818.957 213.25C818.681 212.746 818.315 212.362 817.859 212.098C817.403 211.834 816.911 211.702 816.383 211.702C815.855 211.702 815.363 211.834 814.907 212.098C814.451 212.35 814.079 212.728 813.791 213.232C813.515 213.724 813.377 214.312 813.377 214.996C813.377 215.68 813.515 216.28 813.791 216.796C814.079 217.312 814.451 217.708 814.907 217.984C815.375 218.248 815.867 218.38 816.383 218.38C816.911 218.38 817.403 218.248 817.859 217.984C818.315 217.72 818.681 217.336 818.957 216.832C819.245 216.316 819.389 215.716 819.389 215.032Z" fill="black"/>
<path d="M865 125.5H955" stroke="#F88312" stroke-width="12" stroke-linecap="round"/>
<path d="M1054.9 29.8519C1056.89 27.0082 1061.11 27.0082 1063.1 29.8519L1077.99 51.1305C1079.11 52.7229 1081.04 53.525 1082.96 53.1871L1108.53 48.6729C1111.95 48.0697 1114.93 51.0476 1114.33 54.4658L1109.81 80.0441C1109.48 81.9582 1110.28 83.8947 1111.87 85.0093L1133.15 99.9038C1135.99 101.894 1135.99 106.106 1133.15 108.096L1111.87 122.991C1110.28 124.105 1109.48 126.042 1109.81 127.956L1114.33 153.534C1114.93 156.952 1111.95 159.93 1108.53 159.327L1082.96 154.813C1081.04 154.475 1079.11 155.277 1077.99 156.87L1063.1 178.148C1061.11 180.992 1056.89 180.992 1054.9 178.148L1040.01 156.87C1038.89 155.277 1036.96 154.475 1035.04 154.813L1009.47 159.327C1006.05 159.93 1003.07 156.952 1003.67 153.534L1008.19 127.956C1008.52 126.042 1007.72 124.105 1006.13 122.991L984.852 108.096C982.008 106.106 982.008 101.894 984.852 99.9038L1006.13 85.0093C1007.72 83.8947 1008.52 81.9582 1008.19 80.0441L1003.67 54.4658C1003.07 51.0476 1006.05 48.0697 1009.47 48.6729L1035.04 53.1871C1036.96 53.525 1038.89 52.7229 1040.01 51.1305L1054.9 29.8519Z" fill="#F88312"/>
<path d="M1026.9 97V94.912L1033.57 88.576C1034.13 88.048 1034.55 87.584 1034.82 87.184C1035.09 86.784 1035.27 86.416 1035.35 86.08C1035.44 85.728 1035.49 85.4 1035.49 85.096C1035.49 84.328 1035.23 83.736 1034.7 83.32C1034.17 82.888 1033.39 82.672 1032.37 82.672C1031.55 82.672 1030.81 82.816 1030.14 83.104C1029.48 83.392 1028.91 83.832 1028.43 84.424L1026.25 82.744C1026.91 81.864 1027.79 81.184 1028.89 80.704C1030.01 80.208 1031.26 79.96 1032.63 79.96C1033.85 79.96 1034.91 80.16 1035.8 80.56C1036.71 80.944 1037.41 81.496 1037.89 82.216C1038.39 82.936 1038.63 83.792 1038.63 84.784C1038.63 85.328 1038.56 85.872 1038.42 86.416C1038.27 86.944 1038 87.504 1037.6 88.096C1037.2 88.688 1036.62 89.352 1035.85 90.088L1030.11 95.536L1029.47 94.36H1039.28V97H1026.9ZM1043.89 97L1050.83 81.448L1051.64 82.84H1042.12L1043.6 81.328V85.696H1040.7V80.2H1053.76V82.288L1047.23 97H1043.89ZM1054.75 91.576V89.08H1061.35V91.576H1054.75ZM1063.16 97V94.912L1069.83 88.576C1070.39 88.048 1070.8 87.584 1071.08 87.184C1071.35 86.784 1071.52 86.416 1071.6 86.08C1071.7 85.728 1071.75 85.4 1071.75 85.096C1071.75 84.328 1071.48 83.736 1070.96 83.32C1070.43 82.888 1069.65 82.672 1068.63 82.672C1067.81 82.672 1067.07 82.816 1066.4 83.104C1065.74 83.392 1065.17 83.832 1064.69 84.424L1062.51 82.744C1063.16 81.864 1064.04 81.184 1065.15 80.704C1066.27 80.208 1067.52 79.96 1068.89 79.96C1070.11 79.96 1071.16 80.16 1072.06 80.56C1072.97 80.944 1073.67 81.496 1074.15 82.216C1074.64 82.936 1074.89 83.792 1074.89 84.784C1074.89 85.328 1074.82 85.872 1074.68 86.416C1074.53 86.944 1074.26 87.504 1073.86 88.096C1073.46 88.688 1072.88 89.352 1072.11 90.088L1066.37 95.536L1065.72 94.36H1075.54V97H1063.16ZM1084.09 97.24C1082.69 97.24 1081.49 97.032 1080.46 96.616C1079.44 96.2 1078.65 95.616 1078.09 94.864C1077.53 94.096 1077.25 93.2 1077.25 92.176C1077.25 91.152 1077.52 90.288 1078.06 89.584C1078.61 88.88 1079.39 88.344 1080.41 87.976C1081.44 87.608 1082.66 87.424 1084.09 87.424C1085.51 87.424 1086.73 87.608 1087.76 87.976C1088.8 88.344 1089.59 88.888 1090.13 89.608C1090.69 90.312 1090.97 91.168 1090.97 92.176C1090.97 93.2 1090.69 94.096 1090.11 94.864C1089.55 95.616 1088.75 96.2 1087.71 96.616C1086.69 97.032 1085.48 97.24 1084.09 97.24ZM1084.09 94.792C1085.24 94.792 1086.15 94.552 1086.82 94.072C1087.49 93.592 1087.83 92.928 1087.83 92.08C1087.83 91.248 1087.49 90.592 1086.82 90.112C1086.15 89.632 1085.24 89.392 1084.09 89.392C1082.93 89.392 1082.03 89.632 1081.37 90.112C1080.72 90.592 1080.39 91.248 1080.39 92.08C1080.39 92.928 1080.72 93.592 1081.37 94.072C1082.03 94.552 1082.93 94.792 1084.09 94.792ZM1084.09 89.056C1082.79 89.056 1081.68 88.888 1080.75 88.552C1079.82 88.2 1079.1 87.696 1078.59 87.04C1078.09 86.368 1077.85 85.568 1077.85 84.64C1077.85 83.68 1078.1 82.856 1078.61 82.168C1079.14 81.464 1079.88 80.92 1080.82 80.536C1081.77 80.152 1082.85 79.96 1084.09 79.96C1085.33 79.96 1086.43 80.152 1087.37 80.536C1088.32 80.92 1089.05 81.464 1089.58 82.168C1090.11 82.856 1090.37 83.68 1090.37 84.64C1090.37 85.568 1090.12 86.368 1089.61 87.04C1089.11 87.696 1088.39 88.2 1087.45 88.552C1086.5 88.888 1085.38 89.056 1084.09 89.056ZM1084.09 87.136C1085.08 87.136 1085.86 86.928 1086.44 86.512C1087.01 86.08 1087.3 85.504 1087.3 84.784C1087.3 84.032 1087.01 83.448 1086.41 83.032C1085.82 82.616 1085.05 82.408 1084.09 82.408C1083.13 82.408 1082.36 82.616 1081.78 83.032C1081.21 83.448 1080.92 84.032 1080.92 84.784C1080.92 85.504 1081.2 86.08 1081.76 86.512C1082.33 86.928 1083.11 87.136 1084.09 87.136ZM1037.05 127V110.2H1039.61L1050.15 123.136H1048.88V110.2H1051.97V127H1049.41L1038.87 114.064H1040.14V127H1037.05ZM1061.95 127.168C1060.63 127.168 1059.47 126.888 1058.44 126.328C1057.42 125.752 1056.61 124.968 1056.02 123.976C1055.43 122.984 1055.13 121.856 1055.13 120.592C1055.13 119.312 1055.43 118.184 1056.02 117.208C1056.61 116.216 1057.42 115.44 1058.44 114.88C1059.47 114.32 1060.63 114.04 1061.95 114.04C1063.27 114.04 1064.45 114.32 1065.47 114.88C1066.51 115.44 1067.32 116.208 1067.9 117.184C1068.49 118.16 1068.79 119.296 1068.79 120.592C1068.79 121.856 1068.49 122.984 1067.9 123.976C1067.32 124.968 1066.51 125.752 1065.47 126.328C1064.45 126.888 1063.27 127.168 1061.95 127.168ZM1061.95 124.6C1062.68 124.6 1063.34 124.44 1063.91 124.12C1064.49 123.8 1064.94 123.336 1065.26 122.728C1065.59 122.12 1065.76 121.408 1065.76 120.592C1065.76 119.76 1065.59 119.048 1065.26 118.456C1064.94 117.848 1064.49 117.384 1063.91 117.064C1063.34 116.744 1062.69 116.584 1061.97 116.584C1061.23 116.584 1060.58 116.744 1060 117.064C1059.44 117.384 1058.99 117.848 1058.66 118.456C1058.32 119.048 1058.15 119.76 1058.15 120.592C1058.15 121.408 1058.32 122.12 1058.66 122.728C1058.99 123.336 1059.44 123.8 1060 124.12C1060.58 124.44 1061.23 124.6 1061.95 124.6ZM1074.71 127L1069.22 114.184H1072.34L1077.06 125.488H1075.53L1080.42 114.184H1083.3L1077.81 127H1074.71Z" fill="white"/>
<path d="M1036.75 211.216C1036.75 211.852 1036.6 212.452 1036.3 213.016C1036 213.58 1035.52 214.042 1034.86 214.402C1034.2 214.75 1033.36 214.924 1032.33 214.924H1030.06V220H1028.01V207.49H1032.33C1033.29 207.49 1034.1 207.658 1034.76 207.994C1035.43 208.318 1035.93 208.762 1036.25 209.326C1036.59 209.89 1036.75 210.52 1036.75 211.216ZM1032.33 213.25C1033.11 213.25 1033.69 213.076 1034.07 212.728C1034.46 212.368 1034.65 211.864 1034.65 211.216C1034.65 209.848 1033.87 209.164 1032.33 209.164H1030.06V213.25H1032.33ZM1040.76 209.146V212.818H1045.08V214.492H1040.76V218.326H1045.62V220H1038.71V207.472H1045.62V209.146H1040.76ZM1061.33 207.49V220H1059.27V211.432L1055.46 220H1054.04L1050.2 211.432V220H1048.15V207.49H1050.36L1054.76 217.3L1059.13 207.49H1061.33ZM1066.08 207.49V220H1064.02V207.49H1066.08ZM1075.27 220L1072.39 214.996H1070.82V220H1068.77V207.49H1073.09C1074.05 207.49 1074.86 207.658 1075.52 207.994C1076.19 208.33 1076.69 208.78 1077.01 209.344C1077.35 209.908 1077.52 210.538 1077.52 211.234C1077.52 212.05 1077.28 212.794 1076.8 213.466C1076.33 214.126 1075.6 214.576 1074.62 214.816L1077.72 220H1075.27ZM1070.82 213.358H1073.09C1073.86 213.358 1074.43 213.166 1074.82 212.782C1075.21 212.398 1075.41 211.882 1075.41 211.234C1075.41 210.586 1075.22 210.082 1074.84 209.722C1074.45 209.35 1073.87 209.164 1073.09 209.164H1070.82V213.358ZM1087.68 217.444H1082.45L1081.55 220H1079.4L1083.89 207.472H1086.26L1090.74 220H1088.58L1087.68 217.444ZM1087.11 215.77L1085.07 209.956L1083.02 215.77H1087.11Z" fill="black"/>
</svg>
