<svg width="635" height="478" viewBox="0 0 635 478" fill="none" xmlns="http://www.w3.org/2000/svg">
<path d="M164.404 29.8519C166.394 27.0082 170.606 27.0082 172.596 29.8519L187.491 51.1305C188.605 52.7229 190.542 53.525 192.456 53.1871L218.034 48.6729C221.452 48.0697 224.43 51.0476 223.827 54.4658L219.313 80.0441C218.975 81.9582 219.777 83.8947 221.37 85.0093L242.648 99.9038C245.492 101.894 245.492 106.106 242.648 108.096L221.37 122.991C219.777 124.105 218.975 126.042 219.313 127.956L223.827 153.534C224.43 156.952 221.452 159.93 218.034 159.327L192.456 154.813C190.542 154.475 188.605 155.277 187.491 156.87L172.596 178.148C170.606 180.992 166.394 180.992 164.404 178.148L149.509 156.87C148.395 155.277 146.458 154.475 144.544 154.813L118.966 159.327C115.548 159.93 112.57 156.952 113.173 153.534L117.687 127.956C118.025 126.042 117.223 124.105 115.63 122.991L94.3519 108.096C91.5082 106.106 91.5082 101.894 94.3519 99.9038L115.63 85.0093C117.223 83.8947 118.025 81.9582 117.687 80.0441L113.173 54.4658C112.57 51.0476 115.548 48.0697 118.966 48.6729L144.544 53.1871C146.458 53.525 148.395 52.7229 149.509 51.1305L164.404 29.8519Z" fill="#F88312"/>
<path d="M144.713 97V81.4L146.081 82.816H141.161V80.2H147.833V97H144.713ZM156.445 97.24C155.261 97.24 154.101 97.072 152.965 96.736C151.845 96.384 150.901 95.904 150.133 95.296L151.477 92.872C152.085 93.368 152.821 93.768 153.685 94.072C154.549 94.376 155.453 94.528 156.397 94.528C157.517 94.528 158.389 94.304 159.013 93.856C159.637 93.392 159.949 92.768 159.949 91.984C159.949 91.216 159.661 90.608 159.085 90.16C158.509 89.712 157.581 89.488 156.301 89.488H154.765V87.352L159.565 81.64L159.973 82.816H150.949V80.2H162.397V82.288L157.597 88L155.965 87.04H156.901C158.965 87.04 160.509 87.504 161.533 88.432C162.573 89.344 163.093 90.52 163.093 91.96C163.093 92.904 162.853 93.776 162.373 94.576C161.893 95.376 161.157 96.024 160.165 96.52C159.189 97 157.949 97.24 156.445 97.24ZM165.398 91.576V89.08H171.998V91.576H165.398ZM176.588 97V81.4L177.956 82.816H173.036V80.2H179.708V97H176.588ZM190.312 97.24C188.792 97.24 187.488 96.92 186.4 96.28C185.312 95.624 184.48 94.68 183.904 93.448C183.328 92.216 183.04 90.696 183.04 88.888C183.04 86.968 183.384 85.344 184.072 84.016C184.776 82.688 185.744 81.68 186.976 80.992C188.224 80.304 189.656 79.96 191.272 79.96C192.12 79.96 192.928 80.048 193.696 80.224C194.48 80.4 195.144 80.672 195.688 81.04L194.536 83.392C194.072 83.088 193.568 82.88 193.024 82.768C192.496 82.64 191.936 82.576 191.344 82.576C189.76 82.576 188.504 83.064 187.576 84.04C186.648 85.016 186.184 86.456 186.184 88.36C186.184 88.664 186.192 89.024 186.208 89.44C186.224 89.84 186.28 90.248 186.376 90.664L185.416 89.608C185.704 88.952 186.096 88.408 186.592 87.976C187.104 87.528 187.704 87.192 188.392 86.968C189.096 86.744 189.856 86.632 190.672 86.632C191.776 86.632 192.76 86.848 193.624 87.28C194.488 87.696 195.176 88.296 195.688 89.08C196.2 89.848 196.456 90.752 196.456 91.792C196.456 92.896 196.184 93.856 195.64 94.672C195.096 95.488 194.36 96.12 193.432 96.568C192.504 97.016 191.464 97.24 190.312 97.24ZM190.144 94.792C190.784 94.792 191.352 94.68 191.848 94.456C192.344 94.216 192.728 93.88 193 93.448C193.288 93.016 193.432 92.512 193.432 91.936C193.432 91.056 193.128 90.36 192.52 89.848C191.912 89.336 191.096 89.08 190.072 89.08C189.4 89.08 188.808 89.208 188.296 89.464C187.8 89.704 187.4 90.04 187.096 90.472C186.808 90.904 186.664 91.4 186.664 91.96C186.664 92.472 186.8 92.944 187.072 93.376C187.344 93.808 187.736 94.152 188.248 94.408C188.776 94.664 189.408 94.792 190.144 94.792ZM147.045 127V110.2H149.613L160.149 123.136H158.877V110.2H161.973V127H159.405L148.869 114.064H150.141V127H147.045ZM171.947 127.168C170.635 127.168 169.467 126.888 168.443 126.328C167.419 125.752 166.611 124.968 166.019 123.976C165.427 122.984 165.131 121.856 165.131 120.592C165.131 119.312 165.427 118.184 166.019 117.208C166.611 116.216 167.419 115.44 168.443 114.88C169.467 114.32 170.635 114.04 171.947 114.04C173.275 114.04 174.451 114.32 175.475 114.88C176.515 115.44 177.323 116.208 177.899 117.184C178.491 118.16 178.787 119.296 178.787 120.592C178.787 121.856 178.491 122.984 177.899 123.976C177.323 124.968 176.515 125.752 175.475 126.328C174.451 126.888 173.275 127.168 171.947 127.168ZM171.947 124.6C172.683 124.6 173.339 124.44 173.915 124.12C174.491 123.8 174.939 123.336 175.259 122.728C175.595 122.12 175.763 121.408 175.763 120.592C175.763 119.76 175.595 119.048 175.259 118.456C174.939 117.848 174.491 117.384 173.915 117.064C173.339 116.744 172.691 116.584 171.971 116.584C171.235 116.584 170.579 116.744 170.003 117.064C169.443 117.384 168.995 117.848 168.659 118.456C168.323 119.048 168.155 119.76 168.155 120.592C168.155 121.408 168.323 122.12 168.659 122.728C168.995 123.336 169.443 123.8 170.003 124.12C170.579 124.44 171.227 124.6 171.947 124.6ZM184.712 127L179.216 114.184H182.336L187.064 125.488H185.528L190.424 114.184H193.304L187.808 127H184.712Z" fill="white"/>
<path d="M113.001 207.49C114.333 207.49 115.497 207.748 116.493 208.264C117.501 208.768 118.275 209.5 118.815 210.46C119.367 211.408 119.643 212.518 119.643 213.79C119.643 215.062 119.367 216.166 118.815 217.102C118.275 218.038 117.501 218.758 116.493 219.262C115.497 219.754 114.333 220 113.001 220H108.915V207.49H113.001ZM113.001 218.326C114.465 218.326 115.587 217.93 116.367 217.138C117.147 216.346 117.537 215.23 117.537 213.79C117.537 212.338 117.147 211.204 116.367 210.388C115.587 209.572 114.465 209.164 113.001 209.164H110.967V218.326H113.001ZM122.721 208.768C122.349 208.768 122.037 208.642 121.785 208.39C121.533 208.138 121.407 207.826 121.407 207.454C121.407 207.082 121.533 206.77 121.785 206.518C122.037 206.266 122.349 206.14 122.721 206.14C123.081 206.14 123.387 206.266 123.639 206.518C123.891 206.77 124.017 207.082 124.017 207.454C124.017 207.826 123.891 208.138 123.639 208.39C123.387 208.642 123.081 208.768 122.721 208.768ZM123.729 210.082V220H121.677V210.082H123.729ZM130.023 220.162C129.243 220.162 128.541 220.024 127.917 219.748C127.305 219.46 126.819 219.076 126.459 218.596C126.099 218.104 125.907 217.558 125.883 216.958H128.007C128.043 217.378 128.241 217.732 128.601 218.02C128.973 218.296 129.435 218.434 129.987 218.434C130.563 218.434 131.007 218.326 131.319 218.11C131.643 217.882 131.805 217.594 131.805 217.246C131.805 216.874 131.625 216.598 131.265 216.418C130.917 216.238 130.359 216.04 129.591 215.824C128.847 215.62 128.241 215.422 127.773 215.23C127.305 215.038 126.897 214.744 126.549 214.348C126.213 213.952 126.045 213.43 126.045 212.782C126.045 212.254 126.201 211.774 126.513 211.342C126.825 210.898 127.269 210.55 127.845 210.298C128.433 210.046 129.105 209.92 129.861 209.92C130.989 209.92 131.895 210.208 132.579 210.784C133.275 211.348 133.647 212.122 133.695 213.106H131.643C131.607 212.662 131.427 212.308 131.103 212.044C130.779 211.78 130.341 211.648 129.789 211.648C129.249 211.648 128.835 211.75 128.547 211.954C128.259 212.158 128.115 212.428 128.115 212.764C128.115 213.028 128.211 213.25 128.403 213.43C128.595 213.61 128.829 213.754 129.105 213.862C129.381 213.958 129.789 214.084 130.329 214.24C131.049 214.432 131.637 214.63 132.093 214.834C132.561 215.026 132.963 215.314 133.299 215.698C133.635 216.082 133.809 216.592 133.821 217.228C133.821 217.792 133.665 218.296 133.353 218.74C133.041 219.184 132.597 219.532 132.021 219.784C131.457 220.036 130.791 220.162 130.023 220.162ZM139.962 215.05L144.534 220H141.762L138.09 215.734V220H136.038V206.68H138.09V214.42L141.69 210.082H144.534L139.962 215.05ZM154.987 210.082V220H152.935V218.83C152.611 219.238 152.185 219.562 151.657 219.802C151.141 220.03 150.589 220.144 150.001 220.144C149.221 220.144 148.519 219.982 147.895 219.658C147.283 219.334 146.797 218.854 146.437 218.218C146.089 217.582 145.915 216.814 145.915 215.914V210.082H147.949V215.608C147.949 216.496 148.171 217.18 148.615 217.66C149.059 218.128 149.665 218.362 150.433 218.362C151.201 218.362 151.807 218.128 152.251 217.66C152.707 217.18 152.935 216.496 152.935 215.608V210.082H154.987ZM161.295 220.162C160.515 220.162 159.813 220.024 159.189 219.748C158.577 219.46 158.091 219.076 157.731 218.596C157.371 218.104 157.179 217.558 157.155 216.958H159.279C159.315 217.378 159.513 217.732 159.873 218.02C160.245 218.296 160.707 218.434 161.259 218.434C161.835 218.434 162.279 218.326 162.591 218.11C162.915 217.882 163.077 217.594 163.077 217.246C163.077 216.874 162.897 216.598 162.537 216.418C162.189 216.238 161.631 216.04 160.863 215.824C160.119 215.62 159.513 215.422 159.045 215.23C158.577 215.038 158.169 214.744 157.821 214.348C157.485 213.952 157.317 213.43 157.317 212.782C157.317 212.254 157.473 211.774 157.785 211.342C158.097 210.898 158.541 210.55 159.117 210.298C159.705 210.046 160.377 209.92 161.133 209.92C162.261 209.92 163.167 210.208 163.851 210.784C164.547 211.348 164.919 212.122 164.967 213.106H162.915C162.879 212.662 162.699 212.308 162.375 212.044C162.051 211.78 161.613 211.648 161.061 211.648C160.521 211.648 160.107 211.75 159.819 211.954C159.531 212.158 159.387 212.428 159.387 212.764C159.387 213.028 159.483 213.25 159.675 213.43C159.867 213.61 160.101 213.754 160.377 213.862C160.653 213.958 161.061 214.084 161.601 214.24C162.321 214.432 162.909 214.63 163.365 214.834C163.833 215.026 164.235 215.314 164.571 215.698C164.907 216.082 165.081 216.592 165.093 217.228C165.093 217.792 164.937 218.296 164.625 218.74C164.313 219.184 163.869 219.532 163.293 219.784C162.729 220.036 162.063 220.162 161.295 220.162ZM168.354 208.768C167.982 208.768 167.67 208.642 167.418 208.39C167.166 208.138 167.04 207.826 167.04 207.454C167.04 207.082 167.166 206.77 167.418 206.518C167.67 206.266 167.982 206.14 168.354 206.14C168.714 206.14 169.02 206.266 169.272 206.518C169.524 206.77 169.65 207.082 169.65 207.454C169.65 207.826 169.524 208.138 169.272 208.39C169.02 208.642 168.714 208.768 168.354 208.768ZM169.362 210.082V220H167.31V210.082H169.362ZM185.48 211.216C185.48 211.852 185.33 212.452 185.03 213.016C184.73 213.58 184.25 214.042 183.59 214.402C182.93 214.75 182.084 214.924 181.052 214.924H178.784V220H176.732V207.49H181.052C182.012 207.49 182.822 207.658 183.482 207.994C184.154 208.318 184.652 208.762 184.976 209.326C185.312 209.89 185.48 210.52 185.48 211.216ZM181.052 213.25C181.832 213.25 182.414 213.076 182.798 212.728C183.182 212.368 183.374 211.864 183.374 211.216C183.374 209.848 182.6 209.164 181.052 209.164H178.784V213.25H181.052ZM196.419 210.082V220H194.367V218.83C194.043 219.238 193.617 219.562 193.089 219.802C192.573 220.03 192.021 220.144 191.433 220.144C190.653 220.144 189.951 219.982 189.327 219.658C188.715 219.334 188.229 218.854 187.869 218.218C187.521 217.582 187.347 216.814 187.347 215.914V210.082H189.381V215.608C189.381 216.496 189.603 217.18 190.047 217.66C190.491 218.128 191.097 218.362 191.865 218.362C192.633 218.362 193.239 218.128 193.683 217.66C194.139 217.18 194.367 216.496 194.367 215.608V210.082H196.419ZM201.178 211.558C201.526 211.078 202 210.688 202.6 210.388C203.212 210.076 203.89 209.92 204.634 209.92C205.51 209.92 206.302 210.13 207.01 210.55C207.718 210.97 208.276 211.57 208.684 212.35C209.092 213.118 209.296 214 209.296 214.996C209.296 215.992 209.092 216.886 208.684 217.678C208.276 218.458 207.712 219.07 206.992 219.514C206.284 219.946 205.498 220.162 204.634 220.162C203.866 220.162 203.182 220.012 202.582 219.712C201.994 219.412 201.526 219.028 201.178 218.56V220H199.126V206.68H201.178V211.558ZM207.208 214.996C207.208 214.312 207.064 213.724 206.776 213.232C206.5 212.728 206.128 212.35 205.66 212.098C205.204 211.834 204.712 211.702 204.184 211.702C203.668 211.702 203.176 211.834 202.708 212.098C202.252 212.362 201.88 212.746 201.592 213.25C201.316 213.754 201.178 214.348 201.178 215.032C201.178 215.716 201.316 216.316 201.592 216.832C201.88 217.336 202.252 217.72 202.708 217.984C203.176 218.248 203.668 218.38 204.184 218.38C204.712 218.38 205.204 218.248 205.66 217.984C206.128 217.708 206.5 217.312 206.776 216.796C207.064 216.28 207.208 215.68 207.208 214.996ZM213.378 206.68V220H211.326V206.68H213.378ZM217.116 208.768C216.744 208.768 216.432 208.642 216.18 208.39C215.928 208.138 215.802 207.826 215.802 207.454C215.802 207.082 215.928 206.77 216.18 206.518C216.432 206.266 216.744 206.14 217.116 206.14C217.476 206.14 217.782 206.266 218.034 206.518C218.286 206.77 218.412 207.082 218.412 207.454C218.412 207.826 218.286 208.138 218.034 208.39C217.782 208.642 217.476 208.768 217.116 208.768ZM218.124 210.082V220H216.072V210.082H218.124ZM224.742 215.05L229.314 220H226.542L222.87 215.734V220H220.818V206.68H222.87V214.42L226.47 210.082H229.314L224.742 215.05Z" fill="black"/>
<path d="M272.5 125.5H362.5" stroke="#F88312" stroke-width="12" stroke-linecap="round"/>
<path d="M462.404 29.8519C464.394 27.0082 468.606 27.0082 470.596 29.8519L485.491 51.1305C486.605 52.7229 488.542 53.525 490.456 53.1871L516.034 48.6729C519.452 48.0697 522.43 51.0476 521.827 54.4658L517.313 80.0441C516.975 81.9582 517.777 83.8947 519.37 85.0093L540.648 99.9038C543.492 101.894 543.492 106.106 540.648 108.096L519.37 122.991C517.777 124.105 516.975 126.042 517.313 127.956L521.827 153.534C522.43 156.952 519.452 159.93 516.034 159.327L490.456 154.813C488.542 154.475 486.605 155.277 485.491 156.87L470.596 178.148C468.606 180.992 464.394 180.992 462.404 178.148L447.509 156.87C446.395 155.277 444.458 154.475 442.544 154.813L416.966 159.327C413.548 159.93 410.57 156.952 411.173 153.534L415.687 127.956C416.025 126.042 415.223 124.105 413.63 122.991L392.352 108.096C389.508 106.106 389.508 101.894 392.352 99.9038L413.63 85.0093C415.223 83.8947 416.025 81.9582 415.687 80.0441L411.173 54.4658C410.57 51.0476 413.548 48.0697 416.966 48.6729L442.544 53.1871C444.458 53.525 446.395 52.7229 447.509 51.1305L462.404 29.8519Z" fill="#F88312"/>
<path d="M456.285 97V94.912L462.957 88.576C463.517 88.048 463.933 87.584 464.205 87.184C464.477 86.784 464.653 86.416 464.733 86.08C464.829 85.728 464.877 85.4 464.877 85.096C464.877 84.328 464.613 83.736 464.085 83.32C463.557 82.888 462.781 82.672 461.757 82.672C460.941 82.672 460.197 82.816 459.525 83.104C458.869 83.392 458.301 83.832 457.821 84.424L455.637 82.744C456.293 81.864 457.173 81.184 458.277 80.704C459.397 80.208 460.645 79.96 462.021 79.96C463.237 79.96 464.293 80.16 465.189 80.56C466.101 80.944 466.797 81.496 467.277 82.216C467.773 82.936 468.021 83.792 468.021 84.784C468.021 85.328 467.949 85.872 467.805 86.416C467.661 86.944 467.389 87.504 466.989 88.096C466.589 88.688 466.005 89.352 465.237 90.088L459.501 95.536L458.853 94.36H468.669V97H456.285ZM473.158 97V81.4L474.526 82.816H469.606V80.2H476.278V97H473.158ZM445.045 127V110.2H447.613L458.149 123.136H456.877V110.2H459.973V127H457.405L446.869 114.064H448.141V127H445.045ZM469.947 127.168C468.635 127.168 467.467 126.888 466.443 126.328C465.419 125.752 464.611 124.968 464.019 123.976C463.427 122.984 463.131 121.856 463.131 120.592C463.131 119.312 463.427 118.184 464.019 117.208C464.611 116.216 465.419 115.44 466.443 114.88C467.467 114.32 468.635 114.04 469.947 114.04C471.275 114.04 472.451 114.32 473.475 114.88C474.515 115.44 475.323 116.208 475.899 117.184C476.491 118.16 476.787 119.296 476.787 120.592C476.787 121.856 476.491 122.984 475.899 123.976C475.323 124.968 474.515 125.752 473.475 126.328C472.451 126.888 471.275 127.168 469.947 127.168ZM469.947 124.6C470.683 124.6 471.339 124.44 471.915 124.12C472.491 123.8 472.939 123.336 473.259 122.728C473.595 122.12 473.763 121.408 473.763 120.592C473.763 119.76 473.595 119.048 473.259 118.456C472.939 117.848 472.491 117.384 471.915 117.064C471.339 116.744 470.691 116.584 469.971 116.584C469.235 116.584 468.579 116.744 468.003 117.064C467.443 117.384 466.995 117.848 466.659 118.456C466.323 119.048 466.155 119.76 466.155 120.592C466.155 121.408 466.323 122.12 466.659 122.728C466.995 123.336 467.443 123.8 468.003 124.12C468.579 124.44 469.227 124.6 469.947 124.6ZM482.712 127L477.216 114.184H480.336L485.064 125.488H483.528L488.424 114.184H491.304L485.808 127H482.712Z" fill="white"/>
<path d="M393.687 207.49C395.019 207.49 396.183 207.748 397.179 208.264C398.187 208.768 398.961 209.5 399.501 210.46C400.053 211.408 400.329 212.518 400.329 213.79C400.329 215.062 400.053 216.166 399.501 217.102C398.961 218.038 398.187 218.758 397.179 219.262C396.183 219.754 395.019 220 393.687 220H389.601V207.49H393.687ZM393.687 218.326C395.151 218.326 396.273 217.93 397.053 217.138C397.833 216.346 398.223 215.23 398.223 213.79C398.223 212.338 397.833 211.204 397.053 210.388C396.273 209.572 395.151 209.164 393.687 209.164H391.653V218.326H393.687ZM411.453 214.798C411.453 215.17 411.429 215.506 411.381 215.806H403.803C403.863 216.598 404.157 217.234 404.685 217.714C405.213 218.194 405.861 218.434 406.629 218.434C407.733 218.434 408.513 217.972 408.969 217.048H411.183C410.883 217.96 410.337 218.71 409.545 219.298C408.765 219.874 407.793 220.162 406.629 220.162C405.681 220.162 404.829 219.952 404.073 219.532C403.329 219.1 402.741 218.5 402.309 217.732C401.889 216.952 401.679 216.052 401.679 215.032C401.679 214.012 401.883 213.118 402.291 212.35C402.711 211.57 403.293 210.97 404.037 210.55C404.793 210.13 405.657 209.92 406.629 209.92C407.565 209.92 408.399 210.124 409.131 210.532C409.863 210.94 410.433 211.516 410.841 212.26C411.249 212.992 411.453 213.838 411.453 214.798ZM409.311 214.15C409.299 213.394 409.029 212.788 408.501 212.332C407.973 211.876 407.319 211.648 406.539 211.648C405.831 211.648 405.225 211.876 404.721 212.332C404.217 212.776 403.917 213.382 403.821 214.15H409.311ZM415.524 211.558C415.872 211.078 416.346 210.688 416.946 210.388C417.558 210.076 418.236 209.92 418.98 209.92C419.856 209.92 420.648 210.13 421.356 210.55C422.064 210.97 422.622 211.57 423.03 212.35C423.438 213.118 423.642 214 423.642 214.996C423.642 215.992 423.438 216.886 423.03 217.678C422.622 218.458 422.058 219.07 421.338 219.514C420.63 219.946 419.844 220.162 418.98 220.162C418.212 220.162 417.528 220.012 416.928 219.712C416.34 219.412 415.872 219.028 415.524 218.56V220H413.472V206.68H415.524V211.558ZM421.554 214.996C421.554 214.312 421.41 213.724 421.122 213.232C420.846 212.728 420.474 212.35 420.006 212.098C419.55 211.834 419.058 211.702 418.53 211.702C418.014 211.702 417.522 211.834 417.054 212.098C416.598 212.362 416.226 212.746 415.938 213.25C415.662 213.754 415.524 214.348 415.524 215.032C415.524 215.716 415.662 216.316 415.938 216.832C416.226 217.336 416.598 217.72 417.054 217.984C417.522 218.248 418.014 218.38 418.53 218.38C419.058 218.38 419.55 218.248 420.006 217.984C420.474 217.708 420.846 217.312 421.122 216.796C421.41 216.28 421.554 215.68 421.554 214.996ZM424.987 214.996C424.987 214 425.191 213.118 425.599 212.35C426.019 211.582 426.583 210.988 427.291 210.568C428.011 210.136 428.803 209.92 429.667 209.92C430.447 209.92 431.125 210.076 431.701 210.388C432.289 210.688 432.757 211.066 433.105 211.522V210.082H435.175V220H433.105V218.524C432.757 218.992 432.283 219.382 431.683 219.694C431.083 220.006 430.399 220.162 429.631 220.162C428.779 220.162 427.999 219.946 427.291 219.514C426.583 219.07 426.019 218.458 425.599 217.678C425.191 216.886 424.987 215.992 424.987 214.996ZM433.105 215.032C433.105 214.348 432.961 213.754 432.673 213.25C432.397 212.746 432.031 212.362 431.575 212.098C431.119 211.834 430.627 211.702 430.099 211.702C429.571 211.702 429.079 211.834 428.623 212.098C428.167 212.35 427.795 212.728 427.507 213.232C427.231 213.724 427.093 214.312 427.093 214.996C427.093 215.68 427.231 216.28 427.507 216.796C427.795 217.312 428.167 217.708 428.623 217.984C429.091 218.248 429.583 218.38 430.099 218.38C430.627 218.38 431.119 218.248 431.575 217.984C432.031 217.72 432.397 217.336 432.673 216.832C432.961 216.316 433.105 215.716 433.105 215.032ZM440.265 211.756V217.246C440.265 217.618 440.349 217.888 440.517 218.056C440.697 218.212 440.997 218.29 441.417 218.29H442.677V220H441.057C440.133 220 439.425 219.784 438.933 219.352C438.441 218.92 438.195 218.218 438.195 217.246V211.756H437.025V210.082H438.195V207.616H440.265V210.082H442.677V211.756H440.265ZM448.56 213.718C448.56 212.494 448.842 211.396 449.406 210.424C449.982 209.452 450.756 208.696 451.728 208.156C452.712 207.604 453.786 207.328 454.95 207.328C456.282 207.328 457.464 207.658 458.496 208.318C459.54 208.966 460.296 209.89 460.764 211.09H458.298C457.974 210.43 457.524 209.938 456.948 209.614C456.372 209.29 455.706 209.128 454.95 209.128C454.122 209.128 453.384 209.314 452.736 209.686C452.088 210.058 451.578 210.592 451.206 211.288C450.846 211.984 450.666 212.794 450.666 213.718C450.666 214.642 450.846 215.452 451.206 216.148C451.578 216.844 452.088 217.384 452.736 217.768C453.384 218.14 454.122 218.326 454.95 218.326C455.706 218.326 456.372 218.164 456.948 217.84C457.524 217.516 457.974 217.024 458.298 216.364H460.764C460.296 217.564 459.54 218.488 458.496 219.136C457.464 219.784 456.282 220.108 454.95 220.108C453.774 220.108 452.7 219.838 451.728 219.298C450.756 218.746 449.982 217.984 449.406 217.012C448.842 216.04 448.56 214.942 448.56 213.718ZM462.481 214.996C462.481 214 462.685 213.118 463.093 212.35C463.513 211.582 464.077 210.988 464.785 210.568C465.505 210.136 466.297 209.92 467.161 209.92C467.941 209.92 468.619 210.076 469.195 210.388C469.783 210.688 470.251 211.066 470.599 211.522V210.082H472.669V220H470.599V218.524C470.251 218.992 469.777 219.382 469.177 219.694C468.577 220.006 467.893 220.162 467.125 220.162C466.273 220.162 465.493 219.946 464.785 219.514C464.077 219.07 463.513 218.458 463.093 217.678C462.685 216.886 462.481 215.992 462.481 214.996ZM470.599 215.032C470.599 214.348 470.455 213.754 470.167 213.25C469.891 212.746 469.525 212.362 469.069 212.098C468.613 211.834 468.121 211.702 467.593 211.702C467.065 211.702 466.573 211.834 466.117 212.098C465.661 212.35 465.289 212.728 465.001 213.232C464.725 213.724 464.587 214.312 464.587 214.996C464.587 215.68 464.725 216.28 465.001 216.796C465.289 217.312 465.661 217.708 466.117 217.984C466.585 218.248 467.077 218.38 467.593 218.38C468.121 218.38 468.613 218.248 469.069 217.984C469.525 217.72 469.891 217.336 470.167 216.832C470.455 216.316 470.599 215.716 470.599 215.032ZM477.417 211.54C477.765 211.084 478.239 210.7 478.839 210.388C479.439 210.076 480.117 209.92 480.873 209.92C481.737 209.92 482.523 210.136 483.231 210.568C483.951 210.988 484.515 211.582 484.923 212.35C485.331 213.118 485.535 214 485.535 214.996C485.535 215.992 485.331 216.886 484.923 217.678C484.515 218.458 483.951 219.07 483.231 219.514C482.523 219.946 481.737 220.162 480.873 220.162C480.117 220.162 479.445 220.012 478.857 219.712C478.269 219.4 477.789 219.016 477.417 218.56V224.716H475.365V210.082H477.417V211.54ZM483.447 214.996C483.447 214.312 483.303 213.724 483.015 213.232C482.739 212.728 482.367 212.35 481.899 212.098C481.443 211.834 480.951 211.702 480.423 211.702C479.907 211.702 479.415 211.834 478.947 212.098C478.491 212.362 478.119 212.746 477.831 213.25C477.555 213.754 477.417 214.348 477.417 215.032C477.417 215.716 477.555 216.316 477.831 216.832C478.119 217.336 478.491 217.72 478.947 217.984C479.415 218.248 479.907 218.38 480.423 218.38C480.951 218.38 481.443 218.248 481.899 217.984C482.367 217.708 482.739 217.312 483.015 216.796C483.303 216.28 483.447 215.68 483.447 214.996ZM489.616 211.522C489.916 211.018 490.312 210.628 490.804 210.352C491.308 210.064 491.902 209.92 492.586 209.92V212.044H492.064C491.26 212.044 490.648 212.248 490.228 212.656C489.82 213.064 489.616 213.772 489.616 214.78V220H487.564V210.082H489.616V211.522ZM503.562 214.798C503.562 215.17 503.538 215.506 503.49 215.806H495.912C495.972 216.598 496.266 217.234 496.794 217.714C497.322 218.194 497.97 218.434 498.738 218.434C499.842 218.434 500.622 217.972 501.078 217.048H503.292C502.992 217.96 502.446 218.71 501.654 219.298C500.874 219.874 499.902 220.162 498.738 220.162C497.79 220.162 496.938 219.952 496.182 219.532C495.438 219.1 494.85 218.5 494.418 217.732C493.998 216.952 493.788 216.052 493.788 215.032C493.788 214.012 493.992 213.118 494.4 212.35C494.82 211.57 495.402 210.97 496.146 210.55C496.902 210.13 497.766 209.92 498.738 209.92C499.674 209.92 500.508 210.124 501.24 210.532C501.972 210.94 502.542 211.516 502.95 212.26C503.358 212.992 503.562 213.838 503.562 214.798ZM501.42 214.15C501.408 213.394 501.138 212.788 500.61 212.332C500.082 211.876 499.428 211.648 498.648 211.648C497.94 211.648 497.334 211.876 496.83 212.332C496.326 212.776 496.026 213.382 495.93 214.15H501.42ZM509.181 220.162C508.401 220.162 507.699 220.024 507.075 219.748C506.463 219.46 505.977 219.076 505.617 218.596C505.257 218.104 505.065 217.558 505.041 216.958H507.165C507.201 217.378 507.399 217.732 507.759 218.02C508.131 218.296 508.593 218.434 509.145 218.434C509.721 218.434 510.165 218.326 510.477 218.11C510.801 217.882 510.963 217.594 510.963 217.246C510.963 216.874 510.783 216.598 510.423 216.418C510.075 216.238 509.517 216.04 508.749 215.824C508.005 215.62 507.399 215.422 506.931 215.23C506.463 215.038 506.055 214.744 505.707 214.348C505.371 213.952 505.203 213.43 505.203 212.782C505.203 212.254 505.359 211.774 505.671 211.342C505.983 210.898 506.427 210.55 507.003 210.298C507.591 210.046 508.263 209.92 509.019 209.92C510.147 209.92 511.053 210.208 511.737 210.784C512.433 211.348 512.805 212.122 512.853 213.106H510.801C510.765 212.662 510.585 212.308 510.261 212.044C509.937 211.78 509.499 211.648 508.947 211.648C508.407 211.648 507.993 211.75 507.705 211.954C507.417 212.158 507.273 212.428 507.273 212.764C507.273 213.028 507.369 213.25 507.561 213.43C507.753 213.61 507.987 213.754 508.263 213.862C508.539 213.958 508.947 214.084 509.487 214.24C510.207 214.432 510.795 214.63 511.251 214.834C511.719 215.026 512.121 215.314 512.457 215.698C512.793 216.082 512.967 216.592 512.979 217.228C512.979 217.792 512.823 218.296 512.511 218.74C512.199 219.184 511.755 219.532 511.179 219.784C510.615 220.036 509.949 220.162 509.181 220.162ZM527.203 209.92C527.983 209.92 528.679 210.082 529.291 210.406C529.915 210.73 530.401 211.21 530.749 211.846C531.109 212.482 531.289 213.25 531.289 214.15V220H529.255V214.456C529.255 213.568 529.033 212.89 528.589 212.422C528.145 211.942 527.539 211.702 526.771 211.702C526.003 211.702 525.391 211.942 524.935 212.422C524.491 212.89 524.269 213.568 524.269 214.456V220H522.235V214.456C522.235 213.568 522.013 212.89 521.569 212.422C521.125 211.942 520.519 211.702 519.751 211.702C518.983 211.702 518.371 211.942 517.915 212.422C517.471 212.89 517.249 213.568 517.249 214.456V220H515.197V210.082H517.249V211.216C517.585 210.808 518.011 210.49 518.527 210.262C519.043 210.034 519.595 209.92 520.183 209.92C520.975 209.92 521.683 210.088 522.307 210.424C522.931 210.76 523.411 211.246 523.747 211.882C524.047 211.282 524.515 210.808 525.151 210.46C525.787 210.1 526.471 209.92 527.203 209.92ZM533.216 214.996C533.216 214 533.42 213.118 533.828 212.35C534.248 211.582 534.812 210.988 535.52 210.568C536.24 210.136 537.032 209.92 537.896 209.92C538.676 209.92 539.354 210.076 539.93 210.388C540.518 210.688 540.986 211.066 541.334 211.522V210.082H543.404V220H541.334V218.524C540.986 218.992 540.512 219.382 539.912 219.694C539.312 220.006 538.628 220.162 537.86 220.162C537.008 220.162 536.228 219.946 535.52 219.514C534.812 219.07 534.248 218.458 533.828 217.678C533.42 216.886 533.216 215.992 533.216 214.996ZM541.334 215.032C541.334 214.348 541.19 213.754 540.902 213.25C540.626 212.746 540.26 212.362 539.804 212.098C539.348 211.834 538.856 211.702 538.328 211.702C537.8 211.702 537.308 211.834 536.852 212.098C536.396 212.35 536.024 212.728 535.736 213.232C535.46 213.724 535.322 214.312 535.322 214.996C535.322 215.68 535.46 216.28 535.736 216.796C536.024 217.312 536.396 217.708 536.852 217.984C537.32 218.248 537.812 218.38 538.328 218.38C538.856 218.38 539.348 218.248 539.804 217.984C540.26 217.72 540.626 217.336 540.902 216.832C541.19 216.316 541.334 215.716 541.334 215.032Z" fill="black"/>
<path d="M164.404 256.852C166.394 254.008 170.606 254.008 172.596 256.852L187.491 278.13C188.605 279.723 190.542 280.525 192.456 280.187L218.034 275.673C221.452 275.07 224.43 278.048 223.827 281.466L219.313 307.044C218.975 308.958 219.777 310.895 221.37 312.009L242.648 326.904C245.492 328.894 245.492 333.106 242.648 335.096L221.37 349.991C219.777 351.105 218.975 353.042 219.313 354.956L223.827 380.534C224.43 383.952 221.452 386.93 218.034 386.327L192.456 381.813C190.542 381.475 188.605 382.277 187.491 383.87L172.596 405.148C170.606 407.992 166.394 407.992 164.404 405.148L149.509 383.87C148.395 382.277 146.458 381.475 144.544 381.813L118.966 386.327C115.548 386.93 112.57 383.952 113.173 380.534L117.687 354.956C118.025 353.042 117.223 351.105 115.63 349.991L94.3519 335.096C91.5082 333.106 91.5082 328.894 94.3519 326.904L115.63 312.009C117.223 310.895 118.025 308.958 117.687 307.044L113.173 281.466C112.57 278.048 115.548 275.07 118.966 275.673L144.544 280.187C146.458 280.525 148.395 279.723 149.509 278.13L164.404 256.852Z" fill="#F88312"/>
<path d="M136.399 324V321.912L143.071 315.576C143.631 315.048 144.047 314.584 144.319 314.184C144.591 313.784 144.767 313.416 144.847 313.08C144.943 312.728 144.991 312.4 144.991 312.096C144.991 311.328 144.727 310.736 144.199 310.32C143.671 309.888 142.895 309.672 141.871 309.672C141.055 309.672 140.311 309.816 139.639 310.104C138.983 310.392 138.415 310.832 137.935 311.424L135.751 309.744C136.407 308.864 137.287 308.184 138.391 307.704C139.511 307.208 140.759 306.96 142.135 306.96C143.351 306.96 144.407 307.16 145.303 307.56C146.215 307.944 146.911 308.496 147.391 309.216C147.887 309.936 148.135 310.792 148.135 311.784C148.135 312.328 148.063 312.872 147.919 313.416C147.775 313.944 147.503 314.504 147.103 315.096C146.703 315.688 146.119 316.352 145.351 317.088L139.615 322.536L138.967 321.36H148.783V324H136.399ZM156.151 324.24C154.967 324.24 153.807 324.072 152.671 323.736C151.551 323.384 150.607 322.904 149.839 322.296L151.159 319.872C151.767 320.368 152.503 320.768 153.367 321.072C154.247 321.376 155.159 321.528 156.103 321.528C157.207 321.528 158.071 321.296 158.695 320.832C159.335 320.368 159.655 319.744 159.655 318.96C159.655 318.432 159.519 317.968 159.247 317.568C158.991 317.168 158.527 316.864 157.855 316.656C157.199 316.448 156.295 316.344 155.143 316.344H151.087L151.951 307.2H161.815V309.816H153.103L154.735 308.328L154.087 315.168L152.455 313.704H155.839C157.503 313.704 158.839 313.928 159.847 314.376C160.871 314.808 161.615 315.416 162.079 316.2C162.559 316.968 162.799 317.848 162.799 318.84C162.799 319.816 162.559 320.712 162.079 321.528C161.599 322.344 160.863 323 159.871 323.496C158.895 323.992 157.655 324.24 156.151 324.24ZM164.863 318.576V316.08H171.463V318.576H164.863ZM173.266 324V321.912L179.938 315.576C180.498 315.048 180.914 314.584 181.186 314.184C181.458 313.784 181.634 313.416 181.714 313.08C181.81 312.728 181.858 312.4 181.858 312.096C181.858 311.328 181.594 310.736 181.066 310.32C180.538 309.888 179.762 309.672 178.738 309.672C177.922 309.672 177.178 309.816 176.506 310.104C175.85 310.392 175.282 310.832 174.802 311.424L172.618 309.744C173.274 308.864 174.154 308.184 175.258 307.704C176.378 307.208 177.626 306.96 179.002 306.96C180.218 306.96 181.274 307.16 182.17 307.56C183.082 307.944 183.778 308.496 184.258 309.216C184.754 309.936 185.002 310.792 185.002 311.784C185.002 312.328 184.93 312.872 184.786 313.416C184.642 313.944 184.37 314.504 183.97 315.096C183.57 315.688 182.986 316.352 182.218 317.088L176.482 322.536L175.834 321.36H185.65V324H173.266ZM194.723 324.24C193.203 324.24 191.899 323.92 190.811 323.28C189.723 322.624 188.891 321.68 188.315 320.448C187.739 319.216 187.451 317.696 187.451 315.888C187.451 313.968 187.795 312.344 188.483 311.016C189.187 309.688 190.155 308.68 191.387 307.992C192.635 307.304 194.067 306.96 195.683 306.96C196.531 306.96 197.339 307.048 198.107 307.224C198.891 307.4 199.555 307.672 200.099 308.04L198.947 310.392C198.483 310.088 197.979 309.88 197.435 309.768C196.907 309.64 196.347 309.576 195.755 309.576C194.171 309.576 192.915 310.064 191.987 311.04C191.059 312.016 190.595 313.456 190.595 315.36C190.595 315.664 190.603 316.024 190.619 316.44C190.635 316.84 190.691 317.248 190.787 317.664L189.827 316.608C190.115 315.952 190.507 315.408 191.003 314.976C191.515 314.528 192.115 314.192 192.803 313.968C193.507 313.744 194.267 313.632 195.083 313.632C196.187 313.632 197.171 313.848 198.035 314.28C198.899 314.696 199.587 315.296 200.099 316.08C200.611 316.848 200.867 317.752 200.867 318.792C200.867 319.896 200.595 320.856 200.051 321.672C199.507 322.488 198.771 323.12 197.843 323.568C196.915 324.016 195.875 324.24 194.723 324.24ZM194.555 321.792C195.195 321.792 195.763 321.68 196.259 321.456C196.755 321.216 197.139 320.88 197.411 320.448C197.699 320.016 197.843 319.512 197.843 318.936C197.843 318.056 197.539 317.36 196.931 316.848C196.323 316.336 195.507 316.08 194.483 316.08C193.811 316.08 193.219 316.208 192.707 316.464C192.211 316.704 191.811 317.04 191.507 317.472C191.219 317.904 191.075 318.4 191.075 318.96C191.075 319.472 191.211 319.944 191.483 320.376C191.755 320.808 192.147 321.152 192.659 321.408C193.187 321.664 193.819 321.792 194.555 321.792ZM146.545 354V337.2H149.113L159.649 350.136H158.377V337.2H161.473V354H158.905L148.369 341.064H149.641V354H146.545ZM171.447 354.168C170.135 354.168 168.967 353.888 167.943 353.328C166.919 352.752 166.111 351.968 165.519 350.976C164.927 349.984 164.631 348.856 164.631 347.592C164.631 346.312 164.927 345.184 165.519 344.208C166.111 343.216 166.919 342.44 167.943 341.88C168.967 341.32 170.135 341.04 171.447 341.04C172.775 341.04 173.951 341.32 174.975 341.88C176.015 342.44 176.823 343.208 177.399 344.184C177.991 345.16 178.287 346.296 178.287 347.592C178.287 348.856 177.991 349.984 177.399 350.976C176.823 351.968 176.015 352.752 174.975 353.328C173.951 353.888 172.775 354.168 171.447 354.168ZM171.447 351.6C172.183 351.6 172.839 351.44 173.415 351.12C173.991 350.8 174.439 350.336 174.759 349.728C175.095 349.12 175.263 348.408 175.263 347.592C175.263 346.76 175.095 346.048 174.759 345.456C174.439 344.848 173.991 344.384 173.415 344.064C172.839 343.744 172.191 343.584 171.471 343.584C170.735 343.584 170.079 343.744 169.503 344.064C168.943 344.384 168.495 344.848 168.159 345.456C167.823 346.048 167.655 346.76 167.655 347.592C167.655 348.408 167.823 349.12 168.159 349.728C168.495 350.336 168.943 350.8 169.503 351.12C170.079 351.44 170.727 351.6 171.447 351.6ZM184.212 354L178.716 341.184H181.836L186.564 352.488H185.028L189.924 341.184H192.804L187.308 354H184.212Z" fill="white"/>
<path d="M121.221 434.49V447H119.169V438.432L115.353 447H113.931L110.097 438.432V447H108.045V434.49H110.259L114.651 444.3L119.025 434.49H121.221ZM123.234 441.996C123.234 441 123.438 440.118 123.846 439.35C124.266 438.582 124.83 437.988 125.538 437.568C126.258 437.136 127.05 436.92 127.914 436.92C128.694 436.92 129.372 437.076 129.948 437.388C130.536 437.688 131.004 438.066 131.352 438.522V437.082H133.422V447H131.352V445.524C131.004 445.992 130.53 446.382 129.93 446.694C129.33 447.006 128.646 447.162 127.878 447.162C127.026 447.162 126.246 446.946 125.538 446.514C124.83 446.07 124.266 445.458 123.846 444.678C123.438 443.886 123.234 442.992 123.234 441.996ZM131.352 442.032C131.352 441.348 131.208 440.754 130.92 440.25C130.644 439.746 130.278 439.362 129.822 439.098C129.366 438.834 128.874 438.702 128.346 438.702C127.818 438.702 127.326 438.834 126.87 439.098C126.414 439.35 126.042 439.728 125.754 440.232C125.478 440.724 125.34 441.312 125.34 441.996C125.34 442.68 125.478 443.28 125.754 443.796C126.042 444.312 126.414 444.708 126.87 444.984C127.338 445.248 127.83 445.38 128.346 445.38C128.874 445.38 129.366 445.248 129.822 444.984C130.278 444.72 130.644 444.336 130.92 443.832C131.208 443.316 131.352 442.716 131.352 442.032ZM139.718 447.162C138.938 447.162 138.236 447.024 137.612 446.748C137 446.46 136.514 446.076 136.154 445.596C135.794 445.104 135.602 444.558 135.578 443.958H137.702C137.738 444.378 137.936 444.732 138.296 445.02C138.668 445.296 139.13 445.434 139.682 445.434C140.258 445.434 140.702 445.326 141.014 445.11C141.338 444.882 141.5 444.594 141.5 444.246C141.5 443.874 141.32 443.598 140.96 443.418C140.612 443.238 140.054 443.04 139.286 442.824C138.542 442.62 137.936 442.422 137.468 442.23C137 442.038 136.592 441.744 136.244 441.348C135.908 440.952 135.74 440.43 135.74 439.782C135.74 439.254 135.896 438.774 136.208 438.342C136.52 437.898 136.964 437.55 137.54 437.298C138.128 437.046 138.8 436.92 139.556 436.92C140.684 436.92 141.59 437.208 142.274 437.784C142.97 438.348 143.342 439.122 143.39 440.106H141.338C141.302 439.662 141.122 439.308 140.798 439.044C140.474 438.78 140.036 438.648 139.484 438.648C138.944 438.648 138.53 438.75 138.242 438.954C137.954 439.158 137.81 439.428 137.81 439.764C137.81 440.028 137.906 440.25 138.098 440.43C138.29 440.61 138.524 440.754 138.8 440.862C139.076 440.958 139.484 441.084 140.024 441.24C140.744 441.432 141.332 441.63 141.788 441.834C142.256 442.026 142.658 442.314 142.994 442.698C143.33 443.082 143.504 443.592 143.516 444.228C143.516 444.792 143.36 445.296 143.048 445.74C142.736 446.184 142.292 446.532 141.716 446.784C141.152 447.036 140.486 447.162 139.718 447.162ZM145.049 441.996C145.049 441 145.253 440.118 145.661 439.35C146.081 438.582 146.645 437.988 147.353 437.568C148.073 437.136 148.865 436.92 149.729 436.92C150.509 436.92 151.187 437.076 151.763 437.388C152.351 437.688 152.819 438.066 153.167 438.522V437.082H155.237V447H153.167V445.524C152.819 445.992 152.345 446.382 151.745 446.694C151.145 447.006 150.461 447.162 149.693 447.162C148.841 447.162 148.061 446.946 147.353 446.514C146.645 446.07 146.081 445.458 145.661 444.678C145.253 443.886 145.049 442.992 145.049 441.996ZM153.167 442.032C153.167 441.348 153.023 440.754 152.735 440.25C152.459 439.746 152.093 439.362 151.637 439.098C151.181 438.834 150.689 438.702 150.161 438.702C149.633 438.702 149.141 438.834 148.685 439.098C148.229 439.35 147.857 439.728 147.569 440.232C147.293 440.724 147.155 441.312 147.155 441.996C147.155 442.68 147.293 443.28 147.569 443.796C147.857 444.312 148.229 444.708 148.685 444.984C149.153 445.248 149.645 445.38 150.161 445.38C150.689 445.38 151.181 445.248 151.637 444.984C152.093 444.72 152.459 444.336 152.735 443.832C153.023 443.316 153.167 442.716 153.167 442.032ZM170.69 434.49V436.164H167.36V447H165.308V436.164H161.96V434.49H170.69ZM181.858 441.798C181.858 442.17 181.834 442.506 181.786 442.806H174.208C174.268 443.598 174.562 444.234 175.09 444.714C175.618 445.194 176.266 445.434 177.034 445.434C178.138 445.434 178.918 444.972 179.374 444.048H181.588C181.288 444.96 180.742 445.71 179.95 446.298C179.17 446.874 178.198 447.162 177.034 447.162C176.086 447.162 175.234 446.952 174.478 446.532C173.734 446.1 173.146 445.5 172.714 444.732C172.294 443.952 172.084 443.052 172.084 442.032C172.084 441.012 172.288 440.118 172.696 439.35C173.116 438.57 173.698 437.97 174.442 437.55C175.198 437.13 176.062 436.92 177.034 436.92C177.97 436.92 178.804 437.124 179.536 437.532C180.268 437.94 180.838 438.516 181.246 439.26C181.654 439.992 181.858 440.838 181.858 441.798ZM179.716 441.15C179.704 440.394 179.434 439.788 178.906 439.332C178.378 438.876 177.724 438.648 176.944 438.648C176.236 438.648 175.63 438.876 175.126 439.332C174.622 439.776 174.322 440.382 174.226 441.15H179.716ZM188.881 436.92C189.661 436.92 190.357 437.082 190.969 437.406C191.593 437.73 192.079 438.21 192.427 438.846C192.775 439.482 192.949 440.25 192.949 441.15V447H190.915V441.456C190.915 440.568 190.693 439.89 190.249 439.422C189.805 438.942 189.199 438.702 188.431 438.702C187.663 438.702 187.051 438.942 186.595 439.422C186.151 439.89 185.929 440.568 185.929 441.456V447H183.877V437.082H185.929V438.216C186.265 437.808 186.691 437.49 187.207 437.262C187.735 437.034 188.293 436.92 188.881 436.92ZM194.883 441.996C194.883 441 195.087 440.118 195.495 439.35C195.915 438.582 196.479 437.988 197.187 437.568C197.907 437.136 198.699 436.92 199.563 436.92C200.343 436.92 201.021 437.076 201.597 437.388C202.185 437.688 202.653 438.066 203.001 438.522V437.082H205.071V447H203.001V445.524C202.653 445.992 202.179 446.382 201.579 446.694C200.979 447.006 200.295 447.162 199.527 447.162C198.675 447.162 197.895 446.946 197.187 446.514C196.479 446.07 195.915 445.458 195.495 444.678C195.087 443.886 194.883 442.992 194.883 441.996ZM203.001 442.032C203.001 441.348 202.857 440.754 202.569 440.25C202.293 439.746 201.927 439.362 201.471 439.098C201.015 438.834 200.523 438.702 199.995 438.702C199.467 438.702 198.975 438.834 198.519 439.098C198.063 439.35 197.691 439.728 197.403 440.232C197.127 440.724 196.989 441.312 196.989 441.996C196.989 442.68 197.127 443.28 197.403 443.796C197.691 444.312 198.063 444.708 198.519 444.984C198.987 445.248 199.479 445.38 199.995 445.38C200.523 445.38 201.015 445.248 201.471 444.984C201.927 444.72 202.293 444.336 202.569 443.832C202.857 443.316 203.001 442.716 203.001 442.032ZM212.77 436.92C213.55 436.92 214.246 437.082 214.858 437.406C215.482 437.73 215.968 438.21 216.316 438.846C216.664 439.482 216.838 440.25 216.838 441.15V447H214.804V441.456C214.804 440.568 214.582 439.89 214.138 439.422C213.694 438.942 213.088 438.702 212.32 438.702C211.552 438.702 210.94 438.942 210.484 439.422C210.04 439.89 209.818 440.568 209.818 441.456V447H207.766V437.082H209.818V438.216C210.154 437.808 210.58 437.49 211.096 437.262C211.624 437.034 212.182 436.92 212.77 436.92ZM223.451 436.92C224.219 436.92 224.897 437.076 225.485 437.388C226.085 437.688 226.553 438.066 226.889 438.522V437.082H228.959V447.162C228.959 448.074 228.767 448.884 228.383 449.592C227.999 450.312 227.441 450.876 226.709 451.284C225.989 451.692 225.125 451.896 224.117 451.896C222.773 451.896 221.657 451.578 220.769 450.942C219.881 450.318 219.377 449.466 219.257 448.386H221.291C221.447 448.902 221.777 449.316 222.281 449.628C222.797 449.952 223.409 450.114 224.117 450.114C224.945 450.114 225.611 449.862 226.115 449.358C226.631 448.854 226.889 448.122 226.889 447.162V445.506C226.541 445.974 226.067 446.37 225.467 446.694C224.879 447.006 224.207 447.162 223.451 447.162C222.587 447.162 221.795 446.946 221.075 446.514C220.367 446.07 219.803 445.458 219.383 444.678C218.975 443.886 218.771 442.992 218.771 441.996C218.771 441 218.975 440.118 219.383 439.35C219.803 438.582 220.367 437.988 221.075 437.568C221.795 437.136 222.587 436.92 223.451 436.92ZM226.889 442.032C226.889 441.348 226.745 440.754 226.457 440.25C226.181 439.746 225.815 439.362 225.359 439.098C224.903 438.834 224.411 438.702 223.883 438.702C223.355 438.702 222.863 438.834 222.407 439.098C221.951 439.35 221.579 439.728 221.291 440.232C221.015 440.724 220.877 441.312 220.877 441.996C220.877 442.68 221.015 443.28 221.291 443.796C221.579 444.312 221.951 444.708 222.407 444.984C222.875 445.248 223.367 445.38 223.883 445.38C224.411 445.38 224.903 445.248 225.359 444.984C225.815 444.72 226.181 444.336 226.457 443.832C226.745 443.316 226.889 442.716 226.889 442.032Z" fill="black"/>
<path d="M272.5 352.5H362.5" stroke="#F88312" stroke-width="12" stroke-linecap="round"/>
<path d="M462.404 256.852C464.394 254.008 468.606 254.008 470.596 256.852L485.491 278.13C486.605 279.723 488.542 280.525 490.456 280.187L516.034 275.673C519.452 275.07 522.43 278.048 521.827 281.466L517.313 307.044C516.975 308.958 517.777 310.895 519.37 312.009L540.648 326.904C543.492 328.894 543.492 333.106 540.648 335.096L519.37 349.991C517.777 351.105 516.975 353.042 517.313 354.956L521.827 380.534C522.43 383.952 519.452 386.93 516.034 386.327L490.456 381.813C488.542 381.475 486.605 382.277 485.491 383.87L470.596 405.148C468.606 407.992 464.394 407.992 462.404 405.148L447.509 383.87C446.395 382.277 444.458 381.475 442.544 381.813L416.966 386.327C413.548 386.93 410.57 383.952 411.173 380.534L415.687 354.956C416.025 353.042 415.223 351.105 413.63 349.991L392.352 335.096C389.508 333.106 389.508 328.894 392.352 326.904L413.63 312.009C415.223 310.895 416.025 308.958 415.687 307.044L411.173 281.466C410.57 278.048 413.548 275.07 416.966 275.673L442.544 280.187C444.458 280.525 446.395 279.723 447.509 278.13L462.404 256.852Z" fill="#F88312"/>
<path d="M434.399 324V321.912L441.071 315.576C441.631 315.048 442.047 314.584 442.319 314.184C442.591 313.784 442.767 313.416 442.847 313.08C442.943 312.728 442.991 312.4 442.991 312.096C442.991 311.328 442.727 310.736 442.199 310.32C441.671 309.888 440.895 309.672 439.871 309.672C439.055 309.672 438.311 309.816 437.639 310.104C436.983 310.392 436.415 310.832 435.935 311.424L433.751 309.744C434.407 308.864 435.287 308.184 436.391 307.704C437.511 307.208 438.759 306.96 440.135 306.96C441.351 306.96 442.407 307.16 443.303 307.56C444.215 307.944 444.911 308.496 445.391 309.216C445.887 309.936 446.135 310.792 446.135 311.784C446.135 312.328 446.063 312.872 445.919 313.416C445.775 313.944 445.503 314.504 445.103 315.096C444.703 315.688 444.119 316.352 443.351 317.088L437.615 322.536L436.967 321.36H446.783V324H434.399ZM451.391 324L458.327 308.448L459.143 309.84H449.615L451.103 308.328V312.696H448.199V307.2H461.255V309.288L454.727 324H451.391ZM462.254 318.576V316.08H468.854V318.576H462.254ZM470.656 324V321.912L477.328 315.576C477.888 315.048 478.304 314.584 478.576 314.184C478.848 313.784 479.024 313.416 479.104 313.08C479.2 312.728 479.248 312.4 479.248 312.096C479.248 311.328 478.984 310.736 478.456 310.32C477.928 309.888 477.152 309.672 476.128 309.672C475.312 309.672 474.568 309.816 473.896 310.104C473.24 310.392 472.672 310.832 472.192 311.424L470.008 309.744C470.664 308.864 471.544 308.184 472.648 307.704C473.768 307.208 475.016 306.96 476.392 306.96C477.608 306.96 478.664 307.16 479.56 307.56C480.472 307.944 481.168 308.496 481.648 309.216C482.144 309.936 482.392 310.792 482.392 311.784C482.392 312.328 482.32 312.872 482.176 313.416C482.032 313.944 481.76 314.504 481.36 315.096C480.96 315.688 480.376 316.352 479.608 317.088L473.872 322.536L473.224 321.36H483.04V324H470.656ZM491.585 324.24C490.193 324.24 488.985 324.032 487.961 323.616C486.937 323.2 486.145 322.616 485.585 321.864C485.025 321.096 484.745 320.2 484.745 319.176C484.745 318.152 485.017 317.288 485.561 316.584C486.105 315.88 486.889 315.344 487.913 314.976C488.937 314.608 490.161 314.424 491.585 314.424C493.009 314.424 494.233 314.608 495.257 314.976C496.297 315.344 497.089 315.888 497.633 316.608C498.193 317.312 498.473 318.168 498.473 319.176C498.473 320.2 498.185 321.096 497.609 321.864C497.049 322.616 496.249 323.2 495.209 323.616C494.185 324.032 492.977 324.24 491.585 324.24ZM491.585 321.792C492.737 321.792 493.649 321.552 494.321 321.072C494.993 320.592 495.329 319.928 495.329 319.08C495.329 318.248 494.993 317.592 494.321 317.112C493.649 316.632 492.737 316.392 491.585 316.392C490.433 316.392 489.529 316.632 488.873 317.112C488.217 317.592 487.889 318.248 487.889 319.08C487.889 319.928 488.217 320.592 488.873 321.072C489.529 321.552 490.433 321.792 491.585 321.792ZM491.585 316.056C490.289 316.056 489.177 315.888 488.249 315.552C487.321 315.2 486.601 314.696 486.089 314.04C485.593 313.368 485.345 312.568 485.345 311.64C485.345 310.68 485.601 309.856 486.113 309.168C486.641 308.464 487.377 307.92 488.321 307.536C489.265 307.152 490.353 306.96 491.585 306.96C492.833 306.96 493.929 307.152 494.873 307.536C495.817 307.92 496.553 308.464 497.081 309.168C497.609 309.856 497.873 310.68 497.873 311.64C497.873 312.568 497.617 313.368 497.105 314.04C496.609 314.696 495.889 315.2 494.945 315.552C494.001 315.888 492.881 316.056 491.585 316.056ZM491.585 314.136C492.577 314.136 493.361 313.928 493.937 313.512C494.513 313.08 494.801 312.504 494.801 311.784C494.801 311.032 494.505 310.448 493.913 310.032C493.321 309.616 492.545 309.408 491.585 309.408C490.625 309.408 489.857 309.616 489.281 310.032C488.705 310.448 488.417 311.032 488.417 311.784C488.417 312.504 488.697 313.08 489.257 313.512C489.833 313.928 490.609 314.136 491.585 314.136ZM444.545 354V337.2H447.113L457.649 350.136H456.377V337.2H459.473V354H456.905L446.369 341.064H447.641V354H444.545ZM469.447 354.168C468.135 354.168 466.967 353.888 465.943 353.328C464.919 352.752 464.111 351.968 463.519 350.976C462.927 349.984 462.631 348.856 462.631 347.592C462.631 346.312 462.927 345.184 463.519 344.208C464.111 343.216 464.919 342.44 465.943 341.88C466.967 341.32 468.135 341.04 469.447 341.04C470.775 341.04 471.951 341.32 472.975 341.88C474.015 342.44 474.823 343.208 475.399 344.184C475.991 345.16 476.287 346.296 476.287 347.592C476.287 348.856 475.991 349.984 475.399 350.976C474.823 351.968 474.015 352.752 472.975 353.328C471.951 353.888 470.775 354.168 469.447 354.168ZM469.447 351.6C470.183 351.6 470.839 351.44 471.415 351.12C471.991 350.8 472.439 350.336 472.759 349.728C473.095 349.12 473.263 348.408 473.263 347.592C473.263 346.76 473.095 346.048 472.759 345.456C472.439 344.848 471.991 344.384 471.415 344.064C470.839 343.744 470.191 343.584 469.471 343.584C468.735 343.584 468.079 343.744 467.503 344.064C466.943 344.384 466.495 344.848 466.159 345.456C465.823 346.048 465.655 346.76 465.655 347.592C465.655 348.408 465.823 349.12 466.159 349.728C466.495 350.336 466.943 350.8 467.503 351.12C468.079 351.44 468.727 351.6 469.447 351.6ZM482.212 354L476.716 341.184H479.836L484.564 352.488H483.028L487.924 341.184H490.804L485.308 354H482.212Z" fill="white"/>
<path d="M444.254 438.216C444.254 438.852 444.104 439.452 443.804 440.016C443.504 440.58 443.024 441.042 442.364 441.402C441.704 441.75 440.858 441.924 439.826 441.924H437.558V447H435.506V434.49H439.826C440.786 434.49 441.596 434.658 442.256 434.994C442.928 435.318 443.426 435.762 443.75 436.326C444.086 436.89 444.254 437.52 444.254 438.216ZM439.826 440.25C440.606 440.25 441.188 440.076 441.572 439.728C441.956 439.368 442.148 438.864 442.148 438.216C442.148 436.848 441.374 436.164 439.826 436.164H437.558V440.25H439.826ZM448.263 436.146V439.818H452.583V441.492H448.263V445.326H453.123V447H446.211V434.472H453.123V436.146H448.263ZM468.827 434.49V447H466.775V438.432L462.959 447H461.537L457.703 438.432V447H455.651V434.49H457.865L462.257 444.3L466.631 434.49H468.827ZM473.576 434.49V447H471.524V434.49H473.576ZM482.768 447L479.888 441.996H478.322V447H476.27V434.49H480.59C481.55 434.49 482.36 434.658 483.02 434.994C483.692 435.33 484.19 435.78 484.514 436.344C484.85 436.908 485.018 437.538 485.018 438.234C485.018 439.05 484.778 439.794 484.298 440.466C483.83 441.126 483.104 441.576 482.12 441.816L485.216 447H482.768ZM478.322 440.358H480.59C481.358 440.358 481.934 440.166 482.318 439.782C482.714 439.398 482.912 438.882 482.912 438.234C482.912 437.586 482.72 437.082 482.336 436.722C481.952 436.35 481.37 436.164 480.59 436.164H478.322V440.358ZM495.185 444.444H489.947L489.047 447H486.905L491.387 434.472H493.763L498.245 447H496.085L495.185 444.444ZM494.609 442.77L492.575 436.956L490.523 442.77H494.609Z" fill="black"/>
</svg>
