<svg width="160" height="126" viewBox="0 0 160 126" fill="none" xmlns="http://www.w3.org/2000/svg">
<path id="Triangle" fill-rule="evenodd" clip-rule="evenodd" d="M82.2715 42.643L60.8078 5.38425C56.9686 -1.28019 47.3572 -1.2968 43.495 5.35432L1.37486 77.8893C-2.50412 84.5693 2.33278 92.9377 10.0573 92.9109L53.1684 92.7614L42.9991 110.274C39.1201 116.954 43.957 125.322 51.6815 125.296L149.788 124.955C157.467 124.929 162.251 116.617 158.419 109.964L109.659 25.3225C105.82 18.6581 96.2089 18.6415 92.3467 25.2926L82.2715 42.643ZM82.2715 42.643L53.1684 92.7614L93.7954 92.6205C101.474 92.5939 106.259 84.2822 102.426 77.6289L82.2715 42.643Z" fill="url(#paint0_linear_221_2056)"/>
<defs>
<linearGradient id="paint0_linear_221_2056" x1="55.5" y1="-15.9453" x2="133.626" y2="182.736" gradientUnits="userSpaceOnUse">
<stop stop-color="#F88312"/>
<stop offset="1" stop-color="#E03BFB"/>
</linearGradient>
</defs>
</svg>
