<svg width="141" height="112" viewBox="0 0 141 112" fill="none" xmlns="http://www.w3.org/2000/svg">
<path fill-rule="evenodd" clip-rule="evenodd" d="M93.8478 29.7443L130.033 29.5593C137.742 29.5198 142.595 37.8513 138.756 44.5377L103.297 106.308C99.4418 113.023 89.7461 112.998 85.9259 106.263L68.0316 74.716L59.9666 88.7652C56.1117 95.4804 46.416 95.4554 42.5958 88.7204L1.46431 16.206C-2.3058 9.55936 2.46997 1.31147 10.1113 1.27239L93.1137 0.848007C100.823 0.808587 105.676 9.14008 101.837 15.8264L93.8478 29.7443ZM93.8478 29.7443L68.0316 74.716L51.0924 44.8523C47.3223 38.2056 52.0981 29.9577 59.7394 29.9187L93.8478 29.7443Z" fill="url(#paint0_linear_221_2061)"/>
<defs>
<linearGradient id="paint0_linear_221_2061" x1="22.6641" y1="-49.9453" x2="92.6204" y2="126.603" gradientUnits="userSpaceOnUse">
<stop stop-color="#F88312"/>
<stop offset="1" stop-color="#E03BFB"/>
</linearGradient>
</defs>
</svg>
